%TF.GenerationSoftware,KiCad,Pcbnew,9.0.3*%
%TF.CreationDate,2025-10-02T12:34:45+05:30*%
%TF.ProjectId,pslab-mini,70736c61-622d-46d6-996e-692e6b696361,0.0.0*%
%TF.SameCoordinates,Original*%
%TF.FileFunction,Copper,L1,Top*%
%TF.FilePolarity,Positive*%
%FSLAX46Y46*%
G04 Gerber Fmt 4.6, Leading zero omitted, Abs format (unit mm)*
G04 Created by KiCad (PCBNEW 9.0.3) date 2025-10-02 12:34:45*
%MOMM*%
%LPD*%
G01*
G04 APERTURE LIST*
G04 Aperture macros list*
%AMRoundRect*
0 Rectangle with rounded corners*
0 $1 Rounding radius*
0 $2 $3 $4 $5 $6 $7 $8 $9 X,Y pos of 4 corners*
0 Add a 4 corners polygon primitive as box body*
4,1,4,$2,$3,$4,$5,$6,$7,$8,$9,$2,$3,0*
0 Add four circle primitives for the rounded corners*
1,1,$1+$1,$2,$3*
1,1,$1+$1,$4,$5*
1,1,$1+$1,$6,$7*
1,1,$1+$1,$8,$9*
0 Add four rect primitives between the rounded corners*
20,1,$1+$1,$2,$3,$4,$5,0*
20,1,$1+$1,$4,$5,$6,$7,0*
20,1,$1+$1,$6,$7,$8,$9,0*
20,1,$1+$1,$8,$9,$2,$3,0*%
G04 Aperture macros list end*
%TA.AperFunction,SMDPad,CuDef*%
%ADD10RoundRect,0.125000X0.125000X-0.175000X0.125000X0.175000X-0.125000X0.175000X-0.125000X-0.175000X0*%
%TD*%
%TA.AperFunction,SMDPad,CuDef*%
%ADD11RoundRect,0.125000X-0.125000X0.175000X-0.125000X-0.175000X0.125000X-0.175000X0.125000X0.175000X0*%
%TD*%
%TA.AperFunction,SMDPad,CuDef*%
%ADD12RoundRect,0.200000X-0.275000X0.200000X-0.275000X-0.200000X0.275000X-0.200000X0.275000X0.200000X0*%
%TD*%
%TA.AperFunction,ComponentPad*%
%ADD13C,2.500000*%
%TD*%
%TA.AperFunction,ComponentPad*%
%ADD14C,3.500000*%
%TD*%
%TA.AperFunction,SMDPad,CuDef*%
%ADD15C,0.500000*%
%TD*%
%TA.AperFunction,SMDPad,CuDef*%
%ADD16RoundRect,0.250000X0.275000X0.700000X-0.275000X0.700000X-0.275000X-0.700000X0.275000X-0.700000X0*%
%TD*%
%TA.AperFunction,SMDPad,CuDef*%
%ADD17RoundRect,0.135000X-0.185000X0.135000X-0.185000X-0.135000X0.185000X-0.135000X0.185000X0.135000X0*%
%TD*%
%TA.AperFunction,SMDPad,CuDef*%
%ADD18RoundRect,0.250000X-0.475000X0.250000X-0.475000X-0.250000X0.475000X-0.250000X0.475000X0.250000X0*%
%TD*%
%TA.AperFunction,SMDPad,CuDef*%
%ADD19RoundRect,0.225000X-0.250000X0.225000X-0.250000X-0.225000X0.250000X-0.225000X0.250000X0.225000X0*%
%TD*%
%TA.AperFunction,SMDPad,CuDef*%
%ADD20R,1.240000X0.600000*%
%TD*%
%TA.AperFunction,SMDPad,CuDef*%
%ADD21R,1.240000X0.300000*%
%TD*%
%TA.AperFunction,HeatsinkPad*%
%ADD22O,2.100000X1.000000*%
%TD*%
%TA.AperFunction,HeatsinkPad*%
%ADD23O,1.800000X1.000000*%
%TD*%
%TA.AperFunction,SMDPad,CuDef*%
%ADD24RoundRect,0.200000X0.200000X0.275000X-0.200000X0.275000X-0.200000X-0.275000X0.200000X-0.275000X0*%
%TD*%
%TA.AperFunction,SMDPad,CuDef*%
%ADD25RoundRect,0.225000X-0.225000X-0.250000X0.225000X-0.250000X0.225000X0.250000X-0.225000X0.250000X0*%
%TD*%
%TA.AperFunction,SMDPad,CuDef*%
%ADD26RoundRect,0.147500X-0.172500X0.147500X-0.172500X-0.147500X0.172500X-0.147500X0.172500X0.147500X0*%
%TD*%
%TA.AperFunction,SMDPad,CuDef*%
%ADD27RoundRect,0.375000X0.625000X0.375000X-0.625000X0.375000X-0.625000X-0.375000X0.625000X-0.375000X0*%
%TD*%
%TA.AperFunction,SMDPad,CuDef*%
%ADD28RoundRect,0.500000X0.500000X1.400000X-0.500000X1.400000X-0.500000X-1.400000X0.500000X-1.400000X0*%
%TD*%
%TA.AperFunction,SMDPad,CuDef*%
%ADD29RoundRect,0.250000X0.250000X0.475000X-0.250000X0.475000X-0.250000X-0.475000X0.250000X-0.475000X0*%
%TD*%
%TA.AperFunction,SMDPad,CuDef*%
%ADD30RoundRect,0.250000X0.475000X-0.250000X0.475000X0.250000X-0.475000X0.250000X-0.475000X-0.250000X0*%
%TD*%
%TA.AperFunction,SMDPad,CuDef*%
%ADD31RoundRect,0.150000X-0.150000X0.512500X-0.150000X-0.512500X0.150000X-0.512500X0.150000X0.512500X0*%
%TD*%
%TA.AperFunction,SMDPad,CuDef*%
%ADD32RoundRect,0.250000X0.375000X0.625000X-0.375000X0.625000X-0.375000X-0.625000X0.375000X-0.625000X0*%
%TD*%
%TA.AperFunction,SMDPad,CuDef*%
%ADD33RoundRect,0.250000X-0.250000X-0.475000X0.250000X-0.475000X0.250000X0.475000X-0.250000X0.475000X0*%
%TD*%
%TA.AperFunction,SMDPad,CuDef*%
%ADD34RoundRect,0.225000X0.225000X0.250000X-0.225000X0.250000X-0.225000X-0.250000X0.225000X-0.250000X0*%
%TD*%
%TA.AperFunction,SMDPad,CuDef*%
%ADD35RoundRect,0.150000X0.150000X-0.512500X0.150000X0.512500X-0.150000X0.512500X-0.150000X-0.512500X0*%
%TD*%
%TA.AperFunction,SMDPad,CuDef*%
%ADD36RoundRect,0.225000X0.250000X-0.225000X0.250000X0.225000X-0.250000X0.225000X-0.250000X-0.225000X0*%
%TD*%
%TA.AperFunction,SMDPad,CuDef*%
%ADD37RoundRect,0.200000X-0.200000X-0.275000X0.200000X-0.275000X0.200000X0.275000X-0.200000X0.275000X0*%
%TD*%
%TA.AperFunction,SMDPad,CuDef*%
%ADD38R,0.900000X1.400000*%
%TD*%
%TA.AperFunction,SMDPad,CuDef*%
%ADD39R,1.250000X1.000000*%
%TD*%
%TA.AperFunction,SMDPad,CuDef*%
%ADD40RoundRect,0.140000X-0.170000X0.140000X-0.170000X-0.140000X0.170000X-0.140000X0.170000X0.140000X0*%
%TD*%
%TA.AperFunction,SMDPad,CuDef*%
%ADD41C,0.800000*%
%TD*%
%TA.AperFunction,SMDPad,CuDef*%
%ADD42RoundRect,0.200000X0.275000X-0.200000X0.275000X0.200000X-0.275000X0.200000X-0.275000X-0.200000X0*%
%TD*%
%TA.AperFunction,SMDPad,CuDef*%
%ADD43RoundRect,0.250000X-0.350000X0.450000X-0.350000X-0.450000X0.350000X-0.450000X0.350000X0.450000X0*%
%TD*%
%TA.AperFunction,ComponentPad*%
%ADD44C,4.750000*%
%TD*%
%TA.AperFunction,SMDPad,CuDef*%
%ADD45RoundRect,0.075000X0.700000X0.075000X-0.700000X0.075000X-0.700000X-0.075000X0.700000X-0.075000X0*%
%TD*%
%TA.AperFunction,SMDPad,CuDef*%
%ADD46RoundRect,0.075000X0.075000X0.700000X-0.075000X0.700000X-0.075000X-0.700000X0.075000X-0.700000X0*%
%TD*%
%TA.AperFunction,SMDPad,CuDef*%
%ADD47RoundRect,0.140000X-0.140000X-0.170000X0.140000X-0.170000X0.140000X0.170000X-0.140000X0.170000X0*%
%TD*%
%TA.AperFunction,SMDPad,CuDef*%
%ADD48RoundRect,0.135000X-0.135000X-0.185000X0.135000X-0.185000X0.135000X0.185000X-0.135000X0.185000X0*%
%TD*%
%TA.AperFunction,SMDPad,CuDef*%
%ADD49RoundRect,0.218750X-0.218750X-0.256250X0.218750X-0.256250X0.218750X0.256250X-0.218750X0.256250X0*%
%TD*%
%TA.AperFunction,SMDPad,CuDef*%
%ADD50RoundRect,0.250000X-0.450000X-0.350000X0.450000X-0.350000X0.450000X0.350000X-0.450000X0.350000X0*%
%TD*%
%TA.AperFunction,SMDPad,CuDef*%
%ADD51RoundRect,0.243750X0.243750X0.456250X-0.243750X0.456250X-0.243750X-0.456250X0.243750X-0.456250X0*%
%TD*%
%TA.AperFunction,SMDPad,CuDef*%
%ADD52RoundRect,0.140000X0.140000X0.170000X-0.140000X0.170000X-0.140000X-0.170000X0.140000X-0.170000X0*%
%TD*%
%TA.AperFunction,SMDPad,CuDef*%
%ADD53R,1.000000X1.800000*%
%TD*%
%TA.AperFunction,SMDPad,CuDef*%
%ADD54RoundRect,0.175000X0.325000X-0.175000X0.325000X0.175000X-0.325000X0.175000X-0.325000X-0.175000X0*%
%TD*%
%TA.AperFunction,SMDPad,CuDef*%
%ADD55RoundRect,0.150000X0.150000X-0.200000X0.150000X0.200000X-0.150000X0.200000X-0.150000X-0.200000X0*%
%TD*%
%TA.AperFunction,SMDPad,CuDef*%
%ADD56R,1.000000X2.600000*%
%TD*%
%TA.AperFunction,SMDPad,CuDef*%
%ADD57R,1.500000X3.400000*%
%TD*%
%TA.AperFunction,SMDPad,CuDef*%
%ADD58RoundRect,0.162500X-0.162500X0.650000X-0.162500X-0.650000X0.162500X-0.650000X0.162500X0.650000X0*%
%TD*%
%TA.AperFunction,SMDPad,CuDef*%
%ADD59RoundRect,0.218750X0.218750X0.256250X-0.218750X0.256250X-0.218750X-0.256250X0.218750X-0.256250X0*%
%TD*%
%TA.AperFunction,SMDPad,CuDef*%
%ADD60RoundRect,0.243750X0.456250X-0.243750X0.456250X0.243750X-0.456250X0.243750X-0.456250X-0.243750X0*%
%TD*%
%TA.AperFunction,SMDPad,CuDef*%
%ADD61RoundRect,0.140000X0.170000X-0.140000X0.170000X0.140000X-0.170000X0.140000X-0.170000X-0.140000X0*%
%TD*%
%TA.AperFunction,ComponentPad*%
%ADD62R,1.700000X1.700000*%
%TD*%
%TA.AperFunction,ComponentPad*%
%ADD63C,1.700000*%
%TD*%
%TA.AperFunction,SMDPad,CuDef*%
%ADD64RoundRect,0.062500X-0.337500X-0.062500X0.337500X-0.062500X0.337500X0.062500X-0.337500X0.062500X0*%
%TD*%
%TA.AperFunction,SMDPad,CuDef*%
%ADD65RoundRect,0.062500X-0.062500X-0.337500X0.062500X-0.337500X0.062500X0.337500X-0.062500X0.337500X0*%
%TD*%
%TA.AperFunction,HeatsinkPad*%
%ADD66R,3.700000X3.700000*%
%TD*%
%TA.AperFunction,SMDPad,CuDef*%
%ADD67RoundRect,0.062500X0.350000X0.062500X-0.350000X0.062500X-0.350000X-0.062500X0.350000X-0.062500X0*%
%TD*%
%TA.AperFunction,SMDPad,CuDef*%
%ADD68RoundRect,0.062500X0.062500X0.350000X-0.062500X0.350000X-0.062500X-0.350000X0.062500X-0.350000X0*%
%TD*%
%TA.AperFunction,HeatsinkPad*%
%ADD69R,2.600000X2.600000*%
%TD*%
%TA.AperFunction,ComponentPad*%
%ADD70RoundRect,0.250000X0.650000X1.350000X-0.650000X1.350000X-0.650000X-1.350000X0.650000X-1.350000X0*%
%TD*%
%TA.AperFunction,ComponentPad*%
%ADD71O,1.800000X3.200000*%
%TD*%
%TA.AperFunction,SMDPad,CuDef*%
%ADD72RoundRect,0.100000X0.100000X-0.225000X0.100000X0.225000X-0.100000X0.225000X-0.100000X-0.225000X0*%
%TD*%
%TA.AperFunction,SMDPad,CuDef*%
%ADD73R,0.600000X1.000000*%
%TD*%
%TA.AperFunction,SMDPad,CuDef*%
%ADD74RoundRect,0.218750X0.218750X0.381250X-0.218750X0.381250X-0.218750X-0.381250X0.218750X-0.381250X0*%
%TD*%
%TA.AperFunction,SMDPad,CuDef*%
%ADD75RoundRect,0.135000X0.135000X0.185000X-0.135000X0.185000X-0.135000X-0.185000X0.135000X-0.185000X0*%
%TD*%
%TA.AperFunction,SMDPad,CuDef*%
%ADD76RoundRect,0.243750X-0.456250X0.243750X-0.456250X-0.243750X0.456250X-0.243750X0.456250X0.243750X0*%
%TD*%
%TA.AperFunction,SMDPad,CuDef*%
%ADD77RoundRect,0.090000X0.360000X-0.660000X0.360000X0.660000X-0.360000X0.660000X-0.360000X-0.660000X0*%
%TD*%
%TA.AperFunction,ViaPad*%
%ADD78C,0.600000*%
%TD*%
%TA.AperFunction,Conductor*%
%ADD79C,0.400000*%
%TD*%
%TA.AperFunction,Conductor*%
%ADD80C,0.800000*%
%TD*%
%TA.AperFunction,Conductor*%
%ADD81C,0.200000*%
%TD*%
%TA.AperFunction,Conductor*%
%ADD82C,0.350000*%
%TD*%
%TA.AperFunction,Conductor*%
%ADD83C,0.180000*%
%TD*%
G04 APERTURE END LIST*
D10*
%TO.P,Q2,1,B*%
%TO.N,Net-(Q2-B)*%
X93000000Y-72250000D03*
%TO.P,Q2,2,E*%
%TO.N,GND*%
X94000000Y-72250000D03*
%TO.P,Q2,3,C*%
%TO.N,/NRST*%
X93500000Y-70950000D03*
%TD*%
D11*
%TO.P,Q1,1,B*%
%TO.N,Net-(Q1-B)*%
X94000000Y-77500000D03*
%TO.P,Q1,2,E*%
%TO.N,GND*%
X93000000Y-77500000D03*
%TO.P,Q1,3,C*%
%TO.N,/ESP_EN*%
X93500000Y-78800000D03*
%TD*%
D12*
%TO.P,R31,1*%
%TO.N,/LA2*%
X126250000Y-61500000D03*
%TO.P,R31,2*%
%TO.N,Net-(U8-PA2)*%
X126250000Y-63150000D03*
%TD*%
D13*
%TO.P,J3,1,In*%
%TO.N,/CH1*%
X157400000Y-81250000D03*
D14*
%TO.P,J3,2,Ext*%
%TO.N,GND*%
X160700000Y-84550000D03*
X160700000Y-77950000D03*
X154100000Y-84550000D03*
X154100000Y-77950000D03*
%TD*%
D12*
%TO.P,R30,1*%
%TO.N,/FQY*%
X113750000Y-61500000D03*
%TO.P,R30,2*%
%TO.N,Net-(U8-PA4)*%
X113750000Y-63150000D03*
%TD*%
D15*
%TO.P,FID3,*%
%TO.N,*%
X156000000Y-107500000D03*
%TD*%
D16*
%TO.P,GD1,1*%
%TO.N,GND*%
X159825000Y-73500000D03*
%TO.P,GD1,2*%
%TO.N,/CH1*%
X156675000Y-73500000D03*
%TD*%
D17*
%TO.P,R50,1*%
%TO.N,Net-(R24-Pad2)*%
X141500000Y-73990000D03*
%TO.P,R50,2*%
%TO.N,Net-(U10--)*%
X141500000Y-75010000D03*
%TD*%
D18*
%TO.P,C15,1*%
%TO.N,+5V*%
X127500000Y-96300000D03*
%TO.P,C15,2*%
%TO.N,GND*%
X127500000Y-98200000D03*
%TD*%
D12*
%TO.P,R32,1*%
%TO.N,/LA1*%
X123740000Y-61500000D03*
%TO.P,R32,2*%
%TO.N,Net-(U8-PA3)*%
X123740000Y-63150000D03*
%TD*%
D19*
%TO.P,C48,1*%
%TO.N,+3V3*%
X91250000Y-96750000D03*
%TO.P,C48,2*%
%TO.N,GND*%
X91250000Y-98300000D03*
%TD*%
D20*
%TO.P,J1,A1,GND*%
%TO.N,GND*%
X157075000Y-101850000D03*
%TO.P,J1,A4,VBUS*%
%TO.N,VBUS*%
X157075000Y-101050000D03*
D21*
%TO.P,J1,A5,CC1*%
%TO.N,Net-(J1-CC1)*%
X157075000Y-99900000D03*
%TO.P,J1,A6,D+*%
%TO.N,/D+*%
X157075000Y-98900000D03*
%TO.P,J1,A7,D-*%
%TO.N,/D-*%
X157075000Y-98400000D03*
%TO.P,J1,A8,SBU1*%
%TO.N,unconnected-(J1-SBU1-PadA8)*%
X157075000Y-97400000D03*
D20*
%TO.P,J1,A9,VBUS*%
%TO.N,VBUS*%
X157075000Y-96250000D03*
%TO.P,J1,A12,GND*%
%TO.N,GND*%
X157075000Y-95450000D03*
%TO.P,J1,B1,GND*%
X157075000Y-95450000D03*
%TO.P,J1,B4,VBUS*%
%TO.N,VBUS*%
X157075000Y-96250000D03*
D21*
%TO.P,J1,B5,CC2*%
%TO.N,Net-(J1-CC2)*%
X157075000Y-96900000D03*
%TO.P,J1,B6,D+*%
%TO.N,/D+*%
X157075000Y-97900000D03*
%TO.P,J1,B7,D-*%
%TO.N,/D-*%
X157075000Y-99400000D03*
%TO.P,J1,B8,SBU2*%
%TO.N,unconnected-(J1-SBU2-PadB8)*%
X157075000Y-100400000D03*
D20*
%TO.P,J1,B9,VBUS*%
%TO.N,VBUS*%
X157075000Y-101050000D03*
%TO.P,J1,B12,GND*%
%TO.N,GND*%
X157075000Y-101850000D03*
D22*
%TO.P,J1,S1,SHIELD*%
X157675000Y-102970000D03*
D23*
X161875000Y-102970000D03*
D22*
X157675000Y-94330000D03*
D23*
X161875000Y-94330000D03*
%TD*%
D24*
%TO.P,R27,1*%
%TO.N,Net-(U9--)*%
X140075000Y-62000000D03*
%TO.P,R27,2*%
%TO.N,Net-(C39-Pad2)*%
X138425000Y-62000000D03*
%TD*%
D25*
%TO.P,C27,1*%
%TO.N,/LSE_IN*%
X126175000Y-85480000D03*
%TO.P,C27,2*%
%TO.N,GND*%
X127725000Y-85480000D03*
%TD*%
D26*
%TO.P,L6,1,1*%
%TO.N,/ESP_ANT_IN*%
X81775000Y-89050000D03*
%TO.P,L6,2,2*%
%TO.N,/ESP_ANT*%
X81775000Y-90020000D03*
%TD*%
D27*
%TO.P,U1,1,GND*%
%TO.N,GND*%
X123150000Y-101300000D03*
%TO.P,U1,2,VO*%
%TO.N,+3V3*%
X123150000Y-99000000D03*
D28*
X116850000Y-99000000D03*
D27*
%TO.P,U1,3,VI*%
%TO.N,+5V*%
X123150000Y-96700000D03*
%TD*%
D29*
%TO.P,C32,1*%
%TO.N,Net-(C32-Pad1)*%
X111950000Y-70250000D03*
%TO.P,C32,2*%
%TO.N,GND*%
X110050000Y-70250000D03*
%TD*%
D24*
%TO.P,R10,1*%
%TO.N,GND*%
X148300000Y-62500000D03*
%TO.P,R10,2*%
%TO.N,Net-(C17-Pad2)*%
X146650000Y-62500000D03*
%TD*%
%TO.P,R29,1*%
%TO.N,Net-(C39-Pad2)*%
X136575000Y-67250000D03*
%TO.P,R29,2*%
%TO.N,/CH2_IN*%
X134925000Y-67250000D03*
%TD*%
D15*
%TO.P,FID1,*%
%TO.N,*%
X87250000Y-55250000D03*
%TD*%
D19*
%TO.P,C30,1*%
%TO.N,/LSE_OUT*%
X129450000Y-83025000D03*
%TO.P,C30,2*%
%TO.N,GND*%
X129450000Y-84575000D03*
%TD*%
D12*
%TO.P,R17,1*%
%TO.N,/RES*%
X118500000Y-61675000D03*
%TO.P,R17,2*%
%TO.N,+3V3*%
X118500000Y-63325000D03*
%TD*%
D25*
%TO.P,C16,1*%
%TO.N,/HSE_IN*%
X127975000Y-80900000D03*
%TO.P,C16,2*%
%TO.N,GND*%
X129525000Y-80900000D03*
%TD*%
D30*
%TO.P,C8,1*%
%TO.N,GND*%
X114300000Y-100200000D03*
%TO.P,C8,2*%
%TO.N,+3V3*%
X114300000Y-98300000D03*
%TD*%
D31*
%TO.P,U2,1,BS*%
%TO.N,Net-(U2-BS)*%
X129050000Y-92162500D03*
%TO.P,U2,2,GND*%
%TO.N,-2V*%
X128100000Y-92162500D03*
%TO.P,U2,3,FB*%
%TO.N,Net-(U2-FB)*%
X127150000Y-92162500D03*
%TO.P,U2,4,EN*%
%TO.N,+5V*%
X127150000Y-94437500D03*
%TO.P,U2,5,VIN*%
X128100000Y-94437500D03*
%TO.P,U2,6,SW*%
%TO.N,Net-(U2-SW)*%
X129050000Y-94437500D03*
%TD*%
D32*
%TO.P,F1,1*%
%TO.N,VBUS*%
X149650000Y-94250000D03*
%TO.P,F1,2*%
%TO.N,VIN*%
X146850000Y-94250000D03*
%TD*%
D19*
%TO.P,C56,1*%
%TO.N,GND*%
X95800000Y-77475000D03*
%TO.P,C56,2*%
%TO.N,/ESP_EN*%
X95800000Y-79025000D03*
%TD*%
D33*
%TO.P,C3,1*%
%TO.N,/BC_VDD*%
X145300000Y-99000000D03*
%TO.P,C3,2*%
%TO.N,GND*%
X147200000Y-99000000D03*
%TD*%
D19*
%TO.P,C28,1*%
%TO.N,+3V3*%
X123500000Y-83350000D03*
%TO.P,C28,2*%
%TO.N,GND*%
X123500000Y-84900000D03*
%TD*%
D34*
%TO.P,C39,1*%
%TO.N,Net-(U9--)*%
X140025000Y-63750000D03*
%TO.P,C39,2*%
%TO.N,Net-(C39-Pad2)*%
X138475000Y-63750000D03*
%TD*%
D35*
%TO.P,U6,1*%
%TO.N,/Vatt_1*%
X143100000Y-75387500D03*
%TO.P,U6,2,V-*%
%TO.N,-2V*%
X144050000Y-75387500D03*
%TO.P,U6,3,+*%
%TO.N,Net-(U6-+)*%
X145000000Y-75387500D03*
%TO.P,U6,4,-*%
%TO.N,/Vatt_1*%
X145000000Y-73112500D03*
%TO.P,U6,5,V+*%
%TO.N,+3V3*%
X143100000Y-73112500D03*
%TD*%
D33*
%TO.P,C7,1*%
%TO.N,/BC_BATT*%
X134800000Y-93250000D03*
%TO.P,C7,2*%
%TO.N,GND*%
X136700000Y-93250000D03*
%TD*%
D36*
%TO.P,C2,1*%
%TO.N,GND*%
X125500000Y-98025000D03*
%TO.P,C2,2*%
%TO.N,+5V*%
X125500000Y-96475000D03*
%TD*%
D37*
%TO.P,R9,1*%
%TO.N,Net-(C17-Pad2)*%
X149925000Y-69750000D03*
%TO.P,R9,2*%
%TO.N,Net-(C17-Pad1)*%
X151575000Y-69750000D03*
%TD*%
D38*
%TO.P,C18,1*%
%TO.N,Net-(C18-Pad1)*%
X150475000Y-78000000D03*
%TO.P,C18,2*%
%TO.N,Net-(C18-Pad2)*%
X146575000Y-78000000D03*
%TD*%
D16*
%TO.P,GD2,1*%
%TO.N,GND*%
X159825000Y-69750000D03*
%TO.P,GD2,2*%
%TO.N,/CH2*%
X156675000Y-69750000D03*
%TD*%
D15*
%TO.P,FID2,*%
%TO.N,*%
X159000000Y-55250000D03*
%TD*%
D39*
%TO.P,SW1,1,1*%
%TO.N,Net-(R46-Pad1)*%
X89250000Y-75750000D03*
%TO.P,SW1,2,2*%
%TO.N,+3V3*%
X81500000Y-75750000D03*
%TD*%
D26*
%TO.P,L4,1,1*%
%TO.N,Net-(C46-Pad2)*%
X85900000Y-89150000D03*
%TO.P,L4,2,2*%
%TO.N,Net-(U11-XTAL_P)*%
X85900000Y-90120000D03*
%TD*%
D37*
%TO.P,R19,1*%
%TO.N,Net-(U10-+)*%
X142425000Y-79500000D03*
%TO.P,R19,2*%
%TO.N,/Vref*%
X144075000Y-79500000D03*
%TD*%
D17*
%TO.P,R51,1*%
%TO.N,Net-(R22-Pad2)*%
X141750000Y-67490000D03*
%TO.P,R51,2*%
%TO.N,Net-(U9-+)*%
X141750000Y-68510000D03*
%TD*%
D40*
%TO.P,C10,1*%
%TO.N,-2V*%
X144250000Y-77020000D03*
%TO.P,C10,2*%
%TO.N,GND*%
X144250000Y-77980000D03*
%TD*%
D24*
%TO.P,R26,1*%
%TO.N,Net-(U10--)*%
X140075000Y-72000000D03*
%TO.P,R26,2*%
%TO.N,Net-(C38-Pad2)*%
X138425000Y-72000000D03*
%TD*%
D41*
%TO.P,TP6,1,1*%
%TO.N,-2V*%
X130000000Y-89250000D03*
%TD*%
D25*
%TO.P,C12,1*%
%TO.N,GND*%
X123975000Y-91500000D03*
%TO.P,C12,2*%
%TO.N,Net-(U2-FB)*%
X125525000Y-91500000D03*
%TD*%
%TO.P,C35,1*%
%TO.N,VDDA*%
X124725000Y-76250000D03*
%TO.P,C35,2*%
%TO.N,GND*%
X126275000Y-76250000D03*
%TD*%
D42*
%TO.P,R33,1*%
%TO.N,/I2C1_SCL*%
X125500000Y-103575000D03*
%TO.P,R33,2*%
%TO.N,+3V3*%
X125500000Y-101925000D03*
%TD*%
D43*
%TO.P,Y2,1,1*%
%TO.N,Net-(C46-Pad2)*%
X87850000Y-86850000D03*
%TO.P,Y2,2,2*%
%TO.N,GND*%
X87850000Y-89050000D03*
%TO.P,Y2,3,3*%
%TO.N,Net-(U11-XTAL_N)*%
X89550000Y-89050000D03*
%TO.P,Y2,4,4*%
%TO.N,GND*%
X89550000Y-86850000D03*
%TD*%
D33*
%TO.P,C34,1*%
%TO.N,Net-(C34-Pad1)*%
X119750000Y-88500000D03*
%TO.P,C34,2*%
%TO.N,GND*%
X121650000Y-88500000D03*
%TD*%
D25*
%TO.P,C22,1*%
%TO.N,/HSE_OUT*%
X127975000Y-79000000D03*
%TO.P,C22,2*%
%TO.N,GND*%
X129525000Y-79000000D03*
%TD*%
D44*
%TO.P,MH2,1,1*%
%TO.N,GND*%
X141150000Y-56750000D03*
%TD*%
D24*
%TO.P,R42,1*%
%TO.N,/USER_LED*%
X107312500Y-74500000D03*
%TO.P,R42,2*%
%TO.N,Net-(D3-A)*%
X105662500Y-74500000D03*
%TD*%
D45*
%TO.P,U8,1,VBAT*%
%TO.N,+3V3*%
X121175000Y-82500000D03*
%TO.P,U8,2,PC13*%
%TO.N,unconnected-(U8-PC13-Pad2)*%
X121175000Y-82000000D03*
%TO.P,U8,3,PC14*%
%TO.N,/LSE_IN*%
X121175000Y-81500000D03*
%TO.P,U8,4,PC15*%
%TO.N,/LSE_OUT*%
X121175000Y-81000000D03*
%TO.P,U8,5,PH0*%
%TO.N,/HSE_IN*%
X121175000Y-80500000D03*
%TO.P,U8,6,PH1*%
%TO.N,/HSE_OUT*%
X121175000Y-80000000D03*
%TO.P,U8,7,NRST*%
%TO.N,/NRST*%
X121175000Y-79500000D03*
%TO.P,U8,8,PC0*%
%TO.N,/VOL*%
X121175000Y-79000000D03*
%TO.P,U8,9,PC1*%
%TO.N,/RES*%
X121175000Y-78500000D03*
%TO.P,U8,10,PC2*%
%TO.N,Net-(U8-PC2)*%
X121175000Y-78000000D03*
%TO.P,U8,11,PC3*%
%TO.N,/CAP*%
X121175000Y-77500000D03*
%TO.P,U8,12,VSSA*%
%TO.N,GND*%
X121175000Y-77000000D03*
%TO.P,U8,13,VDDA*%
%TO.N,VDDA*%
X121175000Y-76500000D03*
%TO.P,U8,14,PA0*%
%TO.N,/CH1_IN*%
X121175000Y-76000000D03*
%TO.P,U8,15,PA1*%
%TO.N,/CH2_IN*%
X121175000Y-75500000D03*
%TO.P,U8,16,PA2*%
%TO.N,Net-(U8-PA2)*%
X121175000Y-75000000D03*
D46*
%TO.P,U8,17,PA3*%
%TO.N,Net-(U8-PA3)*%
X119250000Y-73075000D03*
%TO.P,U8,18,VSS*%
%TO.N,GND*%
X118750000Y-73075000D03*
%TO.P,U8,19,VDD*%
%TO.N,+3V3*%
X118250000Y-73075000D03*
%TO.P,U8,20,PA4*%
%TO.N,Net-(U8-PA4)*%
X117750000Y-73075000D03*
%TO.P,U8,21,PA5*%
%TO.N,/GPIO0*%
X117250000Y-73075000D03*
%TO.P,U8,22,PA6*%
%TO.N,/GPIO1*%
X116750000Y-73075000D03*
%TO.P,U8,23,PA7*%
%TO.N,/GPIO2*%
X116250000Y-73075000D03*
%TO.P,U8,24,PC4*%
%TO.N,/GPIO3*%
X115750000Y-73075000D03*
%TO.P,U8,25,PC5*%
%TO.N,/GPIO4*%
X115250000Y-73075000D03*
%TO.P,U8,26,PB0*%
%TO.N,/GPIO5*%
X114750000Y-73075000D03*
%TO.P,U8,27,PB1*%
%TO.N,unconnected-(U8-PB1-Pad27)*%
X114250000Y-73075000D03*
%TO.P,U8,28,PB2*%
%TO.N,unconnected-(U8-PB2-Pad28)*%
X113750000Y-73075000D03*
%TO.P,U8,29,PB10*%
%TO.N,unconnected-(U8-PB10-Pad29)*%
X113250000Y-73075000D03*
%TO.P,U8,30,VCAP*%
%TO.N,Net-(C32-Pad1)*%
X112750000Y-73075000D03*
%TO.P,U8,31,VSS*%
%TO.N,GND*%
X112250000Y-73075000D03*
%TO.P,U8,32,VDD*%
%TO.N,+3V3*%
X111750000Y-73075000D03*
D45*
%TO.P,U8,33,PB12*%
%TO.N,/USER_LED*%
X109825000Y-75000000D03*
%TO.P,U8,34,PB13*%
%TO.N,/ESP_SPI2_CLK*%
X109825000Y-75500000D03*
%TO.P,U8,35,PB14*%
%TO.N,/ESP_SPI2_MISO*%
X109825000Y-76000000D03*
%TO.P,U8,36,PB15*%
%TO.N,/ESP_SPI2_MOSI*%
X109825000Y-76500000D03*
%TO.P,U8,37,PC6*%
%TO.N,/UART6_TX*%
X109825000Y-77000000D03*
%TO.P,U8,38,PC7*%
%TO.N,/UART6_RX*%
X109825000Y-77500000D03*
%TO.P,U8,39,PC8*%
%TO.N,/GPIO6*%
X109825000Y-78000000D03*
%TO.P,U8,40,PC9*%
%TO.N,/GPIO7*%
X109825000Y-78500000D03*
%TO.P,U8,41,PA8*%
%TO.N,/GPIO8*%
X109825000Y-79000000D03*
%TO.P,U8,42,PA9*%
%TO.N,/ESP_UART_TX*%
X109825000Y-79500000D03*
%TO.P,U8,43,PA10*%
%TO.N,/ESP_UART_RX*%
X109825000Y-80000000D03*
%TO.P,U8,44,PA11*%
%TO.N,/D-*%
X109825000Y-80500000D03*
%TO.P,U8,45,PA12*%
%TO.N,/D+*%
X109825000Y-81000000D03*
%TO.P,U8,46,PA13(JTMS*%
%TO.N,/SWDIO*%
X109825000Y-81500000D03*
%TO.P,U8,47,VSS*%
%TO.N,GND*%
X109825000Y-82000000D03*
%TO.P,U8,48,VDD*%
%TO.N,+3V3*%
X109825000Y-82500000D03*
D46*
%TO.P,U8,49,PA14(JTCK*%
%TO.N,/SWCLK*%
X111750000Y-84425000D03*
%TO.P,U8,50,PA15(JTDI)*%
%TO.N,/ESP_DATA_READY*%
X112250000Y-84425000D03*
%TO.P,U8,51,PC10*%
%TO.N,/SPI3_SCK*%
X112750000Y-84425000D03*
%TO.P,U8,52,PC11*%
%TO.N,/SPI3_MISO*%
X113250000Y-84425000D03*
%TO.P,U8,53,PC12*%
%TO.N,/SPI3_MOSI*%
X113750000Y-84425000D03*
%TO.P,U8,54,PD2*%
%TO.N,unconnected-(U8-PD2-Pad54)*%
X114250000Y-84425000D03*
%TO.P,U8,55,PB3(JTDO*%
%TO.N,/SPI.CS*%
X114750000Y-84425000D03*
%TO.P,U8,56,PB4(NJTRST)*%
%TO.N,/ESP_{BOOT}*%
X115250000Y-84425000D03*
%TO.P,U8,57,PB5*%
%TO.N,/ESP_EN*%
X115750000Y-84425000D03*
%TO.P,U8,58,PB6*%
%TO.N,/I2C1_SCL*%
X116250000Y-84425000D03*
%TO.P,U8,59,PB7*%
%TO.N,/I2C1_SDA*%
X116750000Y-84425000D03*
%TO.P,U8,60,BOOT0*%
%TO.N,GND*%
X117250000Y-84425000D03*
%TO.P,U8,61,PB8*%
%TO.N,/RGB*%
X117750000Y-84425000D03*
%TO.P,U8,62,VCAP*%
%TO.N,Net-(C34-Pad1)*%
X118250000Y-84425000D03*
%TO.P,U8,63,VSS*%
%TO.N,GND*%
X118750000Y-84425000D03*
%TO.P,U8,64,VDD*%
%TO.N,+3V3*%
X119250000Y-84425000D03*
%TD*%
D12*
%TO.P,R36,1*%
%TO.N,/ESP_STRAP_2*%
X88750000Y-99925000D03*
%TO.P,R36,2*%
%TO.N,+3V3*%
X88750000Y-101575000D03*
%TD*%
D35*
%TO.P,U9,1*%
%TO.N,Net-(C39-Pad2)*%
X138300000Y-67887500D03*
%TO.P,U9,2,V-*%
%TO.N,GND*%
X139250000Y-67887500D03*
%TO.P,U9,3,+*%
%TO.N,Net-(U9-+)*%
X140200000Y-67887500D03*
%TO.P,U9,4,-*%
%TO.N,Net-(U9--)*%
X140200000Y-65612500D03*
%TO.P,U9,5,V+*%
%TO.N,+3V3*%
X138300000Y-65612500D03*
%TD*%
D47*
%TO.P,C57,1*%
%TO.N,+3V3*%
X143020000Y-62000000D03*
%TO.P,C57,2*%
%TO.N,GND*%
X143980000Y-62000000D03*
%TD*%
D33*
%TO.P,C6,1*%
%TO.N,/BC_BATT*%
X134800000Y-91000000D03*
%TO.P,C6,2*%
%TO.N,GND*%
X136700000Y-91000000D03*
%TD*%
D37*
%TO.P,R7,1*%
%TO.N,Net-(C17-Pad1)*%
X153175000Y-69750000D03*
%TO.P,R7,2*%
%TO.N,/CH2*%
X154825000Y-69750000D03*
%TD*%
D34*
%TO.P,C45,1*%
%TO.N,+3V3*%
X82775000Y-95250000D03*
%TO.P,C45,2*%
%TO.N,GND*%
X81225000Y-95250000D03*
%TD*%
D37*
%TO.P,R13,1*%
%TO.N,Net-(U5-+)*%
X146750000Y-68000000D03*
%TO.P,R13,2*%
%TO.N,Net-(C17-Pad2)*%
X148400000Y-68000000D03*
%TD*%
D29*
%TO.P,C14,1*%
%TO.N,GND*%
X132950000Y-91000000D03*
%TO.P,C14,2*%
%TO.N,-2V*%
X131050000Y-91000000D03*
%TD*%
D25*
%TO.P,C31,1*%
%TO.N,+3V3*%
X119725000Y-86500000D03*
%TO.P,C31,2*%
%TO.N,GND*%
X121275000Y-86500000D03*
%TD*%
D34*
%TO.P,C49,1*%
%TO.N,+3V3*%
X82750000Y-97250000D03*
%TO.P,C49,2*%
%TO.N,GND*%
X81200000Y-97250000D03*
%TD*%
D29*
%TO.P,C33,1*%
%TO.N,+3V3*%
X107950000Y-70250000D03*
%TO.P,C33,2*%
%TO.N,GND*%
X106050000Y-70250000D03*
%TD*%
D48*
%TO.P,R41,1*%
%TO.N,/BC_LED*%
X144740000Y-104000000D03*
%TO.P,R41,2*%
%TO.N,Net-(D2-A)*%
X145760000Y-104000000D03*
%TD*%
%TO.P,R44,1*%
%TO.N,/BC_LED3*%
X147230000Y-102000000D03*
%TO.P,R44,2*%
%TO.N,/BC_LED3R*%
X148250000Y-102000000D03*
%TD*%
D49*
%TO.P,D6,1,K*%
%TO.N,/BC_LED2*%
X149702500Y-103750000D03*
%TO.P,D6,2,A*%
%TO.N,/BC_LED3R*%
X151277500Y-103750000D03*
%TD*%
D36*
%TO.P,C55,1*%
%TO.N,GND*%
X92350000Y-101525000D03*
%TO.P,C55,2*%
%TO.N,/ESP_{BOOT}*%
X92350000Y-99975000D03*
%TD*%
D17*
%TO.P,R52,1*%
%TO.N,Net-(R25-Pad2)*%
X141500000Y-63990000D03*
%TO.P,R52,2*%
%TO.N,Net-(U9--)*%
X141500000Y-65010000D03*
%TD*%
D48*
%TO.P,R39,1*%
%TO.N,Net-(U11-SPID)*%
X90990000Y-92100000D03*
%TO.P,R39,2*%
%TO.N,/ESP_SPI_MOSI*%
X92010000Y-92100000D03*
%TD*%
D37*
%TO.P,R21,1*%
%TO.N,Net-(U9-+)*%
X141925000Y-70000000D03*
%TO.P,R21,2*%
%TO.N,/Vref*%
X143575000Y-70000000D03*
%TD*%
D49*
%TO.P,D8,1,K*%
%TO.N,/BC_LED1*%
X149665000Y-107250000D03*
%TO.P,D8,2,A*%
%TO.N,/BC_LED3R*%
X151240000Y-107250000D03*
%TD*%
D41*
%TO.P,TP5,1,1*%
%TO.N,+5V*%
X138400000Y-102000000D03*
%TD*%
D50*
%TO.P,Y1,1,1*%
%TO.N,/HSE_IN*%
X123900000Y-80750000D03*
%TO.P,Y1,2,2*%
%TO.N,GND*%
X126100000Y-80750000D03*
%TO.P,Y1,3,3*%
%TO.N,/HSE_OUT*%
X126100000Y-79050000D03*
%TO.P,Y1,4,4*%
%TO.N,GND*%
X123900000Y-79050000D03*
%TD*%
D25*
%TO.P,C24,1*%
%TO.N,Net-(C18-Pad2)*%
X146725000Y-82500000D03*
%TO.P,C24,2*%
%TO.N,GND*%
X148275000Y-82500000D03*
%TD*%
%TO.P,C21,1*%
%TO.N,Net-(C17-Pad2)*%
X146700000Y-60750000D03*
%TO.P,C21,2*%
%TO.N,GND*%
X148250000Y-60750000D03*
%TD*%
D34*
%TO.P,C38,1*%
%TO.N,Net-(U10--)*%
X140025000Y-73750000D03*
%TO.P,C38,2*%
%TO.N,Net-(C38-Pad2)*%
X138475000Y-73750000D03*
%TD*%
D44*
%TO.P,MH1,1,1*%
%TO.N,GND*%
X83150000Y-56750000D03*
%TD*%
D42*
%TO.P,R34,1*%
%TO.N,/I2C1_SDA*%
X127250000Y-103575000D03*
%TO.P,R34,2*%
%TO.N,+3V3*%
X127250000Y-101925000D03*
%TD*%
D51*
%TO.P,D4,1,K*%
%TO.N,GND*%
X162187500Y-105750000D03*
%TO.P,D4,2,A*%
%TO.N,Net-(D4-A)*%
X160312500Y-105750000D03*
%TD*%
D44*
%TO.P,MH4,1,1*%
%TO.N,GND*%
X83150000Y-105750000D03*
%TD*%
D35*
%TO.P,U10,1*%
%TO.N,Net-(C38-Pad2)*%
X138350000Y-77887500D03*
%TO.P,U10,2,V-*%
%TO.N,GND*%
X139300000Y-77887500D03*
%TO.P,U10,3,+*%
%TO.N,Net-(U10-+)*%
X140250000Y-77887500D03*
%TO.P,U10,4,-*%
%TO.N,Net-(U10--)*%
X140250000Y-75612500D03*
%TO.P,U10,5,V+*%
%TO.N,+3V3*%
X138350000Y-75612500D03*
%TD*%
D19*
%TO.P,C44,1*%
%TO.N,GND*%
X91815000Y-87965000D03*
%TO.P,C44,2*%
%TO.N,Net-(U11-XTAL_N)*%
X91815000Y-89515000D03*
%TD*%
D52*
%TO.P,C52,1*%
%TO.N,GND*%
X82730000Y-91015000D03*
%TO.P,C52,2*%
%TO.N,/ESP_ANT*%
X81770000Y-91015000D03*
%TD*%
D53*
%TO.P,X1,1,1*%
%TO.N,/LSE_OUT*%
X127700000Y-83300000D03*
%TO.P,X1,2,2*%
%TO.N,/LSE_IN*%
X125200000Y-83300000D03*
%TD*%
D37*
%TO.P,R4,1*%
%TO.N,Net-(U2-FB)*%
X127175000Y-90250000D03*
%TO.P,R4,2*%
%TO.N,-2V*%
X128825000Y-90250000D03*
%TD*%
D54*
%TO.P,U4,1,A*%
%TO.N,GND*%
X151000000Y-99600000D03*
D55*
%TO.P,U4,2,K*%
%TO.N,/D-*%
X152700000Y-99600000D03*
%TO.P,U4,3,K*%
%TO.N,/D+*%
X152700000Y-97600000D03*
%TO.P,U4,4,K*%
%TO.N,VBUS*%
X150800000Y-97600000D03*
%TD*%
D37*
%TO.P,R3,1*%
%TO.N,GND*%
X123925000Y-89750000D03*
%TO.P,R3,2*%
%TO.N,Net-(U2-FB)*%
X125575000Y-89750000D03*
%TD*%
%TO.P,R23,1*%
%TO.N,Net-(U7--)*%
X141905000Y-83500000D03*
%TO.P,R23,2*%
%TO.N,/Vref*%
X143555000Y-83500000D03*
%TD*%
D41*
%TO.P,TP8,1,1*%
%TO.N,/Vref*%
X144750000Y-84500000D03*
%TD*%
D56*
%TO.P,J2,1,+*%
%TO.N,/BC_BATT*%
X133950000Y-98200000D03*
%TO.P,J2,2,-*%
%TO.N,GND*%
X131950000Y-98200000D03*
D57*
%TO.P,J2,3*%
%TO.N,N/C*%
X136300000Y-103500000D03*
%TO.P,J2,4*%
X129600000Y-103500000D03*
%TD*%
D34*
%TO.P,C46,1*%
%TO.N,GND*%
X93325000Y-86250000D03*
%TO.P,C46,2*%
%TO.N,Net-(C46-Pad2)*%
X91775000Y-86250000D03*
%TD*%
D37*
%TO.P,R15,1*%
%TO.N,GND*%
X134905000Y-81750000D03*
%TO.P,R15,2*%
%TO.N,Net-(U7-+)*%
X136555000Y-81750000D03*
%TD*%
D58*
%TO.P,U12,1,~{CS}*%
%TO.N,/ESP_FLASH_CS*%
X98555000Y-91282500D03*
%TO.P,U12,2,DO*%
%TO.N,/ESP_SPI_MISO*%
X97285000Y-91282500D03*
%TO.P,U12,3,~{WP}*%
%TO.N,/ESP_FLASH_WP*%
X96015000Y-91282500D03*
%TO.P,U12,4,GND*%
%TO.N,GND*%
X94745000Y-91282500D03*
%TO.P,U12,5,DI*%
%TO.N,/ESP_SPI_MOSI*%
X94745000Y-98457500D03*
%TO.P,U12,6,CLK*%
%TO.N,/ESP_SPI_CLK*%
X96015000Y-98457500D03*
%TO.P,U12,7,~{HOLD}*%
%TO.N,/ESP_FLASH_RST*%
X97285000Y-98457500D03*
%TO.P,U12,8,VCC*%
%TO.N,VDD_SPI*%
X98555000Y-98457500D03*
%TD*%
D29*
%TO.P,C26,1*%
%TO.N,Net-(U7-+)*%
X136630000Y-83750000D03*
%TO.P,C26,2*%
%TO.N,GND*%
X134730000Y-83750000D03*
%TD*%
D48*
%TO.P,R40,1*%
%TO.N,Net-(U11-SPIQ)*%
X91000000Y-91000000D03*
%TO.P,R40,2*%
%TO.N,/ESP_SPI_MISO*%
X92020000Y-91000000D03*
%TD*%
D18*
%TO.P,C11,1*%
%TO.N,VDDA*%
X112050000Y-98300000D03*
%TO.P,C11,2*%
%TO.N,GND*%
X112050000Y-100200000D03*
%TD*%
D12*
%TO.P,R2,1*%
%TO.N,GND*%
X160500000Y-89675000D03*
%TO.P,R2,2*%
%TO.N,Net-(J1-CC2)*%
X160500000Y-91325000D03*
%TD*%
D59*
%TO.P,D7,1,K*%
%TO.N,/BC_LED3R*%
X151277500Y-105500000D03*
%TO.P,D7,2,A*%
%TO.N,/BC_LED1*%
X149702500Y-105500000D03*
%TD*%
D19*
%TO.P,C54,1*%
%TO.N,/NRST*%
X95800000Y-69950000D03*
%TO.P,C54,2*%
%TO.N,GND*%
X95800000Y-71500000D03*
%TD*%
D34*
%TO.P,C19,1*%
%TO.N,+3V3*%
X107600000Y-83500000D03*
%TO.P,C19,2*%
%TO.N,GND*%
X106050000Y-83500000D03*
%TD*%
D40*
%TO.P,C58,1*%
%TO.N,-2V*%
X144250000Y-67510000D03*
%TO.P,C58,2*%
%TO.N,GND*%
X144250000Y-68470000D03*
%TD*%
D35*
%TO.P,U5,1*%
%TO.N,/Vatt_2*%
X143050000Y-65887500D03*
%TO.P,U5,2,V-*%
%TO.N,-2V*%
X144000000Y-65887500D03*
%TO.P,U5,3,+*%
%TO.N,Net-(U5-+)*%
X144950000Y-65887500D03*
%TO.P,U5,4,-*%
%TO.N,/Vatt_2*%
X144950000Y-63612500D03*
%TO.P,U5,5,V+*%
%TO.N,+3V3*%
X143050000Y-63612500D03*
%TD*%
D42*
%TO.P,R46,1*%
%TO.N,Net-(R46-Pad1)*%
X90250000Y-74075000D03*
%TO.P,R46,2*%
%TO.N,GND*%
X90250000Y-72425000D03*
%TD*%
D60*
%TO.P,D2,1,K*%
%TO.N,GND*%
X145250000Y-107500000D03*
%TO.P,D2,2,A*%
%TO.N,Net-(D2-A)*%
X145250000Y-105625000D03*
%TD*%
D34*
%TO.P,C25,1*%
%TO.N,+3V3*%
X110300000Y-72250000D03*
%TO.P,C25,2*%
%TO.N,GND*%
X108750000Y-72250000D03*
%TD*%
D17*
%TO.P,R25,1*%
%TO.N,GND*%
X141500000Y-61990000D03*
%TO.P,R25,2*%
%TO.N,Net-(R25-Pad2)*%
X141500000Y-63010000D03*
%TD*%
D18*
%TO.P,C50,1*%
%TO.N,+3V3*%
X81500000Y-99500000D03*
%TO.P,C50,2*%
%TO.N,GND*%
X81500000Y-101400000D03*
%TD*%
D17*
%TO.P,R49,1*%
%TO.N,Net-(R20-Pad2)*%
X141750000Y-76990000D03*
%TO.P,R49,2*%
%TO.N,Net-(U10-+)*%
X141750000Y-78010000D03*
%TD*%
D24*
%TO.P,R28,1*%
%TO.N,Net-(C38-Pad2)*%
X136575000Y-77000000D03*
%TO.P,R28,2*%
%TO.N,/CH1_IN*%
X134925000Y-77000000D03*
%TD*%
D12*
%TO.P,R5,1*%
%TO.N,GND*%
X162500000Y-89675000D03*
%TO.P,R5,2*%
%TO.N,Net-(J1-CC1)*%
X162500000Y-91325000D03*
%TD*%
D25*
%TO.P,C36,1*%
%TO.N,VDDA*%
X127975000Y-75500000D03*
%TO.P,C36,2*%
%TO.N,GND*%
X129525000Y-75500000D03*
%TD*%
D41*
%TO.P,TP7,1,1*%
%TO.N,VIN*%
X148400000Y-92300000D03*
%TD*%
D61*
%TO.P,C59,1*%
%TO.N,+3V3*%
X137000000Y-64980000D03*
%TO.P,C59,2*%
%TO.N,GND*%
X137000000Y-64020000D03*
%TD*%
D62*
%TO.P,J5,1,Pin_1*%
%TO.N,GND*%
X90750000Y-56000000D03*
D63*
%TO.P,J5,2,Pin_2*%
%TO.N,/GPIO8*%
X90750000Y-58540000D03*
%TO.P,J5,3,Pin_3*%
%TO.N,GND*%
X93290000Y-56000000D03*
%TO.P,J5,4,Pin_4*%
%TO.N,/GPIO7*%
X93290000Y-58540000D03*
%TO.P,J5,5,Pin_5*%
%TO.N,GND*%
X95830000Y-56000000D03*
%TO.P,J5,6,Pin_6*%
%TO.N,/GPIO6*%
X95830000Y-58540000D03*
%TO.P,J5,7,Pin_7*%
%TO.N,GND*%
X98370000Y-56000000D03*
%TO.P,J5,8,Pin_8*%
%TO.N,/GPIO5*%
X98370000Y-58540000D03*
%TO.P,J5,9,Pin_9*%
%TO.N,GND*%
X100910000Y-56000000D03*
%TO.P,J5,10,Pin_10*%
%TO.N,/GPIO4*%
X100910000Y-58540000D03*
%TO.P,J5,11,Pin_11*%
%TO.N,GND*%
X103450000Y-56000000D03*
%TO.P,J5,12,Pin_12*%
%TO.N,/GPIO3*%
X103450000Y-58540000D03*
%TO.P,J5,13,Pin_13*%
%TO.N,GND*%
X105990000Y-56000000D03*
%TO.P,J5,14,Pin_14*%
%TO.N,/GPIO2*%
X105990000Y-58540000D03*
%TO.P,J5,15,Pin_15*%
%TO.N,GND*%
X108530000Y-56000000D03*
%TO.P,J5,16,Pin_16*%
%TO.N,/GPIO1*%
X108530000Y-58540000D03*
%TO.P,J5,17,Pin_17*%
%TO.N,GND*%
X111070000Y-56000000D03*
%TO.P,J5,18,Pin_18*%
%TO.N,/GPIO0*%
X111070000Y-58540000D03*
%TO.P,J5,19,Pin_19*%
%TO.N,GND*%
X113610000Y-56000000D03*
%TO.P,J5,20,Pin_20*%
%TO.N,/FQY*%
X113610000Y-58540000D03*
%TO.P,J5,21,Pin_21*%
%TO.N,GND*%
X116150000Y-56000000D03*
%TO.P,J5,22,Pin_22*%
%TO.N,/CAP*%
X116150000Y-58540000D03*
%TO.P,J5,23,Pin_23*%
%TO.N,GND*%
X118690000Y-56000000D03*
%TO.P,J5,24,Pin_24*%
%TO.N,/RES*%
X118690000Y-58540000D03*
%TO.P,J5,25,Pin_25*%
%TO.N,GND*%
X121230000Y-56000000D03*
%TO.P,J5,26,Pin_26*%
%TO.N,/VOL*%
X121230000Y-58540000D03*
%TO.P,J5,27,Pin_27*%
%TO.N,GND*%
X123770000Y-56000000D03*
%TO.P,J5,28,Pin_28*%
%TO.N,/LA1*%
X123770000Y-58540000D03*
%TO.P,J5,29,Pin_29*%
%TO.N,GND*%
X126310000Y-56000000D03*
%TO.P,J5,30,Pin_30*%
%TO.N,/LA2*%
X126310000Y-58540000D03*
%TO.P,J5,31,Pin_31*%
%TO.N,GND*%
X128850000Y-56000000D03*
%TO.P,J5,32,Pin_32*%
%TO.N,+5V*%
X128850000Y-58540000D03*
%TD*%
D59*
%TO.P,D5,1,K*%
%TO.N,/BC_LED3R*%
X151240000Y-102000000D03*
%TO.P,D5,2,A*%
%TO.N,/BC_LED2*%
X149665000Y-102000000D03*
%TD*%
D37*
%TO.P,R18,1*%
%TO.N,/CAP*%
X127925000Y-77250000D03*
%TO.P,R18,2*%
%TO.N,Net-(U8-PC2)*%
X129575000Y-77250000D03*
%TD*%
D41*
%TO.P,TP1,1,1*%
%TO.N,+3V3*%
X126000000Y-99700000D03*
%TD*%
D52*
%TO.P,C53,1*%
%TO.N,GND*%
X82710000Y-88025000D03*
%TO.P,C53,2*%
%TO.N,/ESP_ANT_IN*%
X81750000Y-88025000D03*
%TD*%
D37*
%TO.P,R43,1*%
%TO.N,VIN*%
X156675000Y-105500000D03*
%TO.P,R43,2*%
%TO.N,Net-(D4-A)*%
X158325000Y-105500000D03*
%TD*%
D64*
%TO.P,U11,1,LNA_IN*%
%TO.N,/ESP_ANT*%
X84625000Y-92645000D03*
%TO.P,U11,2,VDD3P3*%
%TO.N,+3V3*%
X84625000Y-93145000D03*
%TO.P,U11,3,VDD3P3*%
X84625000Y-93645000D03*
%TO.P,U11,4,RTCX_P*%
%TO.N,unconnected-(U11-RTCX_P-Pad4)*%
X84625000Y-94145000D03*
%TO.P,U11,5,RTCX_N*%
%TO.N,unconnected-(U11-RTCX_N-Pad5)*%
X84625000Y-94645000D03*
%TO.P,U11,6,GPIO2*%
%TO.N,/ESP_STRAP_1*%
X84625000Y-95145000D03*
%TO.P,U11,7,CHIP_EN*%
%TO.N,/ESP_EN*%
X84625000Y-95645000D03*
%TO.P,U11,8,GPIO3*%
%TO.N,/ESP_SPI2_MISO*%
X84625000Y-96145000D03*
D65*
%TO.P,U11,9,MTMS*%
%TO.N,/ESP_SPI2_MOSI*%
X85325000Y-96845000D03*
%TO.P,U11,10,MTDI*%
%TO.N,/ESP_SPI2_CLK*%
X85825000Y-96845000D03*
%TO.P,U11,11,VDD3P3_RTC*%
%TO.N,+3V3*%
X86325000Y-96845000D03*
%TO.P,U11,12,MTCK*%
%TO.N,unconnected-(U11-MTCK-Pad12)*%
X86825000Y-96845000D03*
%TO.P,U11,13,MTDO*%
%TO.N,unconnected-(U11-MTDO-Pad13)*%
X87325000Y-96845000D03*
%TO.P,U11,14,GPIO8*%
%TO.N,/ESP_STRAP_2*%
X87825000Y-96845000D03*
%TO.P,U11,15,GPIO9*%
%TO.N,/ESP_{BOOT}*%
X88325000Y-96845000D03*
%TO.P,U11,16,GPIO10*%
%TO.N,/ESP_DATA_READY*%
X88825000Y-96845000D03*
D64*
%TO.P,U11,17,VDD3P3_CPU*%
%TO.N,+3V3*%
X89525000Y-96145000D03*
%TO.P,U11,18,VDD_SPI*%
%TO.N,VDD_SPI*%
X89525000Y-95645000D03*
%TO.P,U11,19,SPIHD*%
%TO.N,/ESP_FLASH_RST*%
X89525000Y-95145000D03*
%TO.P,U11,20,SPIWP*%
%TO.N,/ESP_FLASH_WP*%
X89525000Y-94645000D03*
%TO.P,U11,21,SPICS0*%
%TO.N,/ESP_FLASH_CS*%
X89525000Y-94145000D03*
%TO.P,U11,22,SPICLK*%
%TO.N,Net-(U11-SPICLK)*%
X89525000Y-93645000D03*
%TO.P,U11,23,SPID*%
%TO.N,Net-(U11-SPID)*%
X89525000Y-93145000D03*
%TO.P,U11,24,SPIQ*%
%TO.N,Net-(U11-SPIQ)*%
X89525000Y-92645000D03*
D65*
%TO.P,U11,25,GPIO18*%
%TO.N,unconnected-(U11-GPIO18-Pad25)*%
X88825000Y-91945000D03*
%TO.P,U11,26,GPIO19*%
%TO.N,unconnected-(U11-GPIO19-Pad26)*%
X88325000Y-91945000D03*
%TO.P,U11,27,U0RXD*%
%TO.N,/ESP_UART_TX*%
X87825000Y-91945000D03*
%TO.P,U11,28,U0TXD*%
%TO.N,/ESP_UART_RX*%
X87325000Y-91945000D03*
%TO.P,U11,29,XTAL_N*%
%TO.N,Net-(U11-XTAL_N)*%
X86825000Y-91945000D03*
%TO.P,U11,30,XTAL_P*%
%TO.N,Net-(U11-XTAL_P)*%
X86325000Y-91945000D03*
%TO.P,U11,31,VDDA*%
%TO.N,EAVDD*%
X85825000Y-91945000D03*
%TO.P,U11,32,VDDA*%
X85325000Y-91945000D03*
D66*
%TO.P,U11,33,GND*%
%TO.N,GND*%
X87075000Y-94395000D03*
%TD*%
D12*
%TO.P,R1,1*%
%TO.N,GND*%
X145000000Y-93100000D03*
%TO.P,R1,2*%
%TO.N,/BC_NTC*%
X145000000Y-94750000D03*
%TD*%
D33*
%TO.P,C1,1*%
%TO.N,VIN*%
X145300000Y-96750000D03*
%TO.P,C1,2*%
%TO.N,GND*%
X147200000Y-96750000D03*
%TD*%
D34*
%TO.P,C37,1*%
%TO.N,/Vref*%
X143480000Y-81750000D03*
%TO.P,C37,2*%
%TO.N,GND*%
X141930000Y-81750000D03*
%TD*%
%TO.P,C9,1*%
%TO.N,Net-(U2-SW)*%
X132500000Y-93000000D03*
%TO.P,C9,2*%
%TO.N,Net-(U2-BS)*%
X130950000Y-93000000D03*
%TD*%
D37*
%TO.P,R11,1*%
%TO.N,Net-(C18-Pad2)*%
X149925000Y-73500000D03*
%TO.P,R11,2*%
%TO.N,Net-(C18-Pad1)*%
X151575000Y-73500000D03*
%TD*%
D39*
%TO.P,SW4,1,1*%
%TO.N,GND*%
X158625000Y-91000000D03*
%TO.P,SW4,2,2*%
%TO.N,/BC_KEY*%
X150875000Y-91000000D03*
%TD*%
D33*
%TO.P,C43,1*%
%TO.N,EAVDD*%
X87530000Y-82810000D03*
%TO.P,C43,2*%
%TO.N,GND*%
X89430000Y-82810000D03*
%TD*%
D67*
%TO.P,U3,1,L2*%
%TO.N,/BC_LED2*%
X143287500Y-100100000D03*
%TO.P,U3,2,L3*%
%TO.N,/BC_LED3*%
X143287500Y-99600000D03*
%TO.P,U3,3,VDD*%
%TO.N,/BC_VDD*%
X143287500Y-99100000D03*
%TO.P,U3,4,VTHS*%
%TO.N,VIN*%
X143287500Y-98600000D03*
%TO.P,U3,5,RSET*%
%TO.N,unconnected-(U3-RSET-Pad5)*%
X143287500Y-98100000D03*
%TO.P,U3,6,NTC*%
%TO.N,/BC_NTC*%
X143287500Y-97600000D03*
D68*
%TO.P,U3,7,AGND*%
%TO.N,GND*%
X142600000Y-96912500D03*
%TO.P,U3,8,KEY*%
%TO.N,/BC_KEY*%
X142100000Y-96912500D03*
%TO.P,U3,9,VBAT*%
%TO.N,/BC_BATT*%
X141600000Y-96912500D03*
%TO.P,U3,10,NC*%
%TO.N,unconnected-(U3-NC-Pad10)*%
X141100000Y-96912500D03*
%TO.P,U3,11,ICHG*%
%TO.N,/BC_ICHG*%
X140600000Y-96912500D03*
%TO.P,U3,12,PGND*%
%TO.N,GND*%
X140100000Y-96912500D03*
D67*
%TO.P,U3,13,LX*%
%TO.N,/LX*%
X139412500Y-97600000D03*
%TO.P,U3,14,LX*%
X139412500Y-98100000D03*
%TO.P,U3,15,LX*%
X139412500Y-98600000D03*
%TO.P,U3,16,VOUT*%
%TO.N,+5V*%
X139412500Y-99100000D03*
%TO.P,U3,17,VOUT*%
X139412500Y-99600000D03*
%TO.P,U3,18,DP*%
%TO.N,unconnected-(U3-DP-Pad18)*%
X139412500Y-100100000D03*
D68*
%TO.P,U3,19,DM*%
%TO.N,unconnected-(U3-DM-Pad19)*%
X140100000Y-100787500D03*
%TO.P,U3,20,VIN*%
%TO.N,VIN*%
X140600000Y-100787500D03*
%TO.P,U3,21,VIN*%
X141100000Y-100787500D03*
%TO.P,U3,22,LIGHT*%
%TO.N,/BC_LED*%
X141600000Y-100787500D03*
%TO.P,U3,23,VSET*%
%TO.N,unconnected-(U3-VSET-Pad23)*%
X142100000Y-100787500D03*
%TO.P,U3,24,L1*%
%TO.N,/BC_LED1*%
X142600000Y-100787500D03*
D69*
%TO.P,U3,25,GND*%
%TO.N,GND*%
X141350000Y-98850000D03*
%TD*%
D70*
%TO.P,J7,1,Pin_1*%
%TO.N,/NRST*%
X87750000Y-63750000D03*
D71*
%TO.P,J7,2,Pin_2*%
%TO.N,+3V3*%
X85210000Y-63750000D03*
%TO.P,J7,3,Pin_3*%
%TO.N,GND*%
X82670000Y-63750000D03*
D70*
%TO.P,J7,4,Pin_4*%
%TO.N,/SWDIO*%
X87750000Y-68750000D03*
D71*
%TO.P,J7,5,Pin_5*%
%TO.N,/SWCLK*%
X85210000Y-68750000D03*
%TO.P,J7,6,Pin_6*%
%TO.N,unconnected-(J7-Pin_6-Pad6)*%
X82670000Y-68750000D03*
%TD*%
D72*
%TO.P,U7,1,+*%
%TO.N,Net-(U7-+)*%
X138530000Y-83550000D03*
%TO.P,U7,2,V-*%
%TO.N,GND*%
X139180000Y-83550000D03*
%TO.P,U7,3,-*%
%TO.N,Net-(U7--)*%
X139830000Y-83550000D03*
%TO.P,U7,4*%
X139830000Y-81650000D03*
%TO.P,U7,5,V+*%
%TO.N,+3V3*%
X138530000Y-81650000D03*
%TD*%
D37*
%TO.P,R14,1*%
%TO.N,Net-(U7-+)*%
X138330000Y-85250000D03*
%TO.P,R14,2*%
%TO.N,VDDA*%
X139980000Y-85250000D03*
%TD*%
D29*
%TO.P,C4,1*%
%TO.N,+5V*%
X125500000Y-93500000D03*
%TO.P,C4,2*%
%TO.N,GND*%
X123600000Y-93500000D03*
%TD*%
D12*
%TO.P,R35,1*%
%TO.N,/ESP_{BOOT}*%
X90500000Y-99925000D03*
%TO.P,R35,2*%
%TO.N,+3V3*%
X90500000Y-101575000D03*
%TD*%
D62*
%TO.P,J6,1,Pin_1*%
%TO.N,GND*%
X88900000Y-106425000D03*
D63*
%TO.P,J6,2,Pin_2*%
%TO.N,/UART6_TX*%
X91440000Y-106425000D03*
%TO.P,J6,3,Pin_3*%
%TO.N,/UART6_RX*%
X93980000Y-106425000D03*
%TO.P,J6,4,Pin_4*%
%TO.N,unconnected-(J6-Pin_4-Pad4)*%
X96520000Y-106425000D03*
%TO.P,J6,5,Pin_5*%
%TO.N,+3V3*%
X99060000Y-106425000D03*
%TO.P,J6,6,Pin_6*%
%TO.N,GND*%
X101600000Y-106425000D03*
%TO.P,J6,7,Pin_7*%
%TO.N,/SPI3_SCK*%
X104140000Y-106425000D03*
%TO.P,J6,8,Pin_8*%
%TO.N,/SPI3_MISO*%
X106680000Y-106425000D03*
%TO.P,J6,9,Pin_9*%
%TO.N,/SPI3_MOSI*%
X109220000Y-106425000D03*
%TO.P,J6,10,Pin_10*%
%TO.N,/SPI.CS*%
X111760000Y-106425000D03*
%TO.P,J6,11,Pin_11*%
%TO.N,unconnected-(J6-Pin_11-Pad11)*%
X114300000Y-106425000D03*
%TO.P,J6,12,Pin_12*%
%TO.N,+3V3*%
X116840000Y-106425000D03*
%TO.P,J6,13,Pin_13*%
%TO.N,GND*%
X119380000Y-106425000D03*
%TO.P,J6,14,Pin_14*%
%TO.N,/I2C1_SCL*%
X121920000Y-106425000D03*
%TO.P,J6,15,Pin_15*%
%TO.N,/I2C1_SDA*%
X124460000Y-106425000D03*
%TD*%
D12*
%TO.P,R37,1*%
%TO.N,/ESP_STRAP_1*%
X83500000Y-99925000D03*
%TO.P,R37,2*%
%TO.N,+3V3*%
X83500000Y-101575000D03*
%TD*%
D73*
%TO.P,ANT1,1,FEED/GND*%
%TO.N,/ESP_ANT_IN*%
X81750000Y-85950000D03*
%TO.P,ANT1,2,GND_1*%
%TO.N,GND*%
X81750000Y-82950000D03*
%TO.P,ANT1,3,GND_2*%
X80450000Y-82950000D03*
%TO.P,ANT1,4,GND/FEED*%
X80450000Y-85950000D03*
%TD*%
D74*
%TO.P,L1,1,1*%
%TO.N,/LX*%
X136812500Y-95250000D03*
%TO.P,L1,2,2*%
%TO.N,/BC_BATT*%
X134687500Y-95250000D03*
%TD*%
D36*
%TO.P,C29,1*%
%TO.N,+3V3*%
X119570000Y-70925000D03*
%TO.P,C29,2*%
%TO.N,GND*%
X119570000Y-69375000D03*
%TD*%
D44*
%TO.P,MH3,1,1*%
%TO.N,GND*%
X141150000Y-105750000D03*
%TD*%
D49*
%TO.P,L3,1,1*%
%TO.N,Net-(U2-SW)*%
X131000000Y-94750000D03*
%TO.P,L3,2,2*%
%TO.N,GND*%
X132575000Y-94750000D03*
%TD*%
D47*
%TO.P,C5,1*%
%TO.N,+3V3*%
X143020000Y-71500000D03*
%TO.P,C5,2*%
%TO.N,GND*%
X143980000Y-71500000D03*
%TD*%
D36*
%TO.P,C42,1*%
%TO.N,EAVDD*%
X84350000Y-90325000D03*
%TO.P,C42,2*%
%TO.N,GND*%
X84350000Y-88775000D03*
%TD*%
D49*
%TO.P,L2,1,1*%
%TO.N,VDDA*%
X112762500Y-96450000D03*
%TO.P,L2,2,2*%
%TO.N,+3V3*%
X114337500Y-96450000D03*
%TD*%
D37*
%TO.P,R16,1*%
%TO.N,Net-(U6-+)*%
X146675000Y-75250000D03*
%TO.P,R16,2*%
%TO.N,Net-(C18-Pad2)*%
X148325000Y-75250000D03*
%TD*%
D17*
%TO.P,R20,1*%
%TO.N,/Vatt_1*%
X143000000Y-76990000D03*
%TO.P,R20,2*%
%TO.N,Net-(R20-Pad2)*%
X143000000Y-78010000D03*
%TD*%
D75*
%TO.P,R38,1*%
%TO.N,/ESP_SPI_CLK*%
X92010000Y-93200000D03*
%TO.P,R38,2*%
%TO.N,Net-(U11-SPICLK)*%
X90990000Y-93200000D03*
%TD*%
D13*
%TO.P,J4,1,In*%
%TO.N,/CH2*%
X157400000Y-62250000D03*
D14*
%TO.P,J4,2,Ext*%
%TO.N,GND*%
X160700000Y-65550000D03*
X160700000Y-58950000D03*
X154100000Y-65550000D03*
X154100000Y-58950000D03*
%TD*%
D17*
%TO.P,R22,1*%
%TO.N,/Vatt_2*%
X143000000Y-67500000D03*
%TO.P,R22,2*%
%TO.N,Net-(R22-Pad2)*%
X143000000Y-68520000D03*
%TD*%
D37*
%TO.P,R8,1*%
%TO.N,Net-(C18-Pad1)*%
X153175000Y-73500000D03*
%TO.P,R8,2*%
%TO.N,/CH1*%
X154825000Y-73500000D03*
%TD*%
D24*
%TO.P,R12,1*%
%TO.N,GND*%
X148325000Y-80750000D03*
%TO.P,R12,2*%
%TO.N,Net-(C18-Pad2)*%
X146675000Y-80750000D03*
%TD*%
D12*
%TO.P,R45,1*%
%TO.N,/ESP_EN*%
X85250000Y-99925000D03*
%TO.P,R45,2*%
%TO.N,+3V3*%
X85250000Y-101575000D03*
%TD*%
D59*
%TO.P,L5,1,1*%
%TO.N,+3V3*%
X89035000Y-84740000D03*
%TO.P,L5,2,2*%
%TO.N,EAVDD*%
X87460000Y-84740000D03*
%TD*%
D61*
%TO.P,C13,1*%
%TO.N,+3V3*%
X136750000Y-74980000D03*
%TO.P,C13,2*%
%TO.N,GND*%
X136750000Y-74020000D03*
%TD*%
D37*
%TO.P,R48,1*%
%TO.N,Net-(R46-Pad1)*%
X92225000Y-74000000D03*
%TO.P,R48,2*%
%TO.N,Net-(Q2-B)*%
X93875000Y-74000000D03*
%TD*%
D17*
%TO.P,R24,1*%
%TO.N,GND*%
X141500000Y-71980000D03*
%TO.P,R24,2*%
%TO.N,Net-(R24-Pad2)*%
X141500000Y-73000000D03*
%TD*%
D37*
%TO.P,R6,1*%
%TO.N,GND*%
X138750000Y-95250000D03*
%TO.P,R6,2*%
%TO.N,/BC_ICHG*%
X140400000Y-95250000D03*
%TD*%
D38*
%TO.P,C17,1*%
%TO.N,Net-(C17-Pad1)*%
X150450000Y-65250000D03*
%TO.P,C17,2*%
%TO.N,Net-(C17-Pad2)*%
X146550000Y-65250000D03*
%TD*%
D37*
%TO.P,R47,1*%
%TO.N,Net-(R46-Pad1)*%
X92225000Y-75750000D03*
%TO.P,R47,2*%
%TO.N,Net-(Q1-B)*%
X93875000Y-75750000D03*
%TD*%
D34*
%TO.P,C40,1*%
%TO.N,GND*%
X126055000Y-73620000D03*
%TO.P,C40,2*%
%TO.N,/CH1_IN*%
X124505000Y-73620000D03*
%TD*%
D76*
%TO.P,D3,1,K*%
%TO.N,GND*%
X103700000Y-72562500D03*
%TO.P,D3,2,A*%
%TO.N,Net-(D3-A)*%
X103700000Y-74437500D03*
%TD*%
D19*
%TO.P,C47,1*%
%TO.N,+3V3*%
X87000000Y-99975000D03*
%TO.P,C47,2*%
%TO.N,GND*%
X87000000Y-101525000D03*
%TD*%
D47*
%TO.P,C51,1*%
%TO.N,+3V3*%
X138770000Y-80250000D03*
%TO.P,C51,2*%
%TO.N,GND*%
X139730000Y-80250000D03*
%TD*%
D77*
%TO.P,D1,1,VDD*%
%TO.N,+5V*%
X114100000Y-93900000D03*
%TO.P,D1,2,DOUT*%
%TO.N,unconnected-(D1-DOUT-Pad2)*%
X117400000Y-93900000D03*
%TO.P,D1,3,VSS*%
%TO.N,GND*%
X117400000Y-89000000D03*
%TO.P,D1,4,DIN*%
%TO.N,/RGB*%
X114100000Y-89000000D03*
%TD*%
D34*
%TO.P,C20,1*%
%TO.N,Net-(C17-Pad1)*%
X151525000Y-68000000D03*
%TO.P,C20,2*%
%TO.N,Net-(C17-Pad2)*%
X149975000Y-68000000D03*
%TD*%
%TO.P,C41,1*%
%TO.N,GND*%
X126120000Y-71380000D03*
%TO.P,C41,2*%
%TO.N,/CH2_IN*%
X124570000Y-71380000D03*
%TD*%
%TO.P,C23,1*%
%TO.N,Net-(C18-Pad1)*%
X151500000Y-75250000D03*
%TO.P,C23,2*%
%TO.N,Net-(C18-Pad2)*%
X149950000Y-75250000D03*
%TD*%
D78*
%TO.N,GND*%
X163700000Y-102600000D03*
X163000000Y-103600000D03*
X115300000Y-100200000D03*
X122850000Y-93500000D03*
X158650000Y-90050000D03*
X137450000Y-93250000D03*
X139290000Y-78800000D03*
X87075000Y-94395000D03*
X80450000Y-86825000D03*
X80450000Y-82000000D03*
X131951163Y-100300000D03*
X139300000Y-84200000D03*
X154600000Y-95300000D03*
X81500000Y-102250000D03*
X144250000Y-78510000D03*
X123500000Y-85600000D03*
X90150000Y-82810000D03*
X156250000Y-94150003D03*
X148940000Y-60750000D03*
X138100000Y-95250000D03*
X86000000Y-95500000D03*
X107700000Y-82200000D03*
X160300000Y-103600000D03*
X144810000Y-68480000D03*
X144800000Y-71490000D03*
X148270000Y-83220000D03*
X130220000Y-80900000D03*
X147950000Y-96750000D03*
X88500000Y-95000000D03*
X163600000Y-94600000D03*
X117400000Y-90000000D03*
X94750000Y-92460000D03*
X141500000Y-61400000D03*
X151000000Y-98975000D03*
X163600000Y-95450003D03*
X160700000Y-75500000D03*
X163600000Y-93600000D03*
X109200000Y-70000000D03*
X92350000Y-102250000D03*
X140250000Y-80250000D03*
X93325000Y-85500000D03*
X119570000Y-68608002D03*
X160662500Y-68912500D03*
X142750000Y-96250000D03*
X118749999Y-74400000D03*
X81750000Y-82000000D03*
X87000000Y-102250000D03*
X105100000Y-83500000D03*
X157700000Y-93500000D03*
X163700000Y-103600000D03*
X119600000Y-76900000D03*
X156300000Y-102600000D03*
X83250000Y-88025000D03*
X156300000Y-103600000D03*
X148320000Y-80020000D03*
X95810000Y-76680000D03*
X112075000Y-101075000D03*
X80475000Y-97275000D03*
X134043058Y-81723058D03*
X130190000Y-75500000D03*
X144480000Y-62000000D03*
X83275000Y-91015000D03*
X87750000Y-95750000D03*
X93984800Y-71636271D03*
X118750001Y-83200000D03*
X128475000Y-98200000D03*
X84350000Y-88050000D03*
X90240000Y-71690000D03*
X80525000Y-95250000D03*
X156250000Y-94800006D03*
X162500000Y-89025000D03*
X91990000Y-98300000D03*
X133275000Y-94750000D03*
X126760000Y-73630000D03*
X157000000Y-93500000D03*
X160700000Y-74500000D03*
X161000000Y-95500000D03*
X124425000Y-101300000D03*
X140000000Y-96250000D03*
X127000602Y-80000935D03*
X137475000Y-91000000D03*
X134730000Y-84730000D03*
X145000000Y-92450000D03*
X103700000Y-71800000D03*
X129450000Y-85250000D03*
X160500000Y-89025000D03*
X111400000Y-71600000D03*
X130220000Y-78900000D03*
X117250001Y-83200000D03*
X159100000Y-103600000D03*
X85600000Y-93000000D03*
X122370000Y-88500000D03*
X121270000Y-85780000D03*
X105320829Y-70254171D03*
X128800000Y-85480000D03*
X93000000Y-76900000D03*
X136180000Y-74010000D03*
X139250000Y-68790000D03*
X86900000Y-89050000D03*
X127000000Y-76300000D03*
X142250000Y-98000000D03*
X108025000Y-72250000D03*
X125487445Y-98728651D03*
X161425000Y-105750000D03*
X141350000Y-98850000D03*
X137000000Y-63480000D03*
X126840000Y-71390000D03*
X141490000Y-71430000D03*
X141250000Y-81740000D03*
X162800000Y-95500000D03*
X156250000Y-93500000D03*
X123280000Y-91510000D03*
X123290000Y-89750000D03*
X95800000Y-72190000D03*
X163000000Y-102600000D03*
X140500000Y-98000000D03*
X145250000Y-106750000D03*
X90988207Y-87986793D03*
X160700000Y-68000000D03*
X148940000Y-62510000D03*
X147975000Y-99000000D03*
X133700000Y-91000000D03*
X140500000Y-99750000D03*
%TO.N,+5V*%
X138350000Y-99350000D03*
X129000000Y-96300000D03*
%TO.N,VIN*%
X144750000Y-97750000D03*
X155000000Y-104750000D03*
X141100000Y-101700000D03*
%TO.N,+3V3*%
X138770000Y-80980000D03*
X118500000Y-64000000D03*
X116850000Y-102200000D03*
X143050000Y-62700000D03*
X108300000Y-82800000D03*
X90900000Y-103400000D03*
X117350000Y-96050000D03*
X108975000Y-70925000D03*
X91986091Y-96963909D03*
X137667500Y-64980000D03*
X143020000Y-72150000D03*
X86950000Y-99050000D03*
X119600000Y-81700000D03*
X118500000Y-71199001D03*
X119250000Y-86025000D03*
X81750000Y-74500000D03*
X82475000Y-98525000D03*
X90700000Y-84550000D03*
X137382500Y-75612500D03*
%TO.N,/NRST*%
X102000000Y-69750000D03*
X97250000Y-69750000D03*
%TO.N,VDDA*%
X119000000Y-76275735D03*
X113400000Y-95550000D03*
X139250000Y-86250000D03*
%TO.N,VBUS*%
X154600000Y-102000000D03*
X153500000Y-96250000D03*
%TO.N,-2V*%
X129150000Y-88700000D03*
X144250000Y-76250000D03*
X144000000Y-67050000D03*
%TO.N,/D-*%
X154600000Y-99800000D03*
%TO.N,/D+*%
X154600000Y-97500000D03*
%TO.N,/RES*%
X117550000Y-76900000D03*
X118690000Y-61100000D03*
%TO.N,/VOL*%
X118400000Y-78500000D03*
%TO.N,/CAP*%
X116150000Y-74400000D03*
%TO.N,/I2C1_SCL*%
X116500000Y-87000000D03*
X123672500Y-104672500D03*
%TO.N,/I2C1_SDA*%
X126192500Y-104692500D03*
X117000000Y-86250000D03*
%TO.N,/Vref*%
X145150000Y-70450000D03*
X143555000Y-80945000D03*
%TO.N,/ESP_{BOOT}*%
X114700327Y-87799274D03*
X93525000Y-100225000D03*
%TO.N,/ESP_EN*%
X84482032Y-99717968D03*
X91500000Y-82750000D03*
X115500000Y-88000000D03*
X86100000Y-100575000D03*
%TO.N,Net-(J1-CC2)*%
X160500000Y-92250000D03*
X158550000Y-96890000D03*
%TO.N,Net-(J1-CC1)*%
X158500000Y-99750000D03*
X162500000Y-92250000D03*
%TO.N,/SWCLK*%
X97300000Y-77000000D03*
%TO.N,/SWDIO*%
X97600000Y-76100000D03*
%TO.N,/ESP_DATA_READY*%
X89700000Y-98200000D03*
X111250000Y-86200000D03*
%TO.N,/ESP_SPI_CLK*%
X92800000Y-93200000D03*
X95500000Y-96900000D03*
%TO.N,/UART6_TX*%
X104875000Y-77100000D03*
X101400000Y-97100000D03*
%TO.N,/UART6_RX*%
X105575000Y-77625000D03*
X102200000Y-97000000D03*
%TO.N,/ESP_SPI_MOSI*%
X94700000Y-95900000D03*
X92900000Y-92300000D03*
%TO.N,/ESP_SPI_MISO*%
X96975000Y-92625000D03*
X92900000Y-91300000D03*
%TO.N,/ESP_SPI2_MOSI*%
X104000000Y-76750000D03*
X84725000Y-98125000D03*
%TO.N,/ESP_SPI2_CLK*%
X85575000Y-98850000D03*
X104750000Y-75400000D03*
%TO.N,/ESP_UART_RX*%
X99750000Y-80400000D03*
X90187512Y-90432575D03*
%TO.N,/ESP_SPI2_MISO*%
X84600000Y-97300000D03*
X103500000Y-76000000D03*
%TO.N,/ESP_UART_TX*%
X89893450Y-91176572D03*
X101225000Y-79800000D03*
%TD*%
D79*
%TO.N,GND*%
X124425000Y-101300000D02*
X123150000Y-101300000D01*
D80*
X154025000Y-59025000D02*
X154100000Y-58950000D01*
X160662500Y-68912500D02*
X159825000Y-69750000D01*
D79*
X123500000Y-85600000D02*
X123500000Y-84900000D01*
X147950000Y-96750000D02*
X147200000Y-96750000D01*
X91990000Y-98300000D02*
X91250000Y-98300000D01*
X90988207Y-87986793D02*
X91010000Y-87965000D01*
D81*
X117250000Y-83416149D02*
X117250000Y-84425000D01*
X112250000Y-72266176D02*
X112250000Y-73075000D01*
D79*
X93325000Y-85500000D02*
X93325000Y-86250000D01*
X112075000Y-100275000D02*
X112050000Y-100250000D01*
X151000000Y-98975000D02*
X151000000Y-99600000D01*
X128800000Y-85480000D02*
X127725000Y-85480000D01*
D80*
X160700000Y-74200000D02*
X160700000Y-74500000D01*
D79*
X158625000Y-91000000D02*
X158625000Y-90075000D01*
X130190000Y-75500000D02*
X129525000Y-75500000D01*
D82*
X148270000Y-83220000D02*
X148270000Y-82530000D01*
D79*
X145250000Y-106750000D02*
X145250000Y-107500000D01*
X130220000Y-78900000D02*
X129525000Y-78900000D01*
X89550000Y-86877580D02*
X89550000Y-86850000D01*
X131950000Y-99991279D02*
X131950000Y-98200000D01*
D80*
X160700000Y-65550000D02*
X160700000Y-68000000D01*
D81*
X108100000Y-82200000D02*
X108300000Y-82000000D01*
D79*
X95800000Y-72190000D02*
X95800000Y-71500000D01*
X95810000Y-76680000D02*
X95810000Y-77040000D01*
D81*
X140000000Y-96250000D02*
X140100000Y-96350000D01*
X119950000Y-76900000D02*
X120050000Y-77000000D01*
D79*
X87000000Y-102250000D02*
X87000000Y-101525000D01*
X129450000Y-85250000D02*
X129450000Y-84575000D01*
X106045829Y-70254171D02*
X106050000Y-70250000D01*
D81*
X118750001Y-83416149D02*
X118750000Y-83416150D01*
D79*
X158625000Y-90075000D02*
X158650000Y-90050000D01*
X121650000Y-88500000D02*
X122370000Y-88500000D01*
X123488876Y-79270829D02*
X123709705Y-79050000D01*
D82*
X148275000Y-82525000D02*
X148275000Y-82500000D01*
D79*
X87850000Y-89050000D02*
X87850000Y-88577580D01*
X160500000Y-89025000D02*
X160500000Y-89675000D01*
D80*
X160000000Y-73500000D02*
X160700000Y-74200000D01*
D79*
X121275000Y-86375000D02*
X121275000Y-86500000D01*
X103700000Y-72562500D02*
X103700000Y-71800000D01*
D81*
X119600000Y-76900000D02*
X119950000Y-76900000D01*
X117250001Y-83200000D02*
X117250001Y-83416148D01*
D79*
X108750000Y-72250000D02*
X108025000Y-72250000D01*
X90240000Y-71690000D02*
X90240000Y-72415000D01*
X80475000Y-97275000D02*
X81175000Y-97275000D01*
D80*
X160700000Y-74500000D02*
X160700000Y-75500000D01*
D79*
X128475000Y-98200000D02*
X127500000Y-98200000D01*
X147975000Y-99000000D02*
X147200000Y-99000000D01*
D82*
X144800000Y-71490000D02*
X144680000Y-71490000D01*
D81*
X118749999Y-74053677D02*
X118750000Y-74053676D01*
D79*
X123290000Y-89750000D02*
X123925000Y-89750000D01*
X161425000Y-105750000D02*
X162187500Y-105750000D01*
D82*
X144250000Y-78510000D02*
X144250000Y-77980000D01*
X148940000Y-62510000D02*
X148310000Y-62510000D01*
D79*
X133700000Y-91000000D02*
X132950000Y-91000000D01*
X136700000Y-91000000D02*
X137475000Y-91000000D01*
X157640000Y-102960000D02*
X161840000Y-102960000D01*
X125950000Y-80750000D02*
X124250000Y-79050000D01*
X126480000Y-76250000D02*
X126275000Y-76250000D01*
D81*
X140100000Y-96350000D02*
X140100000Y-96912500D01*
D82*
X139180000Y-84080000D02*
X139180000Y-83550000D01*
D79*
X123280000Y-91510000D02*
X123965000Y-91510000D01*
D81*
X111833825Y-71850001D02*
X112250000Y-72266176D01*
D79*
X131951163Y-100300000D02*
X131951163Y-99992442D01*
D82*
X144480000Y-62000000D02*
X143980000Y-62000000D01*
D79*
X89550000Y-86850000D02*
X89850000Y-86850000D01*
D81*
X118750000Y-83416150D02*
X118750000Y-84425000D01*
D82*
X139290000Y-77897500D02*
X139300000Y-77887500D01*
D79*
X126251537Y-80750000D02*
X127000602Y-80000935D01*
X157040000Y-102360000D02*
X157640000Y-102960000D01*
D82*
X137000000Y-63480000D02*
X137000000Y-64020000D01*
D79*
X117400000Y-89000000D02*
X117400000Y-90000000D01*
X133275000Y-94750000D02*
X132575000Y-94750000D01*
X123965000Y-91510000D02*
X123975000Y-91500000D01*
X106050000Y-83500000D02*
X105100000Y-83500000D01*
X112075000Y-101075000D02*
X112075000Y-100275000D01*
D81*
X142600000Y-96912500D02*
X142600000Y-96400000D01*
D82*
X141500000Y-61400000D02*
X141500000Y-61990000D01*
D79*
X134730000Y-84730000D02*
X134730000Y-83750000D01*
D82*
X144250000Y-68470000D02*
X144800000Y-68470000D01*
D79*
X125499974Y-98716122D02*
X125499974Y-98025026D01*
D82*
X80450000Y-85950000D02*
X80450000Y-86825000D01*
X148310000Y-62510000D02*
X148300000Y-62500000D01*
D79*
X137450000Y-93250000D02*
X136700000Y-93250000D01*
D82*
X81750000Y-82025000D02*
X81750000Y-82950000D01*
D79*
X134723058Y-81723058D02*
X134750000Y-81750000D01*
X90240000Y-72415000D02*
X90250000Y-72425000D01*
D82*
X126750000Y-73620000D02*
X126760000Y-73630000D01*
D79*
X130220000Y-80900000D02*
X129525000Y-80900000D01*
X105320829Y-70254171D02*
X106045829Y-70254171D01*
D82*
X136740000Y-74010000D02*
X136750000Y-74020000D01*
D79*
X84350000Y-88050000D02*
X84350000Y-88775000D01*
X115300000Y-100200000D02*
X114300000Y-100200000D01*
D82*
X141500000Y-71440000D02*
X141500000Y-71980000D01*
D79*
X124250000Y-79050000D02*
X123900000Y-79050000D01*
X83275000Y-91015000D02*
X82730000Y-91015000D01*
D81*
X111650001Y-71850001D02*
X111833825Y-71850001D01*
D82*
X139250000Y-68790000D02*
X139250000Y-67887500D01*
D79*
X80525000Y-95250000D02*
X81225000Y-95250000D01*
D80*
X159825000Y-73500000D02*
X160000000Y-73500000D01*
D79*
X91010000Y-87965000D02*
X91815000Y-87965000D01*
D82*
X139300000Y-84200000D02*
X139180000Y-84080000D01*
D79*
X157040000Y-101840000D02*
X157040000Y-102360000D01*
D82*
X148270000Y-82530000D02*
X148275000Y-82525000D01*
D79*
X138100000Y-95250000D02*
X138750000Y-95250000D01*
X112050000Y-100250000D02*
X112050000Y-100200000D01*
X125499974Y-98025026D02*
X125500000Y-98025000D01*
X109200000Y-70000000D02*
X109450000Y-70250000D01*
X94745000Y-92122818D02*
X94745000Y-91282500D01*
D82*
X136180000Y-74010000D02*
X136740000Y-74010000D01*
X80450000Y-82950000D02*
X80450000Y-82000000D01*
D79*
X87850000Y-88577580D02*
X89550000Y-86877580D01*
X94000000Y-72250000D02*
X94000000Y-71651471D01*
D80*
X160700000Y-68000000D02*
X160700000Y-68875000D01*
D82*
X139290000Y-78800000D02*
X139290000Y-77897500D01*
D79*
X134750000Y-81750000D02*
X134905000Y-81750000D01*
X87850000Y-89050000D02*
X86900000Y-89050000D01*
D81*
X120050000Y-77000000D02*
X121175000Y-77000000D01*
D79*
X127000000Y-76300000D02*
X126530000Y-76300000D01*
D81*
X118749999Y-74400000D02*
X118749999Y-74053677D01*
D79*
X95800000Y-77050000D02*
X95800000Y-77475000D01*
D80*
X160700000Y-68875000D02*
X160662500Y-68912500D01*
D79*
X81500000Y-101400000D02*
X81500000Y-102250000D01*
X94000000Y-71651471D02*
X93984800Y-71636271D01*
X154750000Y-95450000D02*
X154600000Y-95300000D01*
X93000000Y-77500000D02*
X93000000Y-76900000D01*
X119570000Y-68608002D02*
X119570000Y-69375000D01*
X140250000Y-80250000D02*
X139730000Y-80250000D01*
D81*
X118750001Y-83200000D02*
X118750001Y-83416149D01*
D79*
X81175000Y-97275000D02*
X81200000Y-97250000D01*
X94750000Y-92460000D02*
X94750000Y-92127818D01*
X123709705Y-79050000D02*
X123900000Y-79050000D01*
D82*
X126830000Y-71380000D02*
X126840000Y-71390000D01*
D79*
X126100000Y-80750000D02*
X126251537Y-80750000D01*
D82*
X148320000Y-80020000D02*
X148320000Y-80670000D01*
D79*
X121270000Y-86370000D02*
X121275000Y-86375000D01*
X131951163Y-99992442D02*
X131950000Y-99991279D01*
D81*
X111400000Y-71600000D02*
X111650001Y-71850001D01*
D79*
X121270000Y-85780000D02*
X121270000Y-86370000D01*
D81*
X117250001Y-83416148D02*
X117250000Y-83416149D01*
D82*
X148320000Y-80670000D02*
X148325000Y-80675000D01*
D81*
X107700000Y-82200000D02*
X108100000Y-82200000D01*
D82*
X126120000Y-71380000D02*
X126830000Y-71380000D01*
D81*
X142600000Y-96400000D02*
X142750000Y-96250000D01*
D79*
X94750000Y-92127818D02*
X94745000Y-92122818D01*
D82*
X144680000Y-71490000D02*
X144670000Y-71500000D01*
X141490000Y-71430000D02*
X141500000Y-71440000D01*
D81*
X108300000Y-82000000D02*
X109825000Y-82000000D01*
D82*
X144670000Y-71500000D02*
X143980000Y-71500000D01*
D79*
X162500000Y-89025000D02*
X162500000Y-89675000D01*
D82*
X148250000Y-60750000D02*
X148940000Y-60750000D01*
D79*
X145000000Y-92450000D02*
X145000000Y-93100000D01*
D82*
X141250000Y-81740000D02*
X141920000Y-81740000D01*
D79*
X82710000Y-88025000D02*
X83250000Y-88025000D01*
X125487445Y-98728651D02*
X125499974Y-98716122D01*
X92350000Y-102250000D02*
X92350000Y-101525000D01*
X109450000Y-70250000D02*
X110050000Y-70250000D01*
D81*
X118750000Y-74053676D02*
X118750000Y-73075000D01*
D79*
X157075000Y-95450000D02*
X154750000Y-95450000D01*
X95810000Y-77040000D02*
X95800000Y-77050000D01*
X126100000Y-80750000D02*
X125950000Y-80750000D01*
D82*
X126055000Y-73620000D02*
X126750000Y-73620000D01*
D79*
X126530000Y-76300000D02*
X126480000Y-76250000D01*
X122850000Y-93500000D02*
X123600000Y-93500000D01*
X134043058Y-81723058D02*
X134723058Y-81723058D01*
X90150000Y-82810000D02*
X89430000Y-82810000D01*
D82*
X144800000Y-68470000D02*
X144810000Y-68480000D01*
X141920000Y-81740000D02*
X141930000Y-81750000D01*
X148325000Y-80675000D02*
X148325000Y-80750000D01*
D80*
X160700000Y-75500000D02*
X160700000Y-77950000D01*
D79*
%TO.N,+5V*%
X123375000Y-96475000D02*
X123150000Y-96700000D01*
X126225000Y-96475000D02*
X126400000Y-96300000D01*
D81*
X115300000Y-95100000D02*
X121500000Y-95100000D01*
X138350000Y-99350000D02*
X138400000Y-99400000D01*
D79*
X126437500Y-94437500D02*
X128100000Y-94437500D01*
D81*
X138600000Y-99100000D02*
X138350000Y-99350000D01*
D79*
X125500000Y-96475000D02*
X126225000Y-96475000D01*
X126400000Y-96300000D02*
X127500000Y-96300000D01*
D81*
X138350000Y-99350000D02*
X138600000Y-99600000D01*
D79*
X127500000Y-96300000D02*
X129000000Y-96300000D01*
D81*
X138600000Y-99600000D02*
X139412500Y-99600000D01*
D79*
X128100000Y-95400000D02*
X129000000Y-96300000D01*
D81*
X121500000Y-95100000D02*
X123100000Y-96700000D01*
D79*
X125500000Y-96475000D02*
X123375000Y-96475000D01*
D81*
X139412500Y-99100000D02*
X138600000Y-99100000D01*
D79*
X128100000Y-94437500D02*
X128100000Y-95400000D01*
D81*
X123100000Y-96700000D02*
X123150000Y-96700000D01*
X138400000Y-99400000D02*
X138400000Y-102000000D01*
D79*
X125500000Y-93500000D02*
X126437500Y-94437500D01*
D81*
X114100000Y-93900000D02*
X115300000Y-95100000D01*
%TO.N,VIN*%
X146850000Y-93850000D02*
X146850000Y-94250000D01*
X143900000Y-98600000D02*
X143287500Y-98600000D01*
X141100000Y-100787500D02*
X141100000Y-101700000D01*
X155000000Y-104750000D02*
X155925000Y-104750000D01*
X155925000Y-104750000D02*
X156675000Y-105500000D01*
X140600000Y-101200000D02*
X141100000Y-101700000D01*
D79*
X145300000Y-96750000D02*
X145300000Y-97200000D01*
X146850000Y-94250000D02*
X146850000Y-95200000D01*
D81*
X144750000Y-97750000D02*
X143900000Y-98600000D01*
D79*
X146850000Y-95200000D02*
X145300000Y-96750000D01*
X145300000Y-97200000D02*
X144750000Y-97750000D01*
D81*
X148400000Y-92300000D02*
X146850000Y-93850000D01*
X140600000Y-100787500D02*
X140600000Y-101200000D01*
%TO.N,/BC_VDD*%
X143287500Y-99100000D02*
X145200000Y-99100000D01*
X145200000Y-99100000D02*
X145300000Y-99000000D01*
D79*
%TO.N,/BC_BATT*%
X141600000Y-92100000D02*
X141600000Y-96100000D01*
X134800000Y-91000000D02*
X134800000Y-95800000D01*
X134800000Y-91000000D02*
X134800000Y-90450000D01*
X135500000Y-89750000D02*
X139250000Y-89750000D01*
X134800000Y-90450000D02*
X135500000Y-89750000D01*
X134800000Y-95800000D02*
X133950000Y-96650000D01*
D81*
X141600000Y-96912500D02*
X141600000Y-96100000D01*
D79*
X139250000Y-89750000D02*
X141600000Y-92100000D01*
X133950000Y-96650000D02*
X133950000Y-98200000D01*
D81*
%TO.N,/HSE_IN*%
X123650000Y-80500000D02*
X121175000Y-80500000D01*
X123900000Y-80750000D02*
X123650000Y-80500000D01*
X124801000Y-81651000D02*
X123900000Y-80750000D01*
X127224000Y-81651000D02*
X124801000Y-81651000D01*
X127975000Y-80900000D02*
X127224000Y-81651000D01*
%TO.N,+3V3*%
X122200000Y-82500000D02*
X123050000Y-83350000D01*
D79*
X116150000Y-98300000D02*
X116850000Y-99000000D01*
X82750000Y-97250000D02*
X82750000Y-98250000D01*
X127250000Y-101450000D02*
X127250000Y-101925000D01*
D81*
X108600000Y-82500000D02*
X108300000Y-82800000D01*
D79*
X82750000Y-98250000D02*
X82475000Y-98525000D01*
X116850000Y-99000000D02*
X116850000Y-102200000D01*
D81*
X123050000Y-83350000D02*
X123500000Y-83350000D01*
D80*
X123150000Y-99000000D02*
X116850000Y-99000000D01*
D79*
X82775000Y-97225000D02*
X82750000Y-97250000D01*
D82*
X138350000Y-75612500D02*
X137382500Y-75612500D01*
D79*
X86950000Y-99925000D02*
X87000000Y-99975000D01*
D81*
X86325000Y-99300000D02*
X87000000Y-99975000D01*
D79*
X85050000Y-103400000D02*
X87075000Y-103400000D01*
X116850000Y-99000000D02*
X116850000Y-96550000D01*
X108300000Y-70250000D02*
X107950000Y-70250000D01*
X125500000Y-101100000D02*
X126900000Y-101100000D01*
X118774001Y-70925000D02*
X118500000Y-71199001D01*
D81*
X111750000Y-73075000D02*
X111750000Y-72750000D01*
D79*
X90900000Y-103400000D02*
X90900000Y-103100000D01*
D81*
X90145000Y-96145000D02*
X89525000Y-96145000D01*
D82*
X143020000Y-72150000D02*
X143020000Y-73032500D01*
D81*
X84625000Y-93645000D02*
X84209202Y-93645000D01*
D79*
X88750000Y-101575000D02*
X88750000Y-102250000D01*
D81*
X125125000Y-99700000D02*
X124925000Y-99500000D01*
D79*
X114300000Y-98300000D02*
X116150000Y-98300000D01*
X91986091Y-96963909D02*
X91463909Y-96963909D01*
D81*
X119600000Y-81700000D02*
X119600000Y-81800000D01*
D82*
X143050000Y-62700000D02*
X143050000Y-62030000D01*
D79*
X116850000Y-102200000D02*
X116850000Y-106415000D01*
D81*
X120300000Y-82500000D02*
X121175000Y-82500000D01*
D79*
X123400000Y-99000000D02*
X123150000Y-99000000D01*
D81*
X119250000Y-84425000D02*
X119250000Y-86025000D01*
D79*
X87075000Y-103400000D02*
X89900000Y-103400000D01*
X82775000Y-95250000D02*
X82775000Y-97225000D01*
X114337500Y-96450000D02*
X114337500Y-98262500D01*
D81*
X82775000Y-95079202D02*
X82775000Y-95250000D01*
D79*
X90900000Y-103100000D02*
X90500000Y-102700000D01*
X81750000Y-74500000D02*
X81500000Y-74750000D01*
X88750000Y-102250000D02*
X89900000Y-103400000D01*
X81500000Y-74750000D02*
X81500000Y-75750000D01*
D81*
X119600000Y-81800000D02*
X120300000Y-82500000D01*
D79*
X126900000Y-101100000D02*
X127250000Y-101450000D01*
D82*
X143050000Y-62030000D02*
X143020000Y-62000000D01*
D79*
X83500000Y-101850000D02*
X85050000Y-103400000D01*
X86950000Y-99050000D02*
X86950000Y-99925000D01*
D82*
X143020000Y-73032500D02*
X143100000Y-73112500D01*
D79*
X125500000Y-101100000D02*
X123400000Y-99000000D01*
X118500000Y-64000000D02*
X118500000Y-63325000D01*
D82*
X137000000Y-64980000D02*
X137667500Y-64980000D01*
D81*
X86325000Y-96845000D02*
X86325000Y-99300000D01*
D79*
X119570000Y-70925000D02*
X118774001Y-70925000D01*
D81*
X90750000Y-96750000D02*
X90145000Y-96145000D01*
X111250000Y-72250000D02*
X110300000Y-72250000D01*
D79*
X116850000Y-96550000D02*
X117350000Y-96050000D01*
X89225000Y-84550000D02*
X89035000Y-84740000D01*
D81*
X118500000Y-71199001D02*
X118250000Y-71449001D01*
D79*
X114337500Y-98262500D02*
X114300000Y-98300000D01*
X108975000Y-70925000D02*
X110300000Y-72250000D01*
X90500000Y-102700000D02*
X90500000Y-101575000D01*
D81*
X123650000Y-99500000D02*
X123150000Y-99000000D01*
X124925000Y-99500000D02*
X123650000Y-99500000D01*
X108300000Y-82800000D02*
X107600000Y-83500000D01*
D79*
X90700000Y-84550000D02*
X89225000Y-84550000D01*
D81*
X119250000Y-86025000D02*
X119725000Y-86500000D01*
D79*
X108975000Y-70925000D02*
X108300000Y-70250000D01*
X138530000Y-81220000D02*
X138770000Y-80980000D01*
X85250000Y-101575000D02*
X87075000Y-103400000D01*
D82*
X143050000Y-63612500D02*
X143050000Y-62700000D01*
D79*
X83500000Y-101575000D02*
X83500000Y-101850000D01*
D81*
X84625000Y-93145000D02*
X84625000Y-93645000D01*
X121175000Y-82500000D02*
X122200000Y-82500000D01*
X91250000Y-96750000D02*
X90750000Y-96750000D01*
D82*
X143020000Y-71500000D02*
X143020000Y-72150000D01*
X137382500Y-75612500D02*
X136750000Y-74980000D01*
D79*
X116850000Y-106415000D02*
X116840000Y-106425000D01*
X125500000Y-101925000D02*
X125500000Y-101100000D01*
X91463909Y-96963909D02*
X91250000Y-96750000D01*
D81*
X111750000Y-72750000D02*
X111250000Y-72250000D01*
X109825000Y-82500000D02*
X108600000Y-82500000D01*
X126000000Y-99700000D02*
X125125000Y-99700000D01*
X118250000Y-71449001D02*
X118250000Y-73075000D01*
D79*
X82475000Y-98525000D02*
X81500000Y-99500000D01*
X89900000Y-103400000D02*
X90900000Y-103400000D01*
X138530000Y-81650000D02*
X138530000Y-81220000D01*
X138770000Y-80980000D02*
X138770000Y-80250000D01*
D81*
X84209202Y-93645000D02*
X82775000Y-95079202D01*
D82*
X137667500Y-64980000D02*
X138300000Y-65612500D01*
D81*
%TO.N,/HSE_OUT*%
X125199000Y-78149000D02*
X123214840Y-78149000D01*
X121983824Y-80000000D02*
X121175000Y-80000000D01*
X123214840Y-78149000D02*
X122600000Y-78763840D01*
X127925000Y-79050000D02*
X127975000Y-79000000D01*
X122600000Y-78763840D02*
X122600000Y-79383824D01*
X126100000Y-79050000D02*
X127925000Y-79050000D01*
X126100000Y-79050000D02*
X125199000Y-78149000D01*
X122600000Y-79383824D02*
X121983824Y-80000000D01*
%TO.N,/NRST*%
X111250000Y-74500000D02*
X108600000Y-74500000D01*
X93500000Y-70350000D02*
X93500000Y-70950000D01*
X103850000Y-69750000D02*
X102000000Y-69750000D01*
X94100000Y-69750000D02*
X93500000Y-70350000D01*
X108600000Y-74500000D02*
X103850000Y-69750000D01*
X121175000Y-79500000D02*
X116250000Y-79500000D01*
X97250000Y-69750000D02*
X94100000Y-69750000D01*
X116250000Y-79500000D02*
X111250000Y-74500000D01*
%TO.N,/LSE_IN*%
X125200000Y-83300000D02*
X125200000Y-84505000D01*
X125200000Y-84505000D02*
X126175000Y-85480000D01*
X124205000Y-82600000D02*
X125000000Y-83395000D01*
X123100000Y-82600000D02*
X124205000Y-82600000D01*
X121175000Y-81500000D02*
X122000000Y-81500000D01*
X122000000Y-81500000D02*
X123100000Y-82600000D01*
%TO.N,/LSE_OUT*%
X126500000Y-82100000D02*
X127700000Y-83300000D01*
X122300000Y-81000000D02*
X123400000Y-82100000D01*
X123400000Y-82100000D02*
X126500000Y-82100000D01*
X121175000Y-81000000D02*
X122300000Y-81000000D01*
X129175000Y-83300000D02*
X129450000Y-83025000D01*
X127700000Y-83300000D02*
X129175000Y-83300000D01*
%TO.N,VDDA*%
X113400000Y-95550000D02*
X113400000Y-95812500D01*
D79*
X125875000Y-75100000D02*
X127575000Y-75100000D01*
D81*
X120117100Y-76500000D02*
X119892835Y-76275735D01*
D79*
X139980000Y-85520000D02*
X139250000Y-86250000D01*
D81*
X113400000Y-95812500D02*
X112762500Y-96450000D01*
D79*
X127575000Y-75100000D02*
X127975000Y-75500000D01*
D81*
X121175000Y-76500000D02*
X120117100Y-76500000D01*
D79*
X124725000Y-76250000D02*
X125875000Y-75100000D01*
D81*
X121175000Y-76500000D02*
X121202000Y-76527000D01*
X121175000Y-76500000D02*
X121224000Y-76549000D01*
D79*
X112050000Y-97750000D02*
X112762500Y-97037500D01*
X112050000Y-98300000D02*
X112050000Y-97750000D01*
D81*
X121202000Y-76527000D02*
X124448000Y-76527000D01*
X124448000Y-76527000D02*
X124725000Y-76250000D01*
X119892835Y-76275735D02*
X119000000Y-76275735D01*
D79*
X139980000Y-85250000D02*
X139980000Y-85520000D01*
X112762500Y-97037500D02*
X112762500Y-96450000D01*
D81*
%TO.N,Net-(U11-XTAL_N)*%
X89850000Y-89050000D02*
X88747348Y-90152652D01*
X90015000Y-89515000D02*
X89550000Y-89050000D01*
X91815000Y-89515000D02*
X90015000Y-89515000D01*
X88747348Y-90152652D02*
X88067350Y-90152652D01*
X88067350Y-90152652D02*
X86825000Y-91395002D01*
X86825000Y-91395002D02*
X86825000Y-91945000D01*
%TO.N,Net-(D2-A)*%
X145760000Y-105115000D02*
X145250000Y-105625000D01*
X145760000Y-104000000D02*
X145760000Y-105115000D01*
%TO.N,Net-(D4-A)*%
X160062500Y-105500000D02*
X160312500Y-105750000D01*
X158325000Y-105500000D02*
X160062500Y-105500000D01*
%TO.N,/RGB*%
X117750000Y-84425000D02*
X117750000Y-87050000D01*
X115800000Y-89000000D02*
X114100000Y-89000000D01*
X117750000Y-87050000D02*
X115800000Y-89000000D01*
%TO.N,/BC_LED2*%
X149665000Y-103712500D02*
X149702500Y-103750000D01*
X146910660Y-102621000D02*
X149044000Y-102621000D01*
X149665000Y-102000000D02*
X149665000Y-103712500D01*
X144437500Y-101250000D02*
X145539660Y-101250000D01*
X149044000Y-102621000D02*
X149665000Y-102000000D01*
X143287500Y-100100000D02*
X144437500Y-101250000D01*
X145539660Y-101250000D02*
X146910660Y-102621000D01*
%TO.N,/BC_LED3R*%
X148750000Y-101000000D02*
X148250000Y-101500000D01*
X148250000Y-101500000D02*
X148250000Y-102000000D01*
X150750000Y-101000000D02*
X148750000Y-101000000D01*
X151240000Y-102000000D02*
X151240000Y-101490000D01*
X151240000Y-101490000D02*
X150750000Y-101000000D01*
X151240000Y-102000000D02*
X151240000Y-107250000D01*
%TO.N,/BC_LED1*%
X142600000Y-101600000D02*
X142600000Y-100787500D01*
X148750000Y-105500000D02*
X145250000Y-102000000D01*
X149702500Y-105500000D02*
X149702500Y-107212500D01*
X149702500Y-107212500D02*
X149665000Y-107250000D01*
X149702500Y-105500000D02*
X148750000Y-105500000D01*
X143000000Y-102000000D02*
X142600000Y-101600000D01*
X145250000Y-102000000D02*
X143000000Y-102000000D01*
D82*
%TO.N,/ESP_ANT_IN*%
X81750000Y-88025000D02*
X81750000Y-85950000D01*
X81770000Y-89050000D02*
X81770000Y-88025000D01*
D79*
%TO.N,VBUS*%
X152150000Y-96250000D02*
X150800000Y-97600000D01*
X153500000Y-96250000D02*
X152150000Y-96250000D01*
X150150000Y-94250000D02*
X149650000Y-94250000D01*
X155550000Y-101050000D02*
X154600000Y-102000000D01*
X152150000Y-96250000D02*
X150150000Y-94250000D01*
X157075000Y-96250000D02*
X153500000Y-96250000D01*
X157075000Y-101050000D02*
X155550000Y-101050000D01*
D81*
%TO.N,VDD_SPI*%
X94300000Y-100100000D02*
X97724999Y-100100000D01*
X93100000Y-98900000D02*
X94300000Y-100100000D01*
X98555000Y-99269999D02*
X98555000Y-98457500D01*
X97724999Y-100100000D02*
X98555000Y-99269999D01*
X91845000Y-95645000D02*
X93100000Y-96900000D01*
X89525000Y-95645000D02*
X91845000Y-95645000D01*
X93100000Y-96900000D02*
X93100000Y-98900000D01*
D79*
%TO.N,Net-(U2-BS)*%
X129050000Y-92950000D02*
X129100000Y-93000000D01*
X129050000Y-92162500D02*
X129050000Y-92950000D01*
X129100000Y-93000000D02*
X130950000Y-93000000D01*
%TO.N,Net-(U2-SW)*%
X131800000Y-93950000D02*
X131000000Y-94750000D01*
X129537500Y-94437500D02*
X129850000Y-94750000D01*
X129850000Y-94750000D02*
X131000000Y-94750000D01*
X129050000Y-94437500D02*
X129537500Y-94437500D01*
X131800000Y-93700000D02*
X131800000Y-93950000D01*
X132500000Y-93000000D02*
X131800000Y-93700000D01*
%TO.N,-2V*%
X128883388Y-91000000D02*
X131050000Y-91000000D01*
D82*
X144000000Y-65887500D02*
X144000000Y-67050000D01*
D79*
X128825000Y-89025000D02*
X129150000Y-88700000D01*
D81*
X129825000Y-89250000D02*
X128825000Y-90250000D01*
X130000000Y-89250000D02*
X129825000Y-89250000D01*
D79*
X144050000Y-76050000D02*
X144250000Y-76250000D01*
X128825000Y-90941612D02*
X128100000Y-91666612D01*
D82*
X144000000Y-67260000D02*
X144250000Y-67510000D01*
D79*
X128825000Y-90941612D02*
X128883388Y-91000000D01*
X128825000Y-90250000D02*
X128825000Y-89025000D01*
X144250000Y-77020000D02*
X144250000Y-76250000D01*
D82*
X144000000Y-67050000D02*
X144000000Y-67260000D01*
D79*
X128100000Y-91666612D02*
X128100000Y-92162500D01*
X128825000Y-90250000D02*
X128825000Y-90941612D01*
X144050000Y-75387500D02*
X144050000Y-76050000D01*
D82*
%TO.N,Net-(C17-Pad2)*%
X149975000Y-68000000D02*
X148400000Y-68000000D01*
X149925000Y-68050000D02*
X149975000Y-68000000D01*
X146700000Y-60750000D02*
X146700000Y-65100000D01*
X146700000Y-65100000D02*
X146550000Y-65250000D01*
X148400000Y-67100000D02*
X146550000Y-65250000D01*
X148400000Y-68000000D02*
X148400000Y-67100000D01*
X149925000Y-69750000D02*
X149925000Y-68050000D01*
%TO.N,Net-(C17-Pad1)*%
X153175000Y-69750000D02*
X151575000Y-69750000D01*
X151575000Y-69750000D02*
X151575000Y-66375000D01*
X151575000Y-66375000D02*
X150450000Y-65250000D01*
%TO.N,Net-(C18-Pad1)*%
X151575000Y-73500000D02*
X151575000Y-76900000D01*
X151575000Y-76900000D02*
X150475000Y-78000000D01*
X153175000Y-73500000D02*
X151575000Y-73500000D01*
D83*
%TO.N,/D-*%
X158919000Y-98281000D02*
X159900000Y-97300000D01*
X159900000Y-93200000D02*
X158900000Y-92200000D01*
X157900000Y-99400000D02*
X157075000Y-99400000D01*
X155000000Y-99400000D02*
X154600000Y-99800000D01*
X110987501Y-80500000D02*
X109825000Y-80500000D01*
X157075000Y-99400000D02*
X155000000Y-99400000D01*
X117558404Y-80609000D02*
X111096501Y-80609000D01*
X144826406Y-88969000D02*
X143576406Y-87719000D01*
X157960001Y-98400000D02*
X158079001Y-98281000D01*
X111096501Y-80609000D02*
X110987501Y-80500000D01*
X154600000Y-99800000D02*
X152900000Y-99800000D01*
X158900000Y-92200000D02*
X155700000Y-92200000D01*
X158000000Y-99300000D02*
X157900000Y-99400000D01*
X158079001Y-98281000D02*
X158919000Y-98281000D01*
X152469000Y-88969000D02*
X144826406Y-88969000D01*
X124668404Y-87719000D02*
X117558404Y-80609000D01*
X155700000Y-92200000D02*
X152469000Y-88969000D01*
X159900000Y-97300000D02*
X159900000Y-93200000D01*
X157075000Y-98400000D02*
X157960001Y-98400000D01*
X157875000Y-98400000D02*
X158000000Y-98525000D01*
X152900000Y-99800000D02*
X152700000Y-99600000D01*
X143576406Y-87719000D02*
X124668404Y-87719000D01*
X158000000Y-98525000D02*
X158000000Y-99300000D01*
%TO.N,/D+*%
X110987501Y-81000000D02*
X109825000Y-81000000D01*
X154600000Y-97500000D02*
X152800000Y-97500000D01*
X155583606Y-92481000D02*
X152352606Y-89250000D01*
X157075000Y-97900000D02*
X156100000Y-97900000D01*
X159619000Y-97183606D02*
X159619000Y-93316394D01*
X152800000Y-97500000D02*
X152700000Y-97600000D01*
X156100000Y-97900000D02*
X155950000Y-98050000D01*
X159619000Y-93316394D02*
X158783606Y-92481000D01*
X117442010Y-80890000D02*
X111097501Y-80890000D01*
X156100000Y-97900000D02*
X155000000Y-97900000D01*
X155950000Y-98750000D02*
X156100000Y-98900000D01*
X158080001Y-98000000D02*
X158802606Y-98000000D01*
X111097501Y-80890000D02*
X110987501Y-81000000D01*
X152352606Y-89250000D02*
X144710012Y-89250000D01*
X124552010Y-88000000D02*
X117442010Y-80890000D01*
X157040000Y-97890000D02*
X157970001Y-97890000D01*
X144710012Y-89250000D02*
X143460012Y-88000000D01*
X155950000Y-98050000D02*
X155950000Y-98750000D01*
X143460012Y-88000000D02*
X124552010Y-88000000D01*
X155000000Y-97900000D02*
X154600000Y-97500000D01*
X158802606Y-98000000D02*
X159619000Y-97183606D01*
X158783606Y-92481000D02*
X155583606Y-92481000D01*
X156100000Y-98900000D02*
X157075000Y-98900000D01*
X157970001Y-97890000D02*
X158080001Y-98000000D01*
D82*
%TO.N,Net-(C18-Pad2)*%
X148325000Y-75425000D02*
X146575000Y-77175000D01*
X146575000Y-78000000D02*
X146575000Y-82350000D01*
X148325000Y-75250000D02*
X149950000Y-75250000D01*
X149925000Y-75225000D02*
X149950000Y-75250000D01*
X146575000Y-77175000D02*
X146575000Y-78000000D01*
X148325000Y-75250000D02*
X148325000Y-75425000D01*
X146575000Y-82350000D02*
X146725000Y-82500000D01*
X149925000Y-73500000D02*
X149925000Y-75225000D01*
D79*
%TO.N,Net-(U7-+)*%
X136830000Y-83550000D02*
X136630000Y-83750000D01*
X138530000Y-83550000D02*
X138530000Y-85050000D01*
X136555000Y-81750000D02*
X136555000Y-83675000D01*
X136555000Y-83675000D02*
X136630000Y-83750000D01*
X138530000Y-83550000D02*
X136830000Y-83550000D01*
X138530000Y-85050000D02*
X138330000Y-85250000D01*
D81*
%TO.N,Net-(C32-Pad1)*%
X112750000Y-73075000D02*
X112750000Y-72004044D01*
X112750000Y-72004044D02*
X111950000Y-71204044D01*
X111950000Y-71204044D02*
X111950000Y-70250000D01*
%TO.N,Net-(C34-Pad1)*%
X118250000Y-87000000D02*
X119750000Y-88500000D01*
X118250000Y-84425000D02*
X118250000Y-87000000D01*
D82*
%TO.N,/CH1*%
X157400000Y-81250000D02*
X157400000Y-74225000D01*
X157400000Y-74225000D02*
X156675000Y-73500000D01*
X154825000Y-73500000D02*
X156675000Y-73500000D01*
%TO.N,/CH2*%
X156675000Y-69750000D02*
X154825000Y-69750000D01*
X157400000Y-69025000D02*
X156675000Y-69750000D01*
X157400000Y-62250000D02*
X157400000Y-69025000D01*
D81*
%TO.N,/GPIO0*%
X111070000Y-61820000D02*
X117250000Y-68000000D01*
X111070000Y-58540000D02*
X111070000Y-61820000D01*
X117250000Y-68000000D02*
X117250000Y-73075000D01*
%TO.N,/GPIO2*%
X116250000Y-69650000D02*
X116250000Y-73075000D01*
X105990000Y-58540000D02*
X105990000Y-59390000D01*
X105990000Y-59390000D02*
X116250000Y-69650000D01*
%TO.N,/RES*%
X118690000Y-61100000D02*
X118690000Y-61235000D01*
X118690000Y-61235000D02*
X118500000Y-61425000D01*
X117550000Y-76900000D02*
X117679232Y-76900000D01*
X118690000Y-58540000D02*
X118690000Y-61100000D01*
X118500000Y-61425000D02*
X118500000Y-61675000D01*
X119279232Y-78500000D02*
X121175000Y-78500000D01*
X117679232Y-76900000D02*
X119279232Y-78500000D01*
%TO.N,/GPIO1*%
X116750000Y-69000000D02*
X116750000Y-73075000D01*
X108530000Y-60780000D02*
X116750000Y-69000000D01*
X108530000Y-58540000D02*
X108530000Y-60780000D01*
%TO.N,/VOL*%
X118800000Y-79000000D02*
X121175000Y-79000000D01*
X118400000Y-78500000D02*
X118400000Y-78600000D01*
X118400000Y-78600000D02*
X118800000Y-79000000D01*
%TO.N,/LA2*%
X126310000Y-61440000D02*
X126250000Y-61500000D01*
X126310000Y-58540000D02*
X126310000Y-61440000D01*
%TO.N,/CAP*%
X116150000Y-74400000D02*
X116200000Y-74400000D01*
X119300000Y-77500000D02*
X121175000Y-77500000D01*
X122500000Y-77250000D02*
X127925000Y-77250000D01*
X116200000Y-74400000D02*
X119300000Y-77500000D01*
X121175000Y-77500000D02*
X122250000Y-77500000D01*
X122250000Y-77500000D02*
X122500000Y-77250000D01*
%TO.N,/LA1*%
X123770000Y-61470000D02*
X123740000Y-61500000D01*
X123770000Y-58540000D02*
X123770000Y-61470000D01*
%TO.N,/FQY*%
X113610000Y-61360000D02*
X113750000Y-61500000D01*
X113610000Y-58540000D02*
X113610000Y-61360000D01*
%TO.N,/GPIO3*%
X106700000Y-61300000D02*
X105300000Y-61300000D01*
X103450000Y-59450000D02*
X103450000Y-58540000D01*
X115750000Y-70350000D02*
X106700000Y-61300000D01*
X115750000Y-73075000D02*
X115750000Y-70350000D01*
X105300000Y-61300000D02*
X103450000Y-59450000D01*
%TO.N,/SPI3_SCK*%
X112750000Y-85750000D02*
X104140000Y-94360000D01*
X112750000Y-84425000D02*
X112750000Y-85750000D01*
X104140000Y-94360000D02*
X104140000Y-106425000D01*
%TO.N,/SPI3_MISO*%
X113250000Y-86350000D02*
X106680000Y-92920000D01*
X106750000Y-106355000D02*
X106680000Y-106425000D01*
X113250000Y-84425000D02*
X113250000Y-86350000D01*
X106680000Y-92920000D02*
X106680000Y-106425000D01*
%TO.N,/GPIO8*%
X98200000Y-75400000D02*
X98200000Y-65990000D01*
X108300000Y-79000000D02*
X108100000Y-79200000D01*
X98200000Y-65990000D02*
X90750000Y-58540000D01*
X109825000Y-79000000D02*
X108300000Y-79000000D01*
X108100000Y-79200000D02*
X102000000Y-79200000D01*
X102000000Y-79200000D02*
X98200000Y-75400000D01*
%TO.N,/I2C1_SCL*%
X124770000Y-103575000D02*
X123672500Y-104672500D01*
X116250000Y-86550000D02*
X116250000Y-84425000D01*
X123672500Y-104672500D02*
X121920000Y-106425000D01*
X116500000Y-87000000D02*
X116500000Y-86800000D01*
X116500000Y-86800000D02*
X116250000Y-86550000D01*
X121750000Y-106255000D02*
X121920000Y-106425000D01*
X125500000Y-103575000D02*
X124770000Y-103575000D01*
%TO.N,/SPI.CS*%
X114750000Y-84425000D02*
X114750000Y-86774548D01*
X114750000Y-86774548D02*
X108500000Y-93024548D01*
X108500000Y-93024548D02*
X108500000Y-103165000D01*
X108500000Y-103165000D02*
X111760000Y-106425000D01*
%TO.N,/SPI3_MOSI*%
X107600000Y-92900000D02*
X107600000Y-104805000D01*
X107600000Y-104805000D02*
X109220000Y-106425000D01*
X113750000Y-86750000D02*
X107600000Y-92900000D01*
X113750000Y-84425000D02*
X113750000Y-86750000D01*
%TO.N,/I2C1_SDA*%
X126192500Y-104692500D02*
X124460000Y-106425000D01*
X117000000Y-86250000D02*
X116750000Y-86000000D01*
X126192500Y-104692500D02*
X127250000Y-103635000D01*
X116750000Y-86000000D02*
X116750000Y-84425000D01*
X127250000Y-103635000D02*
X127250000Y-103575000D01*
%TO.N,/LX*%
X138000000Y-98000000D02*
X138600000Y-98600000D01*
X138600000Y-98600000D02*
X139412500Y-98600000D01*
X138000000Y-97500000D02*
X138000000Y-98000000D01*
D79*
X136812500Y-95250000D02*
X136812500Y-96312500D01*
D81*
X138600000Y-98100000D02*
X138000000Y-97500000D01*
X138100000Y-97600000D02*
X138000000Y-97500000D01*
D79*
X136812500Y-96312500D02*
X138100000Y-97600000D01*
D81*
X139412500Y-97600000D02*
X138100000Y-97600000D01*
X139412500Y-98100000D02*
X138600000Y-98100000D01*
%TO.N,/Vref*%
X144555000Y-84500000D02*
X143555000Y-83500000D01*
D79*
X144075000Y-80425000D02*
X143555000Y-80945000D01*
X143575000Y-70000000D02*
X144700000Y-70000000D01*
X144700000Y-70000000D02*
X145150000Y-70450000D01*
X143555000Y-80945000D02*
X143555000Y-83500000D01*
D81*
X144750000Y-84500000D02*
X144555000Y-84500000D01*
D79*
X144075000Y-79500000D02*
X144075000Y-80425000D01*
D82*
%TO.N,Net-(C38-Pad2)*%
X137462500Y-77000000D02*
X138350000Y-77887500D01*
X136575000Y-77000000D02*
X137462500Y-77000000D01*
X139250000Y-76500000D02*
X138350000Y-77400000D01*
X138425000Y-72000000D02*
X138425000Y-73700000D01*
X139250000Y-74525000D02*
X139250000Y-76500000D01*
X138350000Y-77400000D02*
X138350000Y-77887500D01*
X138425000Y-73700000D02*
X138475000Y-73750000D01*
X138475000Y-73750000D02*
X139250000Y-74525000D01*
D81*
%TO.N,/BC_ICHG*%
X140600000Y-95450000D02*
X140600000Y-96912500D01*
X140400000Y-95250000D02*
X140600000Y-95450000D01*
%TO.N,/BC_NTC*%
X144250000Y-95500000D02*
X144250000Y-97250000D01*
X144250000Y-97250000D02*
X143900000Y-97600000D01*
X145000000Y-94750000D02*
X144250000Y-95500000D01*
X143900000Y-97600000D02*
X143287500Y-97600000D01*
D79*
%TO.N,Net-(U2-FB)*%
X125525000Y-91500000D02*
X126487500Y-91500000D01*
X125575000Y-89750000D02*
X126675000Y-89750000D01*
X126675000Y-89750000D02*
X127175000Y-90250000D01*
X127175000Y-90825000D02*
X127175000Y-90250000D01*
X127150000Y-90275000D02*
X127175000Y-90250000D01*
X126500000Y-91500000D02*
X127175000Y-90825000D01*
X126487500Y-91500000D02*
X126500000Y-91500000D01*
X126487500Y-91500000D02*
X127150000Y-92162500D01*
D81*
%TO.N,/GPIO6*%
X104050000Y-78250000D02*
X100400000Y-74600000D01*
X109825000Y-78000000D02*
X107450000Y-78000000D01*
X107450000Y-78000000D02*
X107200000Y-78250000D01*
X100400000Y-74600000D02*
X100400000Y-63110000D01*
X107200000Y-78250000D02*
X104050000Y-78250000D01*
X100400000Y-63110000D02*
X95830000Y-58540000D01*
%TO.N,/GPIO7*%
X99300000Y-64550000D02*
X93290000Y-58540000D01*
X108232900Y-78500000D02*
X107933900Y-78799000D01*
X99300000Y-74800000D02*
X99300000Y-64550000D01*
X109825000Y-78500000D02*
X108232900Y-78500000D01*
X103299000Y-78799000D02*
X99300000Y-74800000D01*
X107933900Y-78799000D02*
X103299000Y-78799000D01*
%TO.N,/GPIO5*%
X114750000Y-73075000D02*
X114750000Y-71538840D01*
X114750000Y-71538840D02*
X106611160Y-63400000D01*
X103230000Y-63400000D02*
X98370000Y-58540000D01*
X106611160Y-63400000D02*
X103230000Y-63400000D01*
D82*
%TO.N,Net-(U10--)*%
X140852500Y-75010000D02*
X140250000Y-75612500D01*
X140250000Y-73975000D02*
X140025000Y-73750000D01*
X140025000Y-73750000D02*
X140025000Y-72050000D01*
X141500000Y-75010000D02*
X140852500Y-75010000D01*
X140250000Y-75612500D02*
X140250000Y-73975000D01*
X140025000Y-72050000D02*
X140075000Y-72000000D01*
D81*
%TO.N,/BC_LED3*%
X143850000Y-99600000D02*
X144500000Y-100250000D01*
X144500000Y-100250000D02*
X145480000Y-100250000D01*
X145480000Y-100250000D02*
X147230000Y-102000000D01*
X143287500Y-99600000D02*
X143850000Y-99600000D01*
%TO.N,/USER_LED*%
X107812500Y-75000000D02*
X107312500Y-74500000D01*
X109825000Y-75000000D02*
X107812500Y-75000000D01*
%TO.N,/BC_LED*%
X144250000Y-104000000D02*
X144740000Y-104000000D01*
X141600000Y-101350000D02*
X144250000Y-104000000D01*
X141600000Y-100787500D02*
X141600000Y-101350000D01*
D82*
%TO.N,Net-(U9--)*%
X140075000Y-63700000D02*
X140025000Y-63750000D01*
X140075000Y-62000000D02*
X140075000Y-63700000D01*
X140200000Y-65612500D02*
X140562500Y-65250000D01*
X141260000Y-65250000D02*
X141500000Y-65010000D01*
X140200000Y-63925000D02*
X140025000Y-63750000D01*
X140200000Y-65612500D02*
X140200000Y-63925000D01*
X140562500Y-65250000D02*
X141260000Y-65250000D01*
%TO.N,Net-(C39-Pad2)*%
X138425000Y-62000000D02*
X138425000Y-63700000D01*
X138475000Y-63750000D02*
X139250000Y-64525000D01*
X137212500Y-67887500D02*
X136575000Y-67250000D01*
X138300000Y-67887500D02*
X137212500Y-67887500D01*
X139250000Y-66476966D02*
X138300000Y-67426966D01*
X139250000Y-64525000D02*
X139250000Y-66476966D01*
X138300000Y-67426966D02*
X138300000Y-67887500D01*
X138425000Y-63700000D02*
X138475000Y-63750000D01*
D81*
%TO.N,EAVDD*%
X85279000Y-88821000D02*
X85130000Y-88970000D01*
X85335000Y-91310000D02*
X84350000Y-90325000D01*
X85335000Y-91310000D02*
X85325000Y-91320000D01*
X85537638Y-88554000D02*
X85279000Y-88812638D01*
X85279000Y-88812638D02*
X85279000Y-88821000D01*
X85825000Y-91945000D02*
X85825000Y-91475000D01*
X85325000Y-91320000D02*
X85325000Y-91945000D01*
X85660000Y-91310000D02*
X85335000Y-91310000D01*
X85130000Y-89545000D02*
X84350000Y-90325000D01*
X85825000Y-91475000D02*
X85660000Y-91310000D01*
X87530000Y-82810000D02*
X87530000Y-84670000D01*
X85546000Y-88554000D02*
X85537638Y-88554000D01*
X87530000Y-84670000D02*
X87460000Y-84740000D01*
X86950000Y-87150000D02*
X85546000Y-88554000D01*
X85130000Y-88970000D02*
X85130000Y-89545000D01*
X86950000Y-85250000D02*
X86950000Y-87150000D01*
X87460000Y-84740000D02*
X86950000Y-85250000D01*
%TO.N,Net-(C46-Pad2)*%
X87817100Y-86850000D02*
X85900000Y-88767100D01*
X88301000Y-85849000D02*
X87850000Y-86300000D01*
X88150000Y-86850000D02*
X88150000Y-86900000D01*
X87850000Y-86850000D02*
X87817100Y-86850000D01*
X91374000Y-85849000D02*
X88301000Y-85849000D01*
X85900000Y-88767100D02*
X85900000Y-89150000D01*
X87850000Y-86300000D02*
X87850000Y-86850000D01*
X91775000Y-86250000D02*
X91374000Y-85849000D01*
%TO.N,Net-(U11-XTAL_P)*%
X85900000Y-90825000D02*
X85900000Y-90120000D01*
X86325000Y-91945000D02*
X86325000Y-91250000D01*
X86325000Y-91250000D02*
X85900000Y-90825000D01*
D82*
%TO.N,/ESP_ANT*%
X84625000Y-92645000D02*
X83090001Y-92645000D01*
X81770000Y-91324999D02*
X81770000Y-91015000D01*
X83090001Y-92645000D02*
X81770000Y-91324999D01*
X81770000Y-91015000D02*
X81770000Y-90020000D01*
D81*
%TO.N,/ESP_{BOOT}*%
X92300000Y-99925000D02*
X92350000Y-99975000D01*
X93275000Y-99975000D02*
X92350000Y-99975000D01*
X90500000Y-99925000D02*
X92300000Y-99925000D01*
X88325000Y-97750000D02*
X90500000Y-99925000D01*
X114700327Y-87799274D02*
X114700726Y-87799274D01*
X114700726Y-87799274D02*
X115250000Y-87250000D01*
X88325000Y-96845000D02*
X88325000Y-97750000D01*
X93525000Y-100225000D02*
X93275000Y-99975000D01*
X115250000Y-87250000D02*
X115250000Y-84425000D01*
%TO.N,/GPIO4*%
X104670000Y-62300000D02*
X106700000Y-62300000D01*
X100910000Y-58540000D02*
X104670000Y-62300000D01*
X115250000Y-70850000D02*
X115250000Y-73075000D01*
X106700000Y-62300000D02*
X115250000Y-70850000D01*
%TO.N,/BC_KEY*%
X145250000Y-91000000D02*
X142100000Y-94150000D01*
X142100000Y-94150000D02*
X142100000Y-96912500D01*
X150875000Y-91000000D02*
X145250000Y-91000000D01*
%TO.N,/ESP_EN*%
X84689064Y-99925000D02*
X85250000Y-99925000D01*
X115500000Y-88000000D02*
X115750000Y-87750000D01*
X84209202Y-95645000D02*
X83924000Y-95930202D01*
X84625000Y-95645000D02*
X84209202Y-95645000D01*
X83974000Y-99224000D02*
X83988064Y-99224000D01*
X93500000Y-80750000D02*
X93437500Y-80812500D01*
X115750000Y-87750000D02*
X115750000Y-84425000D01*
X83924000Y-95930202D02*
X83924000Y-99174000D01*
X93500000Y-80750000D02*
X91500000Y-82750000D01*
X93500000Y-78800000D02*
X93500000Y-80750000D01*
X83988064Y-99224000D02*
X84689064Y-99925000D01*
X83924000Y-99174000D02*
X83974000Y-99224000D01*
X86100000Y-100575000D02*
X85900000Y-100575000D01*
X85900000Y-100575000D02*
X85250000Y-99925000D01*
X95225000Y-79025000D02*
X95800000Y-79025000D01*
X93437500Y-80812500D02*
X95225000Y-79025000D01*
%TO.N,Net-(D3-A)*%
X105662500Y-74500000D02*
X105600000Y-74437500D01*
X105600000Y-74437500D02*
X103750000Y-74437500D01*
X103750000Y-74437500D02*
X103687500Y-74500000D01*
%TO.N,Net-(J1-CC2)*%
X158550000Y-96890000D02*
X157040000Y-96890000D01*
X160500000Y-92250000D02*
X160500000Y-91325000D01*
%TO.N,Net-(J1-CC1)*%
X162500000Y-92250000D02*
X162500000Y-91325000D01*
X158500000Y-99750000D02*
X158360000Y-99890000D01*
X158360000Y-99890000D02*
X157040000Y-99890000D01*
D82*
%TO.N,/CH1_IN*%
X122670000Y-76000000D02*
X122089890Y-76000000D01*
X134925000Y-77000000D02*
X134280000Y-77000000D01*
X124505000Y-74165000D02*
X122670000Y-76000000D01*
X124505000Y-73620000D02*
X124505000Y-74165000D01*
X134280000Y-77000000D02*
X130049000Y-72769000D01*
X125356000Y-72769000D02*
X124505000Y-73620000D01*
D81*
X122089890Y-76000000D02*
X121175000Y-76000000D01*
D82*
X130049000Y-72769000D02*
X125356000Y-72769000D01*
D79*
%TO.N,Net-(Q1-B)*%
X93875000Y-75750000D02*
X94000000Y-75875000D01*
X94000000Y-75875000D02*
X94000000Y-77500000D01*
%TO.N,Net-(Q2-B)*%
X93000000Y-73125000D02*
X93875000Y-74000000D01*
X93000000Y-72250000D02*
X93000000Y-73125000D01*
D81*
%TO.N,/SWCLK*%
X97300000Y-77000000D02*
X97800000Y-77500000D01*
X101201000Y-84776000D02*
X111399000Y-84776000D01*
X97800000Y-81375000D02*
X101201000Y-84776000D01*
X97800000Y-77500000D02*
X97800000Y-81375000D01*
X111399000Y-84776000D02*
X111750000Y-84425000D01*
D82*
%TO.N,Net-(U5-+)*%
X144950000Y-66950000D02*
X144950000Y-65887500D01*
X146000000Y-68000000D02*
X144950000Y-66950000D01*
X146750000Y-68000000D02*
X146000000Y-68000000D01*
%TO.N,Net-(U6-+)*%
X146537500Y-75387500D02*
X146675000Y-75250000D01*
X145000000Y-75387500D02*
X146537500Y-75387500D01*
D81*
%TO.N,/SWDIO*%
X98500000Y-80450000D02*
X99550000Y-81500000D01*
X98500000Y-77050000D02*
X98500000Y-80450000D01*
X99550000Y-81500000D02*
X109825000Y-81500000D01*
X97600000Y-76100000D02*
X97600000Y-76150000D01*
X97600000Y-76150000D02*
X98500000Y-77050000D01*
%TO.N,Net-(U8-PC2)*%
X128701000Y-78124000D02*
X129575000Y-77250000D01*
X125415100Y-77748000D02*
X125791100Y-78124000D01*
X122868912Y-77748000D02*
X125415100Y-77748000D01*
X122616912Y-78000000D02*
X122868912Y-77748000D01*
X121175000Y-78000000D02*
X122616912Y-78000000D01*
X125791100Y-78124000D02*
X128701000Y-78124000D01*
%TO.N,/ESP_DATA_READY*%
X88825000Y-97325000D02*
X89700000Y-98200000D01*
X111250000Y-86200000D02*
X111300000Y-86200000D01*
X88825000Y-96845000D02*
X88825000Y-97325000D01*
X112250000Y-85250000D02*
X112250000Y-84425000D01*
X111300000Y-86200000D02*
X112250000Y-85250000D01*
%TO.N,/CH2_IN*%
X122140890Y-75449000D02*
X122089890Y-75500000D01*
D82*
X128700000Y-67250000D02*
X124570000Y-71380000D01*
X122830000Y-74980000D02*
X122830000Y-75040000D01*
D81*
X122089890Y-75500000D02*
X121175000Y-75500000D01*
D82*
X122421000Y-75449000D02*
X122140890Y-75449000D01*
X134925000Y-67250000D02*
X128700000Y-67250000D01*
X124570000Y-71380000D02*
X122830000Y-73120000D01*
X122830000Y-75040000D02*
X122421000Y-75449000D01*
X122830000Y-73120000D02*
X122830000Y-74980000D01*
%TO.N,Net-(U10-+)*%
X142425000Y-78675000D02*
X142425000Y-79500000D01*
X141627500Y-77887500D02*
X141750000Y-78010000D01*
X141760000Y-78010000D02*
X142425000Y-78675000D01*
X141750000Y-78010000D02*
X141760000Y-78010000D01*
X140250000Y-77887500D02*
X141627500Y-77887500D01*
%TO.N,/Vatt_1*%
X143100000Y-74650000D02*
X143100000Y-75387500D01*
X143000000Y-76990000D02*
X143000000Y-75487500D01*
X144750000Y-74000000D02*
X143750000Y-74000000D01*
X145000000Y-73750000D02*
X144750000Y-74000000D01*
X143750000Y-74000000D02*
X143100000Y-74650000D01*
X145000000Y-73112500D02*
X145000000Y-73750000D01*
X143000000Y-75487500D02*
X143100000Y-75387500D01*
%TO.N,Net-(U9-+)*%
X141925000Y-68685000D02*
X141750000Y-68510000D01*
X140822500Y-68510000D02*
X140200000Y-67887500D01*
X141750000Y-68510000D02*
X140822500Y-68510000D01*
X141925000Y-70000000D02*
X141925000Y-68685000D01*
%TO.N,/Vatt_2*%
X144950000Y-63612500D02*
X144950000Y-64300000D01*
X143775001Y-64500000D02*
X143050000Y-65225001D01*
X143050000Y-65887500D02*
X143050000Y-67450000D01*
X144950000Y-64300000D02*
X144750000Y-64500000D01*
X144750000Y-64500000D02*
X143775001Y-64500000D01*
X143050000Y-65225001D02*
X143050000Y-65887500D01*
X143050000Y-67450000D02*
X143000000Y-67500000D01*
D79*
%TO.N,Net-(U7--)*%
X139830000Y-83550000D02*
X141855000Y-83550000D01*
X141855000Y-83550000D02*
X141905000Y-83500000D01*
X139830000Y-81650000D02*
X139830000Y-83550000D01*
D81*
%TO.N,Net-(U8-PA4)*%
X117750000Y-67150000D02*
X117750000Y-73075000D01*
X113750000Y-63150000D02*
X117750000Y-67150000D01*
%TO.N,Net-(U8-PA2)*%
X121175000Y-74075000D02*
X121175000Y-75000000D01*
X121800000Y-73450000D02*
X121175000Y-74075000D01*
X121800000Y-67600000D02*
X121800000Y-73450000D01*
X126250000Y-63150000D02*
X121800000Y-67600000D01*
%TO.N,Net-(U8-PA3)*%
X120910000Y-65980000D02*
X120910000Y-71415000D01*
X120910000Y-71415000D02*
X119250000Y-73075000D01*
X123740000Y-63150000D02*
X120910000Y-65980000D01*
%TO.N,/ESP_STRAP_2*%
X87825000Y-96845000D02*
X87825000Y-99000000D01*
X87825000Y-99000000D02*
X88750000Y-99925000D01*
%TO.N,/ESP_STRAP_1*%
X84625000Y-95145000D02*
X84055000Y-95145000D01*
X83500000Y-95700000D02*
X83500000Y-99925000D01*
X84055000Y-95145000D02*
X83500000Y-95700000D01*
%TO.N,Net-(U11-SPICLK)*%
X90990000Y-93200000D02*
X90545000Y-93645000D01*
X90545000Y-93645000D02*
X89525000Y-93645000D01*
%TO.N,/ESP_SPI_CLK*%
X92800000Y-93200000D02*
X92010000Y-93200000D01*
X96015000Y-97215000D02*
X96015000Y-98457500D01*
X95700000Y-96900000D02*
X96015000Y-97215000D01*
X95500000Y-96900000D02*
X95700000Y-96900000D01*
%TO.N,/UART6_TX*%
X101400000Y-98800000D02*
X96300000Y-103900000D01*
X96300000Y-103900000D02*
X93965000Y-103900000D01*
X104975000Y-77000000D02*
X109825000Y-77000000D01*
X101400000Y-97100000D02*
X101400000Y-98800000D01*
X93965000Y-103900000D02*
X91440000Y-106425000D01*
X104875000Y-77100000D02*
X104975000Y-77000000D01*
%TO.N,/UART6_RX*%
X96900000Y-105200000D02*
X100600000Y-101500000D01*
X102200000Y-99900000D02*
X102200000Y-97000000D01*
X94800000Y-105200000D02*
X96900000Y-105200000D01*
X105575000Y-77625000D02*
X105700000Y-77500000D01*
X100600000Y-101500000D02*
X102200000Y-99900000D01*
X93980000Y-106020000D02*
X94800000Y-105200000D01*
X105700000Y-77500000D02*
X109825000Y-77500000D01*
X93980000Y-106425000D02*
X93980000Y-106020000D01*
%TO.N,Net-(U11-SPID)*%
X90990000Y-92100000D02*
X89945000Y-93145000D01*
X89945000Y-93145000D02*
X89525000Y-93145000D01*
%TO.N,/ESP_SPI_MOSI*%
X92010000Y-92100000D02*
X92700000Y-92100000D01*
X94745000Y-95945000D02*
X94745000Y-98457500D01*
X92700000Y-92100000D02*
X92900000Y-92300000D01*
X94700000Y-95900000D02*
X94745000Y-95945000D01*
%TO.N,Net-(U11-SPIQ)*%
X91000000Y-91000000D02*
X89525000Y-92475000D01*
X89525000Y-92475000D02*
X89525000Y-92645000D01*
%TO.N,/ESP_SPI_MISO*%
X92020000Y-91000000D02*
X92600000Y-91000000D01*
X97285000Y-92315000D02*
X97285000Y-91282500D01*
X96975000Y-92625000D02*
X97285000Y-92315000D01*
X92600000Y-91000000D02*
X92900000Y-91300000D01*
D79*
%TO.N,Net-(R46-Pad1)*%
X92225000Y-74000000D02*
X91500000Y-74000000D01*
X89750000Y-75750000D02*
X89250000Y-75750000D01*
X92225000Y-75750000D02*
X89250000Y-75750000D01*
X91500000Y-74000000D02*
X89750000Y-75750000D01*
X90250000Y-74075000D02*
X89925000Y-74075000D01*
X89925000Y-74075000D02*
X89250000Y-74750000D01*
X89250000Y-74750000D02*
X89250000Y-75750000D01*
D81*
%TO.N,/ESP_SPI2_MOSI*%
X85125000Y-98125000D02*
X85325000Y-97925000D01*
X104000000Y-76750000D02*
X104250000Y-76500000D01*
X85325000Y-97925000D02*
X85325000Y-96845000D01*
X104250000Y-76500000D02*
X109825000Y-76500000D01*
X84725000Y-98125000D02*
X85125000Y-98125000D01*
%TO.N,/ESP_SPI2_CLK*%
X85575000Y-98850000D02*
X85575000Y-98725000D01*
X85575000Y-98725000D02*
X85825000Y-98475000D01*
X108500000Y-75500000D02*
X109825000Y-75500000D01*
X85825000Y-98475000D02*
X85825000Y-96845000D01*
X108400000Y-75400000D02*
X108500000Y-75500000D01*
X104750000Y-75400000D02*
X108400000Y-75400000D01*
%TO.N,/ESP_UART_RX*%
X90187512Y-90432575D02*
X90066435Y-90553652D01*
X99750000Y-80400000D02*
X108034200Y-80400000D01*
X88233450Y-90553652D02*
X87325000Y-91462102D01*
X90066435Y-90553652D02*
X88233450Y-90553652D01*
X108434200Y-80000000D02*
X109825000Y-80000000D01*
X108034200Y-80400000D02*
X108434200Y-80000000D01*
X87325000Y-91462102D02*
X87325000Y-91945000D01*
%TO.N,/ESP_SPI2_MISO*%
X103500000Y-76000000D02*
X110633824Y-76000000D01*
X110633824Y-76000000D02*
X109825000Y-76000000D01*
X84600000Y-97300000D02*
X84625000Y-97275000D01*
X84625000Y-97275000D02*
X84625000Y-96145000D01*
%TO.N,/ESP_UART_TX*%
X87825000Y-91529202D02*
X87825000Y-91945000D01*
X108067100Y-79800000D02*
X108367100Y-79500000D01*
X88194202Y-91160000D02*
X87825000Y-91529202D01*
X89900000Y-91160000D02*
X88194202Y-91160000D01*
X108367100Y-79500000D02*
X109825000Y-79500000D01*
X101225000Y-79800000D02*
X108067100Y-79800000D01*
%TO.N,/ESP_FLASH_RST*%
X89525000Y-95145000D02*
X95545000Y-95145000D01*
X97285000Y-96885000D02*
X97285000Y-98457500D01*
X95545000Y-95145000D02*
X97285000Y-96885000D01*
%TO.N,/ESP_FLASH_WP*%
X94155000Y-94645000D02*
X96015000Y-92785000D01*
X96015000Y-92785000D02*
X96015000Y-91282500D01*
X89525000Y-94645000D02*
X94155000Y-94645000D01*
%TO.N,/ESP_FLASH_CS*%
X93500000Y-93400000D02*
X93500000Y-91000000D01*
X89525000Y-94145000D02*
X92755000Y-94145000D01*
X92755000Y-94145000D02*
X93500000Y-93400000D01*
X93500000Y-91000000D02*
X94750000Y-89750000D01*
X98555000Y-90055000D02*
X98555000Y-91282500D01*
X98250000Y-89750000D02*
X98555000Y-90055000D01*
X94750000Y-89750000D02*
X98250000Y-89750000D01*
D82*
%TO.N,Net-(R20-Pad2)*%
X141776406Y-76990000D02*
X141750000Y-76990000D01*
X143000000Y-78010000D02*
X142796406Y-78010000D01*
X142796406Y-78010000D02*
X141776406Y-76990000D01*
%TO.N,Net-(R22-Pad2)*%
X142973594Y-68520000D02*
X141943594Y-67490000D01*
X141943594Y-67490000D02*
X141750000Y-67490000D01*
X143000000Y-68520000D02*
X142973594Y-68520000D01*
%TO.N,Net-(R24-Pad2)*%
X141500000Y-73990000D02*
X141500000Y-73000000D01*
%TO.N,Net-(R25-Pad2)*%
X141500000Y-63010000D02*
X141500000Y-63990000D01*
%TD*%
%TA.AperFunction,Conductor*%
%TO.N,GND*%
G36*
X163943039Y-93119685D02*
G01*
X163988794Y-93172489D01*
X164000000Y-93224000D01*
X164000000Y-95776000D01*
X163980315Y-95843039D01*
X163927511Y-95888794D01*
X163876000Y-95900000D01*
X160624000Y-95900000D01*
X160556961Y-95880315D01*
X160511206Y-95827511D01*
X160500000Y-95776000D01*
X160500000Y-94531711D01*
X160519685Y-94464672D01*
X160572489Y-94418917D01*
X160641647Y-94408973D01*
X160705203Y-94437998D01*
X160742977Y-94496776D01*
X160745617Y-94507520D01*
X160753820Y-94548759D01*
X160753822Y-94548767D01*
X160810357Y-94685254D01*
X160810362Y-94685264D01*
X160892436Y-94808096D01*
X160892439Y-94808100D01*
X160996899Y-94912560D01*
X160996903Y-94912563D01*
X161119735Y-94994637D01*
X161119745Y-94994642D01*
X161256232Y-95051177D01*
X161256240Y-95051179D01*
X161401126Y-95079999D01*
X161401129Y-95080000D01*
X161750000Y-95080000D01*
X161750000Y-94630000D01*
X162000000Y-94630000D01*
X162000000Y-95080000D01*
X162348871Y-95080000D01*
X162348873Y-95079999D01*
X162493759Y-95051179D01*
X162493767Y-95051177D01*
X162630254Y-94994642D01*
X162630264Y-94994637D01*
X162753096Y-94912563D01*
X162753100Y-94912560D01*
X162857560Y-94808100D01*
X162857563Y-94808096D01*
X162939637Y-94685264D01*
X162939642Y-94685254D01*
X162996177Y-94548767D01*
X162996179Y-94548759D01*
X163014829Y-94455000D01*
X162549242Y-94455000D01*
X162554556Y-94445796D01*
X162575000Y-94369496D01*
X162575000Y-94290504D01*
X162554556Y-94214204D01*
X162549242Y-94205000D01*
X163014829Y-94205000D01*
X163014829Y-94204999D01*
X162996179Y-94111240D01*
X162996177Y-94111232D01*
X162939642Y-93974745D01*
X162939637Y-93974735D01*
X162857563Y-93851903D01*
X162857560Y-93851899D01*
X162753100Y-93747439D01*
X162753096Y-93747436D01*
X162630264Y-93665362D01*
X162630254Y-93665357D01*
X162493767Y-93608822D01*
X162493759Y-93608820D01*
X162348872Y-93580000D01*
X162000000Y-93580000D01*
X162000000Y-94030000D01*
X161750000Y-94030000D01*
X161750000Y-93580000D01*
X161401128Y-93580000D01*
X161256240Y-93608820D01*
X161256232Y-93608822D01*
X161119745Y-93665357D01*
X161119735Y-93665362D01*
X160996903Y-93747436D01*
X160996899Y-93747439D01*
X160892439Y-93851899D01*
X160892436Y-93851903D01*
X160810362Y-93974735D01*
X160810357Y-93974745D01*
X160753822Y-94111232D01*
X160753820Y-94111238D01*
X160745617Y-94152480D01*
X160713232Y-94214391D01*
X160652516Y-94248965D01*
X160582747Y-94245225D01*
X160526075Y-94204358D01*
X160500493Y-94139340D01*
X160500000Y-94128288D01*
X160500000Y-93224000D01*
X160519685Y-93156961D01*
X160572489Y-93111206D01*
X160624000Y-93100000D01*
X163876000Y-93100000D01*
X163943039Y-93119685D01*
G37*
%TD.AperFunction*%
%TD*%
%TA.AperFunction,Conductor*%
%TO.N,GND*%
G36*
X158583190Y-93119685D02*
G01*
X158603832Y-93136319D01*
X158763681Y-93296168D01*
X158778384Y-93323095D01*
X158794977Y-93348914D01*
X158795868Y-93355114D01*
X158797166Y-93357491D01*
X158800000Y-93383849D01*
X158800000Y-93580197D01*
X158780315Y-93647236D01*
X158727511Y-93692991D01*
X158658353Y-93702935D01*
X158607111Y-93683300D01*
X158580267Y-93665364D01*
X158580254Y-93665357D01*
X158443767Y-93608822D01*
X158443759Y-93608820D01*
X158298872Y-93580000D01*
X157800000Y-93580000D01*
X157800000Y-94030000D01*
X157550000Y-94030000D01*
X157550000Y-93580000D01*
X157051128Y-93580000D01*
X156906240Y-93608820D01*
X156906232Y-93608822D01*
X156769745Y-93665357D01*
X156769735Y-93665362D01*
X156646903Y-93747436D01*
X156646899Y-93747439D01*
X156542439Y-93851899D01*
X156542436Y-93851903D01*
X156460362Y-93974735D01*
X156460357Y-93974745D01*
X156403822Y-94111232D01*
X156403820Y-94111240D01*
X156385170Y-94204999D01*
X156385171Y-94205000D01*
X156850758Y-94205000D01*
X156845444Y-94214204D01*
X156825000Y-94290504D01*
X156825000Y-94369496D01*
X156845444Y-94445796D01*
X156850758Y-94455000D01*
X156385170Y-94455000D01*
X156403820Y-94548759D01*
X156403822Y-94548767D01*
X156460357Y-94685254D01*
X156460362Y-94685264D01*
X156542436Y-94808096D01*
X156542439Y-94808100D01*
X156622658Y-94888319D01*
X156656143Y-94949642D01*
X156651159Y-95019334D01*
X156609287Y-95075267D01*
X156543823Y-95099684D01*
X156534977Y-95100000D01*
X155924000Y-95100000D01*
X155856961Y-95080315D01*
X155811206Y-95027511D01*
X155800000Y-94976000D01*
X155800000Y-93224000D01*
X155819685Y-93156961D01*
X155872489Y-93111206D01*
X155924000Y-93100000D01*
X158516151Y-93100000D01*
X158583190Y-93119685D01*
G37*
%TD.AperFunction*%
%TD*%
%TA.AperFunction,Conductor*%
%TO.N,GND*%
G36*
X156552016Y-102269685D02*
G01*
X156597771Y-102322489D01*
X156607715Y-102391647D01*
X156578690Y-102455203D01*
X156572658Y-102461681D01*
X156542439Y-102491899D01*
X156542436Y-102491903D01*
X156460362Y-102614735D01*
X156460357Y-102614745D01*
X156403822Y-102751232D01*
X156403820Y-102751240D01*
X156385170Y-102844999D01*
X156385171Y-102845000D01*
X156850758Y-102845000D01*
X156845444Y-102854204D01*
X156825000Y-102930504D01*
X156825000Y-103009496D01*
X156845444Y-103085796D01*
X156850758Y-103095000D01*
X156385170Y-103095000D01*
X156403820Y-103188759D01*
X156403822Y-103188767D01*
X156460357Y-103325254D01*
X156460362Y-103325264D01*
X156542436Y-103448096D01*
X156542439Y-103448100D01*
X156646899Y-103552560D01*
X156646903Y-103552563D01*
X156769735Y-103634637D01*
X156769745Y-103634642D01*
X156906232Y-103691177D01*
X156906240Y-103691179D01*
X156972616Y-103704383D01*
X157034527Y-103736768D01*
X157069101Y-103797484D01*
X157065362Y-103867253D01*
X157024495Y-103923925D01*
X156959477Y-103949506D01*
X156948425Y-103950000D01*
X156049000Y-103950000D01*
X155981961Y-103930315D01*
X155936206Y-103877511D01*
X155925000Y-103826000D01*
X155925000Y-102374000D01*
X155944685Y-102306961D01*
X155997489Y-102261206D01*
X156049000Y-102250000D01*
X156484977Y-102250000D01*
X156552016Y-102269685D01*
G37*
%TD.AperFunction*%
%TA.AperFunction,Conductor*%
G36*
X160902016Y-102269685D02*
G01*
X160947771Y-102322489D01*
X160957715Y-102391647D01*
X160928690Y-102455203D01*
X160922658Y-102461681D01*
X160892439Y-102491899D01*
X160892436Y-102491903D01*
X160810362Y-102614735D01*
X160810357Y-102614745D01*
X160753822Y-102751232D01*
X160753820Y-102751240D01*
X160735170Y-102844999D01*
X160735171Y-102845000D01*
X161200758Y-102845000D01*
X161195444Y-102854204D01*
X161175000Y-102930504D01*
X161175000Y-103009496D01*
X161195444Y-103085796D01*
X161200758Y-103095000D01*
X160735170Y-103095000D01*
X160753820Y-103188759D01*
X160753822Y-103188767D01*
X160810357Y-103325254D01*
X160810362Y-103325264D01*
X160892436Y-103448096D01*
X160892439Y-103448100D01*
X160996899Y-103552560D01*
X160996903Y-103552563D01*
X161119735Y-103634637D01*
X161119745Y-103634642D01*
X161256232Y-103691177D01*
X161256240Y-103691179D01*
X161322616Y-103704383D01*
X161384527Y-103736768D01*
X161419101Y-103797484D01*
X161415362Y-103867253D01*
X161374495Y-103923925D01*
X161309477Y-103949506D01*
X161298425Y-103950000D01*
X158401575Y-103950000D01*
X158334536Y-103930315D01*
X158288781Y-103877511D01*
X158278837Y-103808353D01*
X158307862Y-103744797D01*
X158366640Y-103707023D01*
X158377384Y-103704383D01*
X158443759Y-103691179D01*
X158443767Y-103691177D01*
X158580254Y-103634642D01*
X158580264Y-103634637D01*
X158703096Y-103552563D01*
X158703100Y-103552560D01*
X158807560Y-103448100D01*
X158807563Y-103448096D01*
X158889637Y-103325264D01*
X158889642Y-103325254D01*
X158946177Y-103188767D01*
X158946179Y-103188759D01*
X158964829Y-103095000D01*
X158499242Y-103095000D01*
X158504556Y-103085796D01*
X158525000Y-103009496D01*
X158525000Y-102930504D01*
X158504556Y-102854204D01*
X158499242Y-102845000D01*
X158964829Y-102845000D01*
X158964829Y-102844999D01*
X158946179Y-102751240D01*
X158946177Y-102751232D01*
X158889642Y-102614745D01*
X158889637Y-102614735D01*
X158807563Y-102491903D01*
X158807560Y-102491899D01*
X158777342Y-102461681D01*
X158743857Y-102400358D01*
X158748841Y-102330666D01*
X158790713Y-102274733D01*
X158856177Y-102250316D01*
X158865023Y-102250000D01*
X160834977Y-102250000D01*
X160902016Y-102269685D01*
G37*
%TD.AperFunction*%
%TA.AperFunction,Conductor*%
G36*
X164092539Y-102269685D02*
G01*
X164138294Y-102322489D01*
X164149500Y-102374000D01*
X164149500Y-103826000D01*
X164129815Y-103893039D01*
X164077011Y-103938794D01*
X164025500Y-103950000D01*
X162451575Y-103950000D01*
X162384536Y-103930315D01*
X162338781Y-103877511D01*
X162328837Y-103808353D01*
X162357862Y-103744797D01*
X162416640Y-103707023D01*
X162427384Y-103704383D01*
X162493759Y-103691179D01*
X162493767Y-103691177D01*
X162630254Y-103634642D01*
X162630264Y-103634637D01*
X162753096Y-103552563D01*
X162753100Y-103552560D01*
X162857560Y-103448100D01*
X162857563Y-103448096D01*
X162939637Y-103325264D01*
X162939642Y-103325254D01*
X162996177Y-103188767D01*
X162996179Y-103188759D01*
X163014829Y-103095000D01*
X162549242Y-103095000D01*
X162554556Y-103085796D01*
X162575000Y-103009496D01*
X162575000Y-102930504D01*
X162554556Y-102854204D01*
X162549242Y-102845000D01*
X163014829Y-102845000D01*
X163014829Y-102844999D01*
X162996179Y-102751240D01*
X162996177Y-102751232D01*
X162939642Y-102614745D01*
X162939637Y-102614735D01*
X162857563Y-102491903D01*
X162857560Y-102491899D01*
X162827342Y-102461681D01*
X162793857Y-102400358D01*
X162798841Y-102330666D01*
X162840713Y-102274733D01*
X162906177Y-102250316D01*
X162915023Y-102250000D01*
X164025500Y-102250000D01*
X164092539Y-102269685D01*
G37*
%TD.AperFunction*%
%TD*%
M02*
