%TF.GenerationSoftware,KiCad,Pcbnew,9.0.3*%
%TF.CreationDate,2025-10-02T12:34:45+05:30*%
%TF.ProjectId,pslab-mini,70736c61-622d-46d6-996e-692e6b696361,0.0.0*%
%TF.SameCoordinates,Original*%
%TF.FileFunction,Soldermask,Bot*%
%TF.FilePolarity,Negative*%
%FSLAX46Y46*%
G04 Gerber Fmt 4.6, Leading zero omitted, Abs format (unit mm)*
G04 Created by KiCad (PCBNEW 9.0.3) date 2025-10-02 12:34:45*
%MOMM*%
%LPD*%
G01*
G04 APERTURE LIST*
G04 Aperture macros list*
%AMRoundRect*
0 Rectangle with rounded corners*
0 $1 Rounding radius*
0 $2 $3 $4 $5 $6 $7 $8 $9 X,Y pos of 4 corners*
0 Add a 4 corners polygon primitive as box body*
4,1,4,$2,$3,$4,$5,$6,$7,$8,$9,$2,$3,0*
0 Add four circle primitives for the rounded corners*
1,1,$1+$1,$2,$3*
1,1,$1+$1,$4,$5*
1,1,$1+$1,$6,$7*
1,1,$1+$1,$8,$9*
0 Add four rect primitives between the rounded corners*
20,1,$1+$1,$2,$3,$4,$5,0*
20,1,$1+$1,$4,$5,$6,$7,0*
20,1,$1+$1,$6,$7,$8,$9,0*
20,1,$1+$1,$8,$9,$2,$3,0*%
G04 Aperture macros list end*
%ADD10C,2.500000*%
%ADD11C,3.500000*%
%ADD12C,0.650000*%
%ADD13O,2.100000X1.000000*%
%ADD14O,1.800000X1.000000*%
%ADD15C,4.750000*%
%ADD16R,1.700000X1.700000*%
%ADD17C,1.700000*%
%ADD18RoundRect,0.250000X0.650000X1.350000X-0.650000X1.350000X-0.650000X-1.350000X0.650000X-1.350000X0*%
%ADD19O,1.800000X3.200000*%
%ADD20R,1.000000X1.000000*%
G04 APERTURE END LIST*
D10*
%TO.C,J3*%
X157400000Y-81250000D03*
D11*
X160700000Y-84550000D03*
X160700000Y-77950000D03*
X154100000Y-84550000D03*
X154100000Y-77950000D03*
%TD*%
D12*
%TO.C,J1*%
X158195000Y-101540000D03*
X158195000Y-95760000D03*
D13*
X157675000Y-102970000D03*
D14*
X161875000Y-102970000D03*
D13*
X157675000Y-94330000D03*
D14*
X161875000Y-94330000D03*
%TD*%
D15*
%TO.C,MH2*%
X141150000Y-56750000D03*
%TD*%
%TO.C,MH1*%
X83150000Y-56750000D03*
%TD*%
%TO.C,MH4*%
X83150000Y-105750000D03*
%TD*%
D16*
%TO.C,J5*%
X90750000Y-56000000D03*
D17*
X90750000Y-58540000D03*
X93290000Y-56000000D03*
X93290000Y-58540000D03*
X95830000Y-56000000D03*
X95830000Y-58540000D03*
X98370000Y-56000000D03*
X98370000Y-58540000D03*
X100910000Y-56000000D03*
X100910000Y-58540000D03*
X103450000Y-56000000D03*
X103450000Y-58540000D03*
X105990000Y-56000000D03*
X105990000Y-58540000D03*
X108530000Y-56000000D03*
X108530000Y-58540000D03*
X111070000Y-56000000D03*
X111070000Y-58540000D03*
X113610000Y-56000000D03*
X113610000Y-58540000D03*
X116150000Y-56000000D03*
X116150000Y-58540000D03*
X118690000Y-56000000D03*
X118690000Y-58540000D03*
X121230000Y-56000000D03*
X121230000Y-58540000D03*
X123770000Y-56000000D03*
X123770000Y-58540000D03*
X126310000Y-56000000D03*
X126310000Y-58540000D03*
X128850000Y-56000000D03*
X128850000Y-58540000D03*
%TD*%
D18*
%TO.C,J7*%
X87750000Y-63750000D03*
D19*
X85210000Y-63750000D03*
X82670000Y-63750000D03*
D18*
X87750000Y-68750000D03*
D19*
X85210000Y-68750000D03*
X82670000Y-68750000D03*
%TD*%
D16*
%TO.C,J6*%
X88900000Y-106425000D03*
D17*
X91440000Y-106425000D03*
X93980000Y-106425000D03*
X96520000Y-106425000D03*
X99060000Y-106425000D03*
X101600000Y-106425000D03*
X104140000Y-106425000D03*
X106680000Y-106425000D03*
X109220000Y-106425000D03*
X111760000Y-106425000D03*
X114300000Y-106425000D03*
X116840000Y-106425000D03*
X119380000Y-106425000D03*
X121920000Y-106425000D03*
X124460000Y-106425000D03*
%TD*%
D15*
%TO.C,MH3*%
X141150000Y-105750000D03*
%TD*%
D10*
%TO.C,J4*%
X157400000Y-62250000D03*
D11*
X160700000Y-65550000D03*
X160700000Y-58950000D03*
X154100000Y-65550000D03*
X154100000Y-58950000D03*
%TD*%
D20*
%TO.C,TP2*%
X154600000Y-99800000D03*
%TD*%
%TO.C,TP4*%
X154600000Y-102000000D03*
%TD*%
%TO.C,TP3*%
X154600000Y-97500000D03*
%TD*%
%TO.C,TP9*%
X154600000Y-95300000D03*
%TD*%
M02*
