M48
; DRILL file {KiCad 9.0.3} date 2025-10-02T12:34:43+0530
; FORMAT={-:-/ absolute / metric / decimal}
; #@! TF.CreationDate,2025-10-02T12:34:43+05:30
; #@! TF.GenerationSoftware,Kicad,Pcbnew,9.0.3
; #@! TF.FileFunction,MixedPlating,1,4
FMAT,2
METRIC
; #@! TA.AperFunction,Plated,PTH,ViaDrill
T1C0.300
; #@! TA.AperFunction,Plated,PTH,ComponentDrill
T2C0.600
; #@! TA.AperFunction,Plated,PTH,ComponentDrill
T3C1.000
; #@! TA.AperFunction,Plated,PTH,ComponentDrill
T4C1.100
; #@! TA.AperFunction,Plated,PTH,ComponentDrill
T5C1.170
; #@! TA.AperFunction,Plated,PTH,ComponentDrill
T6C2.110
; #@! TA.AperFunction,Plated,PTH,ComponentDrill
T7C2.750
; #@! TA.AperFunction,NonPlated,NPTH,ComponentDrill
T8C0.650
%
G90
G05
T1
X80.45Y-82.0
X80.45Y-86.825
X80.475Y-97.275
X80.525Y-95.25
X81.5Y-102.25
X81.75Y-74.5
X81.75Y-82.0
X82.475Y-98.525
X83.25Y-88.025
X83.275Y-91.015
X84.35Y-88.05
X84.482Y-99.718
X84.6Y-97.3
X84.725Y-98.125
X85.575Y-98.85
X85.6Y-93.0
X86.0Y-95.5
X86.1Y-100.575
X86.9Y-89.05
X86.95Y-99.05
X87.0Y-102.25
X87.075Y-94.395
X87.75Y-95.75
X88.5Y-95.0
X89.7Y-98.2
X89.893Y-91.177
X90.15Y-82.81
X90.188Y-90.433
X90.24Y-71.69
X90.7Y-84.55
X90.9Y-103.4
X90.988Y-87.987
X91.5Y-82.75
X91.986Y-96.964
X91.99Y-98.3
X92.35Y-102.25
X92.8Y-93.2
X92.9Y-91.3
X92.9Y-92.3
X93.0Y-76.9
X93.325Y-85.5
X93.525Y-100.225
X93.985Y-71.636
X94.7Y-95.9
X94.75Y-92.46
X95.5Y-96.9
X95.8Y-72.19
X95.81Y-76.68
X96.975Y-92.625
X97.25Y-69.75
X97.3Y-77.0
X97.6Y-76.1
X99.75Y-80.4
X101.225Y-79.8
X101.4Y-97.1
X102.0Y-69.75
X102.2Y-97.0
X103.5Y-76.0
X103.7Y-71.8
X104.0Y-76.75
X104.75Y-75.4
X104.875Y-77.1
X105.1Y-83.5
X105.321Y-70.254
X105.575Y-77.625
X107.7Y-82.2
X108.025Y-72.25
X108.3Y-82.8
X108.975Y-70.925
X109.2Y-70.0
X111.25Y-86.2
X111.4Y-71.6
X112.075Y-101.075
X113.4Y-95.55
X114.7Y-87.799
X115.3Y-100.2
X115.5Y-88.0
X116.15Y-74.4
X116.5Y-87.0
X116.85Y-102.2
X117.0Y-86.25
X117.25Y-83.2
X117.35Y-96.05
X117.4Y-90.0
X117.55Y-76.9
X118.4Y-78.5
X118.5Y-64.0
X118.5Y-71.199
X118.69Y-61.1
X118.75Y-74.4
X118.75Y-83.2
X119.0Y-76.276
X119.25Y-86.025
X119.57Y-68.608
X119.6Y-76.9
X119.6Y-81.7
X121.27Y-85.78
X122.37Y-88.5
X122.85Y-93.5
X123.28Y-91.51
X123.29Y-89.75
X123.5Y-85.6
X123.672Y-104.672
X124.425Y-101.3
X125.487Y-98.729
X126.192Y-104.692
X126.76Y-73.63
X126.84Y-71.39
X127.0Y-76.3
X127.001Y-80.001
X128.475Y-98.2
X128.8Y-85.48
X129.0Y-96.3
X129.15Y-88.7
X129.45Y-85.25
X130.19Y-75.5
X130.22Y-78.9
X130.22Y-80.9
X131.951Y-100.3
X133.275Y-94.75
X133.7Y-91.0
X134.043Y-81.723
X134.73Y-84.73
X136.18Y-74.01
X137.0Y-63.48
X137.382Y-75.612
X137.45Y-93.25
X137.475Y-91.0
X137.667Y-64.98
X138.1Y-95.25
X138.35Y-99.35
X138.77Y-80.98
X139.25Y-68.79
X139.25Y-86.25
X139.29Y-78.8
X139.3Y-84.2
X140.0Y-96.25
X140.25Y-80.25
X140.5Y-98.0
X140.5Y-99.75
X141.1Y-101.7
X141.25Y-81.74
X141.35Y-98.85
X141.49Y-71.43
X141.5Y-61.4
X142.25Y-98.0
X142.75Y-96.25
X143.02Y-72.15
X143.05Y-62.7
X143.555Y-80.945
X144.0Y-67.05
X144.25Y-76.25
X144.25Y-78.51
X144.48Y-62.0
X144.75Y-97.75
X144.8Y-71.49
X144.81Y-68.48
X145.0Y-92.45
X145.15Y-70.45
X145.25Y-106.75
X147.95Y-96.75
X147.975Y-99.0
X148.27Y-83.22
X148.32Y-80.02
X148.94Y-60.75
X148.94Y-62.51
X151.0Y-98.975
X153.5Y-96.25
X154.6Y-95.3
X154.6Y-97.5
X154.6Y-99.8
X154.6Y-102.0
X155.0Y-104.75
X156.25Y-93.5
X156.25Y-94.15
X156.25Y-94.8
X156.3Y-102.6
X156.3Y-103.6
X157.0Y-93.5
X157.7Y-93.5
X158.5Y-99.75
X158.55Y-96.89
X158.65Y-90.05
X159.1Y-103.6
X160.3Y-103.6
X160.5Y-89.025
X160.5Y-92.25
X160.662Y-68.912
X160.7Y-68.0
X160.7Y-74.5
X160.7Y-75.5
X161.0Y-95.5
X161.425Y-105.75
X162.5Y-89.025
X162.5Y-92.25
X162.8Y-95.5
X163.0Y-102.6
X163.0Y-103.6
X163.6Y-93.6
X163.6Y-94.6
X163.6Y-95.45
X163.7Y-102.6
X163.7Y-103.6
T3
X88.9Y-106.425
X90.75Y-56.0
X90.75Y-58.54
X91.44Y-106.425
X93.29Y-56.0
X93.29Y-58.54
X93.98Y-106.425
X95.83Y-56.0
X95.83Y-58.54
X96.52Y-106.425
X98.37Y-56.0
X98.37Y-58.54
X99.06Y-106.425
X100.91Y-56.0
X100.91Y-58.54
X101.6Y-106.425
X103.45Y-56.0
X103.45Y-58.54
X104.14Y-106.425
X105.99Y-56.0
X105.99Y-58.54
X106.68Y-106.425
X108.53Y-56.0
X108.53Y-58.54
X109.22Y-106.425
X111.07Y-56.0
X111.07Y-58.54
X111.76Y-106.425
X113.61Y-56.0
X113.61Y-58.54
X114.3Y-106.425
X116.15Y-56.0
X116.15Y-58.54
X116.84Y-106.425
X118.69Y-56.0
X118.69Y-58.54
X119.38Y-106.425
X121.23Y-56.0
X121.23Y-58.54
X121.92Y-106.425
X123.77Y-56.0
X123.77Y-58.54
X124.46Y-106.425
X126.31Y-56.0
X126.31Y-58.54
X128.85Y-56.0
X128.85Y-58.54
T4
X82.67Y-63.75
X82.67Y-68.75
X85.21Y-63.75
X85.21Y-68.75
X87.75Y-63.75
X87.75Y-68.75
T5
X157.4Y-62.25
X157.4Y-81.25
T6
X154.1Y-58.95
X154.1Y-65.55
X154.1Y-77.95
X154.1Y-84.55
X160.7Y-58.95
X160.7Y-65.55
X160.7Y-77.95
X160.7Y-84.55
T7
X83.15Y-56.75
X83.15Y-105.75
X141.15Y-56.75
X141.15Y-105.75
T8
X158.195Y-95.76
X158.195Y-101.54
T2
G00X157.125Y-94.33
M15
G01X158.225Y-94.33
M16
G05
G00X157.125Y-102.97
M15
G01X158.225Y-102.97
M16
G05
G00X161.475Y-94.33
M15
G01X162.275Y-94.33
M16
G05
G00X161.475Y-102.97
M15
G01X162.275Y-102.97
M16
G05
M30
