%TF.GenerationSoftware,KiCad,Pcbnew,9.0.3*%
%TF.CreationDate,2025-10-02T12:34:45+05:30*%
%TF.ProjectId,pslab-mini,70736c61-622d-46d6-996e-692e6b696361,0.0.0*%
%TF.SameCoordinates,Original*%
%TF.FileFunction,Copper,L4,Bot*%
%TF.FilePolarity,Positive*%
%FSLAX46Y46*%
G04 Gerber Fmt 4.6, Leading zero omitted, Abs format (unit mm)*
G04 Created by KiCad (PCBNEW 9.0.3) date 2025-10-02 12:34:45*
%MOMM*%
%LPD*%
G01*
G04 APERTURE LIST*
G04 Aperture macros list*
%AMRoundRect*
0 Rectangle with rounded corners*
0 $1 Rounding radius*
0 $2 $3 $4 $5 $6 $7 $8 $9 X,Y pos of 4 corners*
0 Add a 4 corners polygon primitive as box body*
4,1,4,$2,$3,$4,$5,$6,$7,$8,$9,$2,$3,0*
0 Add four circle primitives for the rounded corners*
1,1,$1+$1,$2,$3*
1,1,$1+$1,$4,$5*
1,1,$1+$1,$6,$7*
1,1,$1+$1,$8,$9*
0 Add four rect primitives between the rounded corners*
20,1,$1+$1,$2,$3,$4,$5,0*
20,1,$1+$1,$4,$5,$6,$7,0*
20,1,$1+$1,$6,$7,$8,$9,0*
20,1,$1+$1,$8,$9,$2,$3,0*%
G04 Aperture macros list end*
%TA.AperFunction,ComponentPad*%
%ADD10C,2.500000*%
%TD*%
%TA.AperFunction,ComponentPad*%
%ADD11C,3.500000*%
%TD*%
%TA.AperFunction,HeatsinkPad*%
%ADD12O,2.100000X1.000000*%
%TD*%
%TA.AperFunction,HeatsinkPad*%
%ADD13O,1.800000X1.000000*%
%TD*%
%TA.AperFunction,ComponentPad*%
%ADD14C,4.750000*%
%TD*%
%TA.AperFunction,ComponentPad*%
%ADD15R,1.700000X1.700000*%
%TD*%
%TA.AperFunction,ComponentPad*%
%ADD16C,1.700000*%
%TD*%
%TA.AperFunction,ComponentPad*%
%ADD17RoundRect,0.250000X0.650000X1.350000X-0.650000X1.350000X-0.650000X-1.350000X0.650000X-1.350000X0*%
%TD*%
%TA.AperFunction,ComponentPad*%
%ADD18O,1.800000X3.200000*%
%TD*%
%TA.AperFunction,SMDPad,CuDef*%
%ADD19R,1.000000X1.000000*%
%TD*%
%TA.AperFunction,ViaPad*%
%ADD20C,0.600000*%
%TD*%
%TA.AperFunction,Conductor*%
%ADD21C,0.400000*%
%TD*%
%TA.AperFunction,Conductor*%
%ADD22C,0.200000*%
%TD*%
G04 APERTURE END LIST*
D10*
%TO.P,J3,1,In*%
%TO.N,/CH1*%
X157400000Y-81250000D03*
D11*
%TO.P,J3,2,Ext*%
%TO.N,GND*%
X160700000Y-84550000D03*
X160700000Y-77950000D03*
X154100000Y-84550000D03*
X154100000Y-77950000D03*
%TD*%
D12*
%TO.P,J1,S1,SHIELD*%
%TO.N,GND*%
X157675000Y-102970000D03*
D13*
X161875000Y-102970000D03*
D12*
X157675000Y-94330000D03*
D13*
X161875000Y-94330000D03*
%TD*%
D14*
%TO.P,MH2,1,1*%
%TO.N,GND*%
X141150000Y-56750000D03*
%TD*%
%TO.P,MH1,1,1*%
%TO.N,GND*%
X83150000Y-56750000D03*
%TD*%
%TO.P,MH4,1,1*%
%TO.N,GND*%
X83150000Y-105750000D03*
%TD*%
D15*
%TO.P,J5,1,Pin_1*%
%TO.N,GND*%
X90750000Y-56000000D03*
D16*
%TO.P,J5,2,Pin_2*%
%TO.N,/GPIO8*%
X90750000Y-58540000D03*
%TO.P,J5,3,Pin_3*%
%TO.N,GND*%
X93290000Y-56000000D03*
%TO.P,J5,4,Pin_4*%
%TO.N,/GPIO7*%
X93290000Y-58540000D03*
%TO.P,J5,5,Pin_5*%
%TO.N,GND*%
X95830000Y-56000000D03*
%TO.P,J5,6,Pin_6*%
%TO.N,/GPIO6*%
X95830000Y-58540000D03*
%TO.P,J5,7,Pin_7*%
%TO.N,GND*%
X98370000Y-56000000D03*
%TO.P,J5,8,Pin_8*%
%TO.N,/GPIO5*%
X98370000Y-58540000D03*
%TO.P,J5,9,Pin_9*%
%TO.N,GND*%
X100910000Y-56000000D03*
%TO.P,J5,10,Pin_10*%
%TO.N,/GPIO4*%
X100910000Y-58540000D03*
%TO.P,J5,11,Pin_11*%
%TO.N,GND*%
X103450000Y-56000000D03*
%TO.P,J5,12,Pin_12*%
%TO.N,/GPIO3*%
X103450000Y-58540000D03*
%TO.P,J5,13,Pin_13*%
%TO.N,GND*%
X105990000Y-56000000D03*
%TO.P,J5,14,Pin_14*%
%TO.N,/GPIO2*%
X105990000Y-58540000D03*
%TO.P,J5,15,Pin_15*%
%TO.N,GND*%
X108530000Y-56000000D03*
%TO.P,J5,16,Pin_16*%
%TO.N,/GPIO1*%
X108530000Y-58540000D03*
%TO.P,J5,17,Pin_17*%
%TO.N,GND*%
X111070000Y-56000000D03*
%TO.P,J5,18,Pin_18*%
%TO.N,/GPIO0*%
X111070000Y-58540000D03*
%TO.P,J5,19,Pin_19*%
%TO.N,GND*%
X113610000Y-56000000D03*
%TO.P,J5,20,Pin_20*%
%TO.N,/FQY*%
X113610000Y-58540000D03*
%TO.P,J5,21,Pin_21*%
%TO.N,GND*%
X116150000Y-56000000D03*
%TO.P,J5,22,Pin_22*%
%TO.N,/CAP*%
X116150000Y-58540000D03*
%TO.P,J5,23,Pin_23*%
%TO.N,GND*%
X118690000Y-56000000D03*
%TO.P,J5,24,Pin_24*%
%TO.N,/RES*%
X118690000Y-58540000D03*
%TO.P,J5,25,Pin_25*%
%TO.N,GND*%
X121230000Y-56000000D03*
%TO.P,J5,26,Pin_26*%
%TO.N,/VOL*%
X121230000Y-58540000D03*
%TO.P,J5,27,Pin_27*%
%TO.N,GND*%
X123770000Y-56000000D03*
%TO.P,J5,28,Pin_28*%
%TO.N,/LA1*%
X123770000Y-58540000D03*
%TO.P,J5,29,Pin_29*%
%TO.N,GND*%
X126310000Y-56000000D03*
%TO.P,J5,30,Pin_30*%
%TO.N,/LA2*%
X126310000Y-58540000D03*
%TO.P,J5,31,Pin_31*%
%TO.N,GND*%
X128850000Y-56000000D03*
%TO.P,J5,32,Pin_32*%
%TO.N,+5V*%
X128850000Y-58540000D03*
%TD*%
D17*
%TO.P,J7,1,Pin_1*%
%TO.N,/NRST*%
X87750000Y-63750000D03*
D18*
%TO.P,J7,2,Pin_2*%
%TO.N,+3V3*%
X85210000Y-63750000D03*
%TO.P,J7,3,Pin_3*%
%TO.N,GND*%
X82670000Y-63750000D03*
D17*
%TO.P,J7,4,Pin_4*%
%TO.N,/SWDIO*%
X87750000Y-68750000D03*
D18*
%TO.P,J7,5,Pin_5*%
%TO.N,/SWCLK*%
X85210000Y-68750000D03*
%TO.P,J7,6,Pin_6*%
%TO.N,unconnected-(J7-Pin_6-Pad6)*%
X82670000Y-68750000D03*
%TD*%
D15*
%TO.P,J6,1,Pin_1*%
%TO.N,GND*%
X88900000Y-106425000D03*
D16*
%TO.P,J6,2,Pin_2*%
%TO.N,/UART6_TX*%
X91440000Y-106425000D03*
%TO.P,J6,3,Pin_3*%
%TO.N,/UART6_RX*%
X93980000Y-106425000D03*
%TO.P,J6,4,Pin_4*%
%TO.N,unconnected-(J6-Pin_4-Pad4)*%
X96520000Y-106425000D03*
%TO.P,J6,5,Pin_5*%
%TO.N,+3V3*%
X99060000Y-106425000D03*
%TO.P,J6,6,Pin_6*%
%TO.N,GND*%
X101600000Y-106425000D03*
%TO.P,J6,7,Pin_7*%
%TO.N,/SPI3_SCK*%
X104140000Y-106425000D03*
%TO.P,J6,8,Pin_8*%
%TO.N,/SPI3_MISO*%
X106680000Y-106425000D03*
%TO.P,J6,9,Pin_9*%
%TO.N,/SPI3_MOSI*%
X109220000Y-106425000D03*
%TO.P,J6,10,Pin_10*%
%TO.N,/SPI.CS*%
X111760000Y-106425000D03*
%TO.P,J6,11,Pin_11*%
%TO.N,unconnected-(J6-Pin_11-Pad11)*%
X114300000Y-106425000D03*
%TO.P,J6,12,Pin_12*%
%TO.N,+3V3*%
X116840000Y-106425000D03*
%TO.P,J6,13,Pin_13*%
%TO.N,GND*%
X119380000Y-106425000D03*
%TO.P,J6,14,Pin_14*%
%TO.N,/I2C1_SCL*%
X121920000Y-106425000D03*
%TO.P,J6,15,Pin_15*%
%TO.N,/I2C1_SDA*%
X124460000Y-106425000D03*
%TD*%
D14*
%TO.P,MH3,1,1*%
%TO.N,GND*%
X141150000Y-105750000D03*
%TD*%
D10*
%TO.P,J4,1,In*%
%TO.N,/CH2*%
X157400000Y-62250000D03*
D11*
%TO.P,J4,2,Ext*%
%TO.N,GND*%
X160700000Y-65550000D03*
X160700000Y-58950000D03*
X154100000Y-65550000D03*
X154100000Y-58950000D03*
%TD*%
D19*
%TO.P,TP2,1,1*%
%TO.N,/D-*%
X154600000Y-99800000D03*
%TD*%
%TO.P,TP4,1,1*%
%TO.N,VBUS*%
X154600000Y-102000000D03*
%TD*%
%TO.P,TP3,1,1*%
%TO.N,/D+*%
X154600000Y-97500000D03*
%TD*%
%TO.P,TP9,1,1*%
%TO.N,GND*%
X154600000Y-95300000D03*
%TD*%
D20*
%TO.N,GND*%
X163700000Y-102600000D03*
X163000000Y-103600000D03*
X115300000Y-100200000D03*
X122850000Y-93500000D03*
X158650000Y-90050000D03*
X137450000Y-93250000D03*
X139290000Y-78800000D03*
X87075000Y-94395000D03*
X80450000Y-86825000D03*
X80450000Y-82000000D03*
X131951163Y-100300000D03*
X139300000Y-84200000D03*
X154600000Y-95300000D03*
X81500000Y-102250000D03*
X144250000Y-78510000D03*
X123500000Y-85600000D03*
X90150000Y-82810000D03*
X156250000Y-94150003D03*
X148940000Y-60750000D03*
X138100000Y-95250000D03*
X86000000Y-95500000D03*
X107700000Y-82200000D03*
X160300000Y-103600000D03*
X144810000Y-68480000D03*
X144800000Y-71490000D03*
X148270000Y-83220000D03*
X130220000Y-80900000D03*
X147950000Y-96750000D03*
X88500000Y-95000000D03*
X163600000Y-94600000D03*
X117400000Y-90000000D03*
X94750000Y-92460000D03*
X141500000Y-61400000D03*
X151000000Y-98975000D03*
X163600000Y-95450003D03*
X160700000Y-75500000D03*
X163600000Y-93600000D03*
X109200000Y-70000000D03*
X92350000Y-102250000D03*
X140250000Y-80250000D03*
X93325000Y-85500000D03*
X119570000Y-68608002D03*
X160662500Y-68912500D03*
X142750000Y-96250000D03*
X118749999Y-74400000D03*
X81750000Y-82000000D03*
X87000000Y-102250000D03*
X105100000Y-83500000D03*
X157700000Y-93500000D03*
X163700000Y-103600000D03*
X119600000Y-76900000D03*
X156300000Y-102600000D03*
X83250000Y-88025000D03*
X156300000Y-103600000D03*
X148320000Y-80020000D03*
X95810000Y-76680000D03*
X112075000Y-101075000D03*
X80475000Y-97275000D03*
X134043058Y-81723058D03*
X130190000Y-75500000D03*
X144480000Y-62000000D03*
X83275000Y-91015000D03*
X87750000Y-95750000D03*
X93984800Y-71636271D03*
X118750001Y-83200000D03*
X128475000Y-98200000D03*
X84350000Y-88050000D03*
X90240000Y-71690000D03*
X80525000Y-95250000D03*
X156250000Y-94800006D03*
X162500000Y-89025000D03*
X91990000Y-98300000D03*
X133275000Y-94750000D03*
X126760000Y-73630000D03*
X157000000Y-93500000D03*
X160700000Y-74500000D03*
X161000000Y-95500000D03*
X124425000Y-101300000D03*
X140000000Y-96250000D03*
X127000602Y-80000935D03*
X137475000Y-91000000D03*
X134730000Y-84730000D03*
X145000000Y-92450000D03*
X103700000Y-71800000D03*
X129450000Y-85250000D03*
X160500000Y-89025000D03*
X111400000Y-71600000D03*
X130220000Y-78900000D03*
X117250001Y-83200000D03*
X159100000Y-103600000D03*
X85600000Y-93000000D03*
X122370000Y-88500000D03*
X121270000Y-85780000D03*
X105320829Y-70254171D03*
X128800000Y-85480000D03*
X93000000Y-76900000D03*
X136180000Y-74010000D03*
X139250000Y-68790000D03*
X86900000Y-89050000D03*
X127000000Y-76300000D03*
X142250000Y-98000000D03*
X108025000Y-72250000D03*
X125487445Y-98728651D03*
X161425000Y-105750000D03*
X141350000Y-98850000D03*
X137000000Y-63480000D03*
X126840000Y-71390000D03*
X141490000Y-71430000D03*
X141250000Y-81740000D03*
X162800000Y-95500000D03*
X156250000Y-93500000D03*
X123280000Y-91510000D03*
X123290000Y-89750000D03*
X95800000Y-72190000D03*
X163000000Y-102600000D03*
X140500000Y-98000000D03*
X145250000Y-106750000D03*
X90988207Y-87986793D03*
X160700000Y-68000000D03*
X148940000Y-62510000D03*
X147975000Y-99000000D03*
X133700000Y-91000000D03*
X140500000Y-99750000D03*
%TO.N,+5V*%
X138350000Y-99350000D03*
X129000000Y-96300000D03*
%TO.N,VIN*%
X144750000Y-97750000D03*
X155000000Y-104750000D03*
X141100000Y-101700000D03*
%TO.N,+3V3*%
X138770000Y-80980000D03*
X118500000Y-64000000D03*
X116850000Y-102200000D03*
X143050000Y-62700000D03*
X108300000Y-82800000D03*
X90900000Y-103400000D03*
X117350000Y-96050000D03*
X108975000Y-70925000D03*
X91986091Y-96963909D03*
X137667500Y-64980000D03*
X143020000Y-72150000D03*
X86950000Y-99050000D03*
X119600000Y-81700000D03*
X118500000Y-71199001D03*
X119250000Y-86025000D03*
X81750000Y-74500000D03*
X82475000Y-98525000D03*
X90700000Y-84550000D03*
X137382500Y-75612500D03*
%TO.N,/NRST*%
X102000000Y-69750000D03*
X97250000Y-69750000D03*
%TO.N,VDDA*%
X119000000Y-76275735D03*
X113400000Y-95550000D03*
X139250000Y-86250000D03*
%TO.N,VBUS*%
X154600000Y-102000000D03*
X153500000Y-96250000D03*
%TO.N,-2V*%
X129150000Y-88700000D03*
X144250000Y-76250000D03*
X144000000Y-67050000D03*
%TO.N,/D-*%
X154600000Y-99800000D03*
%TO.N,/D+*%
X154600000Y-97500000D03*
%TO.N,/RES*%
X117550000Y-76900000D03*
X118690000Y-61100000D03*
%TO.N,/VOL*%
X118400000Y-78500000D03*
%TO.N,/CAP*%
X116150000Y-74400000D03*
%TO.N,/I2C1_SCL*%
X116500000Y-87000000D03*
X123672500Y-104672500D03*
%TO.N,/I2C1_SDA*%
X126192500Y-104692500D03*
X117000000Y-86250000D03*
%TO.N,/Vref*%
X145150000Y-70450000D03*
X143555000Y-80945000D03*
%TO.N,/ESP_{BOOT}*%
X114700327Y-87799274D03*
X93525000Y-100225000D03*
%TO.N,/ESP_EN*%
X84482032Y-99717968D03*
X91500000Y-82750000D03*
X115500000Y-88000000D03*
X86100000Y-100575000D03*
%TO.N,Net-(J1-CC2)*%
X160500000Y-92250000D03*
X158550000Y-96890000D03*
%TO.N,Net-(J1-CC1)*%
X158500000Y-99750000D03*
X162500000Y-92250000D03*
%TO.N,/SWCLK*%
X97300000Y-77000000D03*
%TO.N,/SWDIO*%
X97600000Y-76100000D03*
%TO.N,/ESP_DATA_READY*%
X89700000Y-98200000D03*
X111250000Y-86200000D03*
%TO.N,/ESP_SPI_CLK*%
X92800000Y-93200000D03*
X95500000Y-96900000D03*
%TO.N,/UART6_TX*%
X104875000Y-77100000D03*
X101400000Y-97100000D03*
%TO.N,/UART6_RX*%
X105575000Y-77625000D03*
X102200000Y-97000000D03*
%TO.N,/ESP_SPI_MOSI*%
X94700000Y-95900000D03*
X92900000Y-92300000D03*
%TO.N,/ESP_SPI_MISO*%
X96975000Y-92625000D03*
X92900000Y-91300000D03*
%TO.N,/ESP_SPI2_MOSI*%
X104000000Y-76750000D03*
X84725000Y-98125000D03*
%TO.N,/ESP_SPI2_CLK*%
X85575000Y-98850000D03*
X104750000Y-75400000D03*
%TO.N,/ESP_UART_RX*%
X99750000Y-80400000D03*
X90187512Y-90432575D03*
%TO.N,/ESP_SPI2_MISO*%
X84600000Y-97300000D03*
X103500000Y-76000000D03*
%TO.N,/ESP_UART_TX*%
X89893450Y-91176572D03*
X101225000Y-79800000D03*
%TD*%
D21*
%TO.N,+5V*%
X128850000Y-58540000D02*
X128000000Y-59390000D01*
X128000000Y-95300000D02*
X129000000Y-96300000D01*
X128000000Y-59390000D02*
X128000000Y-95300000D01*
D22*
%TO.N,/NRST*%
X102000000Y-69750000D02*
X97250000Y-69750000D01*
X91250000Y-63750000D02*
X87750000Y-63750000D01*
X97250000Y-69750000D02*
X91250000Y-63750000D01*
%TO.N,/RES*%
X118090000Y-61100000D02*
X117500000Y-61690000D01*
X117500000Y-61690000D02*
X117500000Y-76850000D01*
X118690000Y-61100000D02*
X118090000Y-61100000D01*
X117500000Y-76850000D02*
X117550000Y-76900000D01*
%TO.N,/GPIO1*%
X108530000Y-59280000D02*
X108530000Y-58540000D01*
%TO.N,/VOL*%
X121000000Y-58770000D02*
X121230000Y-58540000D01*
X118400000Y-75600000D02*
X121230000Y-72770000D01*
X121230000Y-72770000D02*
X121230000Y-58540000D01*
X118400000Y-78500000D02*
X118400000Y-75600000D01*
%TO.N,/CAP*%
X116150000Y-74400000D02*
X116150000Y-58540000D01*
%TO.N,/I2C1_SCL*%
X116500000Y-97500000D02*
X123672500Y-104672500D01*
X116500000Y-87000000D02*
X116500000Y-97500000D01*
%TO.N,/I2C1_SDA*%
X117000000Y-86250000D02*
X118250000Y-87500000D01*
X118250000Y-97500000D02*
X125442500Y-104692500D01*
X118250000Y-87500000D02*
X118250000Y-97500000D01*
X125442500Y-104692500D02*
X126192500Y-104692500D01*
%TO.N,/ESP_{BOOT}*%
X114700327Y-87799274D02*
X114700327Y-87799673D01*
X114700327Y-87799673D02*
X101900000Y-100600000D01*
X101900000Y-100600000D02*
X93900000Y-100600000D01*
X93900000Y-100600000D02*
X93525000Y-100225000D01*
%TO.N,/ESP_EN*%
X86400000Y-88700057D02*
X86400000Y-87850000D01*
X86100000Y-100575000D02*
X86875000Y-100575000D01*
X86299000Y-89298943D02*
X86299000Y-88801057D01*
X102800000Y-101200000D02*
X115500000Y-88500000D01*
X86400000Y-87850000D02*
X91500000Y-82750000D01*
X87500000Y-101200000D02*
X102800000Y-101200000D01*
X86299000Y-88801057D02*
X86400000Y-88700057D01*
X84482032Y-99626099D02*
X83599000Y-98743067D01*
X86875000Y-100575000D02*
X87500000Y-101200000D01*
X84482032Y-99717968D02*
X84482032Y-99626099D01*
X83599000Y-95901000D02*
X86400000Y-93100000D01*
X86400000Y-93100000D02*
X86400000Y-89399943D01*
X86400000Y-89399943D02*
X86299000Y-89298943D01*
X83599000Y-98743067D02*
X83599000Y-95901000D01*
X115500000Y-88500000D02*
X115500000Y-88000000D01*
%TO.N,Net-(J1-CC2)*%
X159500000Y-93250000D02*
X160500000Y-92250000D01*
X158550000Y-96890000D02*
X159110000Y-96890000D01*
X159110000Y-96890000D02*
X159500000Y-96500000D01*
X159500000Y-96500000D02*
X159500000Y-93250000D01*
%TO.N,Net-(J1-CC1)*%
X160000000Y-93750000D02*
X160000000Y-99100000D01*
X162500000Y-92250000D02*
X162000000Y-92750000D01*
X160000000Y-99100000D02*
X159350000Y-99750000D01*
X159350000Y-99750000D02*
X158500000Y-99750000D01*
X162000000Y-92750000D02*
X161000000Y-92750000D01*
X161000000Y-92750000D02*
X160000000Y-93750000D01*
%TO.N,/SWCLK*%
X97300000Y-77000000D02*
X93400000Y-73100000D01*
X93400000Y-73100000D02*
X89160000Y-73100000D01*
X89160000Y-73100000D02*
X85210000Y-69150000D01*
X85210000Y-69150000D02*
X85210000Y-68750000D01*
%TO.N,/SWDIO*%
X90250000Y-68750000D02*
X87750000Y-68750000D01*
X97600000Y-76100000D02*
X90250000Y-68750000D01*
%TO.N,/ESP_DATA_READY*%
X101700000Y-98900000D02*
X90400000Y-98900000D01*
X111250000Y-89350000D02*
X101700000Y-98900000D01*
X90400000Y-98900000D02*
X89700000Y-98200000D01*
X111250000Y-86200000D02*
X111250000Y-89350000D01*
%TO.N,/ESP_SPI_CLK*%
X92800000Y-93200000D02*
X92800000Y-95050000D01*
X94650000Y-96900000D02*
X95500000Y-96900000D01*
X92800000Y-95050000D02*
X94650000Y-96900000D01*
%TO.N,/UART6_TX*%
X101400000Y-80900000D02*
X101400000Y-97100000D01*
X102700000Y-79275000D02*
X102700000Y-79600000D01*
X102700000Y-79600000D02*
X101400000Y-80900000D01*
X104875000Y-77100000D02*
X102700000Y-79275000D01*
%TO.N,/UART6_RX*%
X105575000Y-77625000D02*
X102200000Y-81000000D01*
X102200000Y-81000000D02*
X102200000Y-97000000D01*
X94075000Y-106425000D02*
X93980000Y-106425000D01*
%TO.N,/ESP_SPI_MOSI*%
X94700000Y-94100000D02*
X94700000Y-95900000D01*
X92900000Y-92300000D02*
X94700000Y-94100000D01*
%TO.N,/ESP_SPI_MISO*%
X94700000Y-91300000D02*
X92900000Y-91300000D01*
X96975000Y-92625000D02*
X96025000Y-92625000D01*
X96025000Y-92625000D02*
X94700000Y-91300000D01*
%TO.N,/ESP_SPI2_MOSI*%
X86500000Y-98000000D02*
X89125000Y-95375000D01*
X84850000Y-98000000D02*
X86500000Y-98000000D01*
X101150000Y-76750000D02*
X104000000Y-76750000D01*
X89125000Y-95375000D02*
X89125000Y-88775000D01*
X89125000Y-88775000D02*
X101150000Y-76750000D01*
X84725000Y-98125000D02*
X84850000Y-98000000D01*
%TO.N,/ESP_SPI2_CLK*%
X84000000Y-98250000D02*
X84000000Y-97000000D01*
X84600057Y-98850000D02*
X84456843Y-98706786D01*
X85575000Y-98850000D02*
X84600057Y-98850000D01*
X87700000Y-88600000D02*
X100900000Y-75400000D01*
X84456786Y-98706786D02*
X84000000Y-98250000D01*
X100900000Y-75400000D02*
X104750000Y-75400000D01*
X84750000Y-95750000D02*
X87700000Y-92800000D01*
X84750000Y-96250000D02*
X84750000Y-95750000D01*
X84456843Y-98706786D02*
X84456786Y-98706786D01*
X84000000Y-97000000D02*
X84750000Y-96250000D01*
X87700000Y-92800000D02*
X87700000Y-88600000D01*
%TO.N,/ESP_UART_RX*%
X90187512Y-89962488D02*
X90187512Y-90432575D01*
X99750000Y-80400000D02*
X90187512Y-89962488D01*
%TO.N,/ESP_SPI2_MISO*%
X84926000Y-96974000D02*
X84600000Y-97300000D01*
X85526000Y-96974000D02*
X84926000Y-96974000D01*
X103500000Y-76000000D02*
X101100000Y-76000000D01*
X88300000Y-94200000D02*
X85526000Y-96974000D01*
X88300000Y-88800000D02*
X88300000Y-94200000D01*
X101100000Y-76000000D02*
X88300000Y-88800000D01*
%TO.N,/ESP_UART_TX*%
X89895022Y-91175000D02*
X89893450Y-91176572D01*
X101225000Y-79800000D02*
X101225000Y-80245030D01*
X90395030Y-91075000D02*
X90395030Y-91079970D01*
X90395030Y-91079970D02*
X90300000Y-91175000D01*
X90300000Y-91175000D02*
X89895022Y-91175000D01*
X101225000Y-80245030D02*
X90395030Y-91075000D01*
%TD*%
M02*
