%TF.GenerationSoftware,KiCad,Pcbnew,9.0.3*%
%TF.CreationDate,2025-10-02T12:34:45+05:30*%
%TF.ProjectId,pslab-mini,70736c61-622d-46d6-996e-692e6b696361,0.0.0*%
%TF.SameCoordinates,Original*%
%TF.FileFunction,Paste,Top*%
%TF.FilePolarity,Positive*%
%FSLAX46Y46*%
G04 Gerber Fmt 4.6, Leading zero omitted, Abs format (unit mm)*
G04 Created by KiCad (PCBNEW 9.0.3) date 2025-10-02 12:34:45*
%MOMM*%
%LPD*%
G01*
G04 APERTURE LIST*
G04 Aperture macros list*
%AMRoundRect*
0 Rectangle with rounded corners*
0 $1 Rounding radius*
0 $2 $3 $4 $5 $6 $7 $8 $9 X,Y pos of 4 corners*
0 Add a 4 corners polygon primitive as box body*
4,1,4,$2,$3,$4,$5,$6,$7,$8,$9,$2,$3,0*
0 Add four circle primitives for the rounded corners*
1,1,$1+$1,$2,$3*
1,1,$1+$1,$4,$5*
1,1,$1+$1,$6,$7*
1,1,$1+$1,$8,$9*
0 Add four rect primitives between the rounded corners*
20,1,$1+$1,$2,$3,$4,$5,0*
20,1,$1+$1,$4,$5,$6,$7,0*
20,1,$1+$1,$6,$7,$8,$9,0*
20,1,$1+$1,$8,$9,$2,$3,0*%
G04 Aperture macros list end*
%ADD10RoundRect,0.125000X0.125000X-0.175000X0.125000X0.175000X-0.125000X0.175000X-0.125000X-0.175000X0*%
%ADD11RoundRect,0.125000X-0.125000X0.175000X-0.125000X-0.175000X0.125000X-0.175000X0.125000X0.175000X0*%
%ADD12RoundRect,0.200000X-0.275000X0.200000X-0.275000X-0.200000X0.275000X-0.200000X0.275000X0.200000X0*%
%ADD13RoundRect,0.250000X0.275000X0.700000X-0.275000X0.700000X-0.275000X-0.700000X0.275000X-0.700000X0*%
%ADD14RoundRect,0.135000X-0.185000X0.135000X-0.185000X-0.135000X0.185000X-0.135000X0.185000X0.135000X0*%
%ADD15RoundRect,0.250000X-0.475000X0.250000X-0.475000X-0.250000X0.475000X-0.250000X0.475000X0.250000X0*%
%ADD16RoundRect,0.225000X-0.250000X0.225000X-0.250000X-0.225000X0.250000X-0.225000X0.250000X0.225000X0*%
%ADD17R,1.240000X0.600000*%
%ADD18R,1.240000X0.300000*%
%ADD19RoundRect,0.200000X0.200000X0.275000X-0.200000X0.275000X-0.200000X-0.275000X0.200000X-0.275000X0*%
%ADD20RoundRect,0.225000X-0.225000X-0.250000X0.225000X-0.250000X0.225000X0.250000X-0.225000X0.250000X0*%
%ADD21RoundRect,0.147500X-0.172500X0.147500X-0.172500X-0.147500X0.172500X-0.147500X0.172500X0.147500X0*%
%ADD22RoundRect,0.375000X0.625000X0.375000X-0.625000X0.375000X-0.625000X-0.375000X0.625000X-0.375000X0*%
%ADD23RoundRect,0.500000X0.500000X1.400000X-0.500000X1.400000X-0.500000X-1.400000X0.500000X-1.400000X0*%
%ADD24RoundRect,0.250000X0.250000X0.475000X-0.250000X0.475000X-0.250000X-0.475000X0.250000X-0.475000X0*%
%ADD25RoundRect,0.250000X0.475000X-0.250000X0.475000X0.250000X-0.475000X0.250000X-0.475000X-0.250000X0*%
%ADD26RoundRect,0.150000X-0.150000X0.512500X-0.150000X-0.512500X0.150000X-0.512500X0.150000X0.512500X0*%
%ADD27RoundRect,0.250000X0.375000X0.625000X-0.375000X0.625000X-0.375000X-0.625000X0.375000X-0.625000X0*%
%ADD28RoundRect,0.250000X-0.250000X-0.475000X0.250000X-0.475000X0.250000X0.475000X-0.250000X0.475000X0*%
%ADD29RoundRect,0.225000X0.225000X0.250000X-0.225000X0.250000X-0.225000X-0.250000X0.225000X-0.250000X0*%
%ADD30RoundRect,0.150000X0.150000X-0.512500X0.150000X0.512500X-0.150000X0.512500X-0.150000X-0.512500X0*%
%ADD31RoundRect,0.225000X0.250000X-0.225000X0.250000X0.225000X-0.250000X0.225000X-0.250000X-0.225000X0*%
%ADD32RoundRect,0.200000X-0.200000X-0.275000X0.200000X-0.275000X0.200000X0.275000X-0.200000X0.275000X0*%
%ADD33R,0.900000X1.400000*%
%ADD34R,1.250000X1.000000*%
%ADD35RoundRect,0.140000X-0.170000X0.140000X-0.170000X-0.140000X0.170000X-0.140000X0.170000X0.140000X0*%
%ADD36RoundRect,0.200000X0.275000X-0.200000X0.275000X0.200000X-0.275000X0.200000X-0.275000X-0.200000X0*%
%ADD37RoundRect,0.250000X-0.350000X0.450000X-0.350000X-0.450000X0.350000X-0.450000X0.350000X0.450000X0*%
%ADD38RoundRect,0.075000X0.700000X0.075000X-0.700000X0.075000X-0.700000X-0.075000X0.700000X-0.075000X0*%
%ADD39RoundRect,0.075000X0.075000X0.700000X-0.075000X0.700000X-0.075000X-0.700000X0.075000X-0.700000X0*%
%ADD40RoundRect,0.140000X-0.140000X-0.170000X0.140000X-0.170000X0.140000X0.170000X-0.140000X0.170000X0*%
%ADD41RoundRect,0.135000X-0.135000X-0.185000X0.135000X-0.185000X0.135000X0.185000X-0.135000X0.185000X0*%
%ADD42RoundRect,0.218750X-0.218750X-0.256250X0.218750X-0.256250X0.218750X0.256250X-0.218750X0.256250X0*%
%ADD43RoundRect,0.250000X-0.450000X-0.350000X0.450000X-0.350000X0.450000X0.350000X-0.450000X0.350000X0*%
%ADD44RoundRect,0.243750X0.243750X0.456250X-0.243750X0.456250X-0.243750X-0.456250X0.243750X-0.456250X0*%
%ADD45RoundRect,0.140000X0.140000X0.170000X-0.140000X0.170000X-0.140000X-0.170000X0.140000X-0.170000X0*%
%ADD46R,1.000000X1.800000*%
%ADD47RoundRect,0.175000X0.325000X-0.175000X0.325000X0.175000X-0.325000X0.175000X-0.325000X-0.175000X0*%
%ADD48RoundRect,0.150000X0.150000X-0.200000X0.150000X0.200000X-0.150000X0.200000X-0.150000X-0.200000X0*%
%ADD49R,1.000000X2.600000*%
%ADD50R,1.500000X3.400000*%
%ADD51RoundRect,0.162500X-0.162500X0.650000X-0.162500X-0.650000X0.162500X-0.650000X0.162500X0.650000X0*%
%ADD52RoundRect,0.218750X0.218750X0.256250X-0.218750X0.256250X-0.218750X-0.256250X0.218750X-0.256250X0*%
%ADD53RoundRect,0.243750X0.456250X-0.243750X0.456250X0.243750X-0.456250X0.243750X-0.456250X-0.243750X0*%
%ADD54RoundRect,0.140000X0.170000X-0.140000X0.170000X0.140000X-0.170000X0.140000X-0.170000X-0.140000X0*%
%ADD55RoundRect,0.250000X-0.495000X-0.495000X0.495000X-0.495000X0.495000X0.495000X-0.495000X0.495000X0*%
%ADD56RoundRect,0.062500X-0.337500X-0.062500X0.337500X-0.062500X0.337500X0.062500X-0.337500X0.062500X0*%
%ADD57RoundRect,0.062500X-0.062500X-0.337500X0.062500X-0.337500X0.062500X0.337500X-0.062500X0.337500X0*%
%ADD58RoundRect,0.250000X0.275000X0.275000X-0.275000X0.275000X-0.275000X-0.275000X0.275000X-0.275000X0*%
%ADD59RoundRect,0.062500X0.350000X0.062500X-0.350000X0.062500X-0.350000X-0.062500X0.350000X-0.062500X0*%
%ADD60RoundRect,0.062500X0.062500X0.350000X-0.062500X0.350000X-0.062500X-0.350000X0.062500X-0.350000X0*%
%ADD61RoundRect,0.100000X0.100000X-0.225000X0.100000X0.225000X-0.100000X0.225000X-0.100000X-0.225000X0*%
%ADD62R,0.600000X1.000000*%
%ADD63RoundRect,0.218750X0.218750X0.381250X-0.218750X0.381250X-0.218750X-0.381250X0.218750X-0.381250X0*%
%ADD64RoundRect,0.135000X0.135000X0.185000X-0.135000X0.185000X-0.135000X-0.185000X0.135000X-0.185000X0*%
%ADD65RoundRect,0.243750X-0.456250X0.243750X-0.456250X-0.243750X0.456250X-0.243750X0.456250X0.243750X0*%
%ADD66RoundRect,0.090000X0.360000X-0.660000X0.360000X0.660000X-0.360000X0.660000X-0.360000X-0.660000X0*%
G04 APERTURE END LIST*
D10*
%TO.C,Q2*%
X93000000Y-72250000D03*
X94000000Y-72250000D03*
X93500000Y-70950000D03*
%TD*%
D11*
%TO.C,Q1*%
X94000000Y-77500000D03*
X93000000Y-77500000D03*
X93500000Y-78800000D03*
%TD*%
D12*
%TO.C,R31*%
X126250000Y-61500000D03*
X126250000Y-63150000D03*
%TD*%
%TO.C,R30*%
X113750000Y-61500000D03*
X113750000Y-63150000D03*
%TD*%
D13*
%TO.C,GD1*%
X159825000Y-73500000D03*
X156675000Y-73500000D03*
%TD*%
D14*
%TO.C,R50*%
X141500000Y-73990000D03*
X141500000Y-75010000D03*
%TD*%
D15*
%TO.C,C15*%
X127500000Y-96300000D03*
X127500000Y-98200000D03*
%TD*%
D12*
%TO.C,R32*%
X123740000Y-61500000D03*
X123740000Y-63150000D03*
%TD*%
D16*
%TO.C,C48*%
X91250000Y-96750000D03*
X91250000Y-98300000D03*
%TD*%
D17*
%TO.C,J1*%
X157075000Y-101850000D03*
X157075000Y-101050000D03*
D18*
X157075000Y-99900000D03*
X157075000Y-98900000D03*
X157075000Y-98400000D03*
X157075000Y-97400000D03*
D17*
X157075000Y-96250000D03*
X157075000Y-95450000D03*
X157075000Y-95450000D03*
X157075000Y-96250000D03*
D18*
X157075000Y-96900000D03*
X157075000Y-97900000D03*
X157075000Y-99400000D03*
X157075000Y-100400000D03*
D17*
X157075000Y-101050000D03*
X157075000Y-101850000D03*
%TD*%
D19*
%TO.C,R27*%
X140075000Y-62000000D03*
X138425000Y-62000000D03*
%TD*%
D20*
%TO.C,C27*%
X126175000Y-85480000D03*
X127725000Y-85480000D03*
%TD*%
D21*
%TO.C,L6*%
X81775000Y-89050000D03*
X81775000Y-90020000D03*
%TD*%
D22*
%TO.C,U1*%
X123150000Y-101300000D03*
X123150000Y-99000000D03*
D23*
X116850000Y-99000000D03*
D22*
X123150000Y-96700000D03*
%TD*%
D24*
%TO.C,C32*%
X111950000Y-70250000D03*
X110050000Y-70250000D03*
%TD*%
D19*
%TO.C,R10*%
X148300000Y-62500000D03*
X146650000Y-62500000D03*
%TD*%
%TO.C,R29*%
X136575000Y-67250000D03*
X134925000Y-67250000D03*
%TD*%
D16*
%TO.C,C30*%
X129450000Y-83025000D03*
X129450000Y-84575000D03*
%TD*%
D12*
%TO.C,R17*%
X118500000Y-61675000D03*
X118500000Y-63325000D03*
%TD*%
D20*
%TO.C,C16*%
X127975000Y-80900000D03*
X129525000Y-80900000D03*
%TD*%
D25*
%TO.C,C8*%
X114300000Y-100200000D03*
X114300000Y-98300000D03*
%TD*%
D26*
%TO.C,U2*%
X129050000Y-92162500D03*
X128100000Y-92162500D03*
X127150000Y-92162500D03*
X127150000Y-94437500D03*
X128100000Y-94437500D03*
X129050000Y-94437500D03*
%TD*%
D27*
%TO.C,F1*%
X149650000Y-94250000D03*
X146850000Y-94250000D03*
%TD*%
D16*
%TO.C,C56*%
X95800000Y-77475000D03*
X95800000Y-79025000D03*
%TD*%
D28*
%TO.C,C3*%
X145300000Y-99000000D03*
X147200000Y-99000000D03*
%TD*%
D16*
%TO.C,C28*%
X123500000Y-83350000D03*
X123500000Y-84900000D03*
%TD*%
D29*
%TO.C,C39*%
X140025000Y-63750000D03*
X138475000Y-63750000D03*
%TD*%
D30*
%TO.C,U6*%
X143100000Y-75387500D03*
X144050000Y-75387500D03*
X145000000Y-75387500D03*
X145000000Y-73112500D03*
X143100000Y-73112500D03*
%TD*%
D28*
%TO.C,C7*%
X134800000Y-93250000D03*
X136700000Y-93250000D03*
%TD*%
D31*
%TO.C,C2*%
X125500000Y-98025000D03*
X125500000Y-96475000D03*
%TD*%
D32*
%TO.C,R9*%
X149925000Y-69750000D03*
X151575000Y-69750000D03*
%TD*%
D33*
%TO.C,C18*%
X150475000Y-78000000D03*
X146575000Y-78000000D03*
%TD*%
D13*
%TO.C,GD2*%
X159825000Y-69750000D03*
X156675000Y-69750000D03*
%TD*%
D34*
%TO.C,SW1*%
X89250000Y-75750000D03*
X81500000Y-75750000D03*
%TD*%
D21*
%TO.C,L4*%
X85900000Y-89150000D03*
X85900000Y-90120000D03*
%TD*%
D32*
%TO.C,R19*%
X142425000Y-79500000D03*
X144075000Y-79500000D03*
%TD*%
D14*
%TO.C,R51*%
X141750000Y-67490000D03*
X141750000Y-68510000D03*
%TD*%
D35*
%TO.C,C10*%
X144250000Y-77020000D03*
X144250000Y-77980000D03*
%TD*%
D19*
%TO.C,R26*%
X140075000Y-72000000D03*
X138425000Y-72000000D03*
%TD*%
D20*
%TO.C,C12*%
X123975000Y-91500000D03*
X125525000Y-91500000D03*
%TD*%
%TO.C,C35*%
X124725000Y-76250000D03*
X126275000Y-76250000D03*
%TD*%
D36*
%TO.C,R33*%
X125500000Y-103575000D03*
X125500000Y-101925000D03*
%TD*%
D37*
%TO.C,Y2*%
X87850000Y-86850000D03*
X87850000Y-89050000D03*
X89550000Y-89050000D03*
X89550000Y-86850000D03*
%TD*%
D28*
%TO.C,C34*%
X119750000Y-88500000D03*
X121650000Y-88500000D03*
%TD*%
D20*
%TO.C,C22*%
X127975000Y-79000000D03*
X129525000Y-79000000D03*
%TD*%
D19*
%TO.C,R42*%
X107312500Y-74500000D03*
X105662500Y-74500000D03*
%TD*%
D38*
%TO.C,U8*%
X121175000Y-82500000D03*
X121175000Y-82000000D03*
X121175000Y-81500000D03*
X121175000Y-81000000D03*
X121175000Y-80500000D03*
X121175000Y-80000000D03*
X121175000Y-79500000D03*
X121175000Y-79000000D03*
X121175000Y-78500000D03*
X121175000Y-78000000D03*
X121175000Y-77500000D03*
X121175000Y-77000000D03*
X121175000Y-76500000D03*
X121175000Y-76000000D03*
X121175000Y-75500000D03*
X121175000Y-75000000D03*
D39*
X119250000Y-73075000D03*
X118750000Y-73075000D03*
X118250000Y-73075000D03*
X117750000Y-73075000D03*
X117250000Y-73075000D03*
X116750000Y-73075000D03*
X116250000Y-73075000D03*
X115750000Y-73075000D03*
X115250000Y-73075000D03*
X114750000Y-73075000D03*
X114250000Y-73075000D03*
X113750000Y-73075000D03*
X113250000Y-73075000D03*
X112750000Y-73075000D03*
X112250000Y-73075000D03*
X111750000Y-73075000D03*
D38*
X109825000Y-75000000D03*
X109825000Y-75500000D03*
X109825000Y-76000000D03*
X109825000Y-76500000D03*
X109825000Y-77000000D03*
X109825000Y-77500000D03*
X109825000Y-78000000D03*
X109825000Y-78500000D03*
X109825000Y-79000000D03*
X109825000Y-79500000D03*
X109825000Y-80000000D03*
X109825000Y-80500000D03*
X109825000Y-81000000D03*
X109825000Y-81500000D03*
X109825000Y-82000000D03*
X109825000Y-82500000D03*
D39*
X111750000Y-84425000D03*
X112250000Y-84425000D03*
X112750000Y-84425000D03*
X113250000Y-84425000D03*
X113750000Y-84425000D03*
X114250000Y-84425000D03*
X114750000Y-84425000D03*
X115250000Y-84425000D03*
X115750000Y-84425000D03*
X116250000Y-84425000D03*
X116750000Y-84425000D03*
X117250000Y-84425000D03*
X117750000Y-84425000D03*
X118250000Y-84425000D03*
X118750000Y-84425000D03*
X119250000Y-84425000D03*
%TD*%
D12*
%TO.C,R36*%
X88750000Y-99925000D03*
X88750000Y-101575000D03*
%TD*%
D30*
%TO.C,U9*%
X138300000Y-67887500D03*
X139250000Y-67887500D03*
X140200000Y-67887500D03*
X140200000Y-65612500D03*
X138300000Y-65612500D03*
%TD*%
D40*
%TO.C,C57*%
X143020000Y-62000000D03*
X143980000Y-62000000D03*
%TD*%
D28*
%TO.C,C6*%
X134800000Y-91000000D03*
X136700000Y-91000000D03*
%TD*%
D32*
%TO.C,R7*%
X153175000Y-69750000D03*
X154825000Y-69750000D03*
%TD*%
D29*
%TO.C,C45*%
X82775000Y-95250000D03*
X81225000Y-95250000D03*
%TD*%
D32*
%TO.C,R13*%
X146750000Y-68000000D03*
X148400000Y-68000000D03*
%TD*%
D24*
%TO.C,C14*%
X132950000Y-91000000D03*
X131050000Y-91000000D03*
%TD*%
D20*
%TO.C,C31*%
X119725000Y-86500000D03*
X121275000Y-86500000D03*
%TD*%
D29*
%TO.C,C49*%
X82750000Y-97250000D03*
X81200000Y-97250000D03*
%TD*%
D24*
%TO.C,C33*%
X107950000Y-70250000D03*
X106050000Y-70250000D03*
%TD*%
D41*
%TO.C,R41*%
X144740000Y-104000000D03*
X145760000Y-104000000D03*
%TD*%
%TO.C,R44*%
X147230000Y-102000000D03*
X148250000Y-102000000D03*
%TD*%
D42*
%TO.C,D6*%
X149702500Y-103750000D03*
X151277500Y-103750000D03*
%TD*%
D31*
%TO.C,C55*%
X92350000Y-101525000D03*
X92350000Y-99975000D03*
%TD*%
D14*
%TO.C,R52*%
X141500000Y-63990000D03*
X141500000Y-65010000D03*
%TD*%
D41*
%TO.C,R39*%
X90990000Y-92100000D03*
X92010000Y-92100000D03*
%TD*%
D32*
%TO.C,R21*%
X141925000Y-70000000D03*
X143575000Y-70000000D03*
%TD*%
D42*
%TO.C,D8*%
X149665000Y-107250000D03*
X151240000Y-107250000D03*
%TD*%
D43*
%TO.C,Y1*%
X123900000Y-80750000D03*
X126100000Y-80750000D03*
X126100000Y-79050000D03*
X123900000Y-79050000D03*
%TD*%
D20*
%TO.C,C24*%
X146725000Y-82500000D03*
X148275000Y-82500000D03*
%TD*%
%TO.C,C21*%
X146700000Y-60750000D03*
X148250000Y-60750000D03*
%TD*%
D29*
%TO.C,C38*%
X140025000Y-73750000D03*
X138475000Y-73750000D03*
%TD*%
D36*
%TO.C,R34*%
X127250000Y-103575000D03*
X127250000Y-101925000D03*
%TD*%
D44*
%TO.C,D4*%
X162187500Y-105750000D03*
X160312500Y-105750000D03*
%TD*%
D30*
%TO.C,U10*%
X138350000Y-77887500D03*
X139300000Y-77887500D03*
X140250000Y-77887500D03*
X140250000Y-75612500D03*
X138350000Y-75612500D03*
%TD*%
D16*
%TO.C,C44*%
X91815000Y-87965000D03*
X91815000Y-89515000D03*
%TD*%
D45*
%TO.C,C52*%
X82730000Y-91015000D03*
X81770000Y-91015000D03*
%TD*%
D46*
%TO.C,X1*%
X127700000Y-83300000D03*
X125200000Y-83300000D03*
%TD*%
D32*
%TO.C,R4*%
X127175000Y-90250000D03*
X128825000Y-90250000D03*
%TD*%
D47*
%TO.C,U4*%
X151000000Y-99600000D03*
D48*
X152700000Y-99600000D03*
X152700000Y-97600000D03*
X150800000Y-97600000D03*
%TD*%
D32*
%TO.C,R3*%
X123925000Y-89750000D03*
X125575000Y-89750000D03*
%TD*%
%TO.C,R23*%
X141905000Y-83500000D03*
X143555000Y-83500000D03*
%TD*%
D49*
%TO.C,J2*%
X133950000Y-98200000D03*
X131950000Y-98200000D03*
D50*
X136300000Y-103500000D03*
X129600000Y-103500000D03*
%TD*%
D29*
%TO.C,C46*%
X93325000Y-86250000D03*
X91775000Y-86250000D03*
%TD*%
D32*
%TO.C,R15*%
X134905000Y-81750000D03*
X136555000Y-81750000D03*
%TD*%
D51*
%TO.C,U12*%
X98555000Y-91282500D03*
X97285000Y-91282500D03*
X96015000Y-91282500D03*
X94745000Y-91282500D03*
X94745000Y-98457500D03*
X96015000Y-98457500D03*
X97285000Y-98457500D03*
X98555000Y-98457500D03*
%TD*%
D24*
%TO.C,C26*%
X136630000Y-83750000D03*
X134730000Y-83750000D03*
%TD*%
D41*
%TO.C,R40*%
X91000000Y-91000000D03*
X92020000Y-91000000D03*
%TD*%
D15*
%TO.C,C11*%
X112050000Y-98300000D03*
X112050000Y-100200000D03*
%TD*%
D12*
%TO.C,R2*%
X160500000Y-89675000D03*
X160500000Y-91325000D03*
%TD*%
D52*
%TO.C,D7*%
X151277500Y-105500000D03*
X149702500Y-105500000D03*
%TD*%
D16*
%TO.C,C54*%
X95800000Y-69950000D03*
X95800000Y-71500000D03*
%TD*%
D29*
%TO.C,C19*%
X107600000Y-83500000D03*
X106050000Y-83500000D03*
%TD*%
D35*
%TO.C,C58*%
X144250000Y-67510000D03*
X144250000Y-68470000D03*
%TD*%
D30*
%TO.C,U5*%
X143050000Y-65887500D03*
X144000000Y-65887500D03*
X144950000Y-65887500D03*
X144950000Y-63612500D03*
X143050000Y-63612500D03*
%TD*%
D36*
%TO.C,R46*%
X90250000Y-74075000D03*
X90250000Y-72425000D03*
%TD*%
D53*
%TO.C,D2*%
X145250000Y-107500000D03*
X145250000Y-105625000D03*
%TD*%
D29*
%TO.C,C25*%
X110300000Y-72250000D03*
X108750000Y-72250000D03*
%TD*%
D14*
%TO.C,R25*%
X141500000Y-61990000D03*
X141500000Y-63010000D03*
%TD*%
D15*
%TO.C,C50*%
X81500000Y-99500000D03*
X81500000Y-101400000D03*
%TD*%
D14*
%TO.C,R49*%
X141750000Y-76990000D03*
X141750000Y-78010000D03*
%TD*%
D19*
%TO.C,R28*%
X136575000Y-77000000D03*
X134925000Y-77000000D03*
%TD*%
D12*
%TO.C,R5*%
X162500000Y-89675000D03*
X162500000Y-91325000D03*
%TD*%
D20*
%TO.C,C36*%
X127975000Y-75500000D03*
X129525000Y-75500000D03*
%TD*%
D54*
%TO.C,C59*%
X137000000Y-64980000D03*
X137000000Y-64020000D03*
%TD*%
D52*
%TO.C,D5*%
X151240000Y-102000000D03*
X149665000Y-102000000D03*
%TD*%
D32*
%TO.C,R18*%
X127925000Y-77250000D03*
X129575000Y-77250000D03*
%TD*%
D45*
%TO.C,C53*%
X82710000Y-88025000D03*
X81750000Y-88025000D03*
%TD*%
D32*
%TO.C,R43*%
X156675000Y-105500000D03*
X158325000Y-105500000D03*
%TD*%
D55*
%TO.C,U11*%
X86150000Y-93470000D03*
X86150000Y-95320000D03*
X88000000Y-93470000D03*
X88000000Y-95320000D03*
D56*
X84625000Y-92645000D03*
X84625000Y-93145000D03*
X84625000Y-93645000D03*
X84625000Y-94145000D03*
X84625000Y-94645000D03*
X84625000Y-95145000D03*
X84625000Y-95645000D03*
X84625000Y-96145000D03*
D57*
X85325000Y-96845000D03*
X85825000Y-96845000D03*
X86325000Y-96845000D03*
X86825000Y-96845000D03*
X87325000Y-96845000D03*
X87825000Y-96845000D03*
X88325000Y-96845000D03*
X88825000Y-96845000D03*
D56*
X89525000Y-96145000D03*
X89525000Y-95645000D03*
X89525000Y-95145000D03*
X89525000Y-94645000D03*
X89525000Y-94145000D03*
X89525000Y-93645000D03*
X89525000Y-93145000D03*
X89525000Y-92645000D03*
D57*
X88825000Y-91945000D03*
X88325000Y-91945000D03*
X87825000Y-91945000D03*
X87325000Y-91945000D03*
X86825000Y-91945000D03*
X86325000Y-91945000D03*
X85825000Y-91945000D03*
X85325000Y-91945000D03*
%TD*%
D12*
%TO.C,R1*%
X145000000Y-93100000D03*
X145000000Y-94750000D03*
%TD*%
D28*
%TO.C,C1*%
X145300000Y-96750000D03*
X147200000Y-96750000D03*
%TD*%
D29*
%TO.C,C37*%
X143480000Y-81750000D03*
X141930000Y-81750000D03*
%TD*%
%TO.C,C9*%
X132500000Y-93000000D03*
X130950000Y-93000000D03*
%TD*%
D32*
%TO.C,R11*%
X149925000Y-73500000D03*
X151575000Y-73500000D03*
%TD*%
D34*
%TO.C,SW4*%
X158625000Y-91000000D03*
X150875000Y-91000000D03*
%TD*%
D28*
%TO.C,C43*%
X87530000Y-82810000D03*
X89430000Y-82810000D03*
%TD*%
D58*
%TO.C,U3*%
X142000000Y-99500000D03*
X142000000Y-98200000D03*
X140700000Y-99500000D03*
X140700000Y-98200000D03*
D59*
X143287500Y-100100000D03*
X143287500Y-99600000D03*
X143287500Y-99100000D03*
X143287500Y-98600000D03*
X143287500Y-98100000D03*
X143287500Y-97600000D03*
D60*
X142600000Y-96912500D03*
X142100000Y-96912500D03*
X141600000Y-96912500D03*
X141100000Y-96912500D03*
X140600000Y-96912500D03*
X140100000Y-96912500D03*
D59*
X139412500Y-97600000D03*
X139412500Y-98100000D03*
X139412500Y-98600000D03*
X139412500Y-99100000D03*
X139412500Y-99600000D03*
X139412500Y-100100000D03*
D60*
X140100000Y-100787500D03*
X140600000Y-100787500D03*
X141100000Y-100787500D03*
X141600000Y-100787500D03*
X142100000Y-100787500D03*
X142600000Y-100787500D03*
%TD*%
D61*
%TO.C,U7*%
X138530000Y-83550000D03*
X139180000Y-83550000D03*
X139830000Y-83550000D03*
X139830000Y-81650000D03*
X138530000Y-81650000D03*
%TD*%
D32*
%TO.C,R14*%
X138330000Y-85250000D03*
X139980000Y-85250000D03*
%TD*%
D24*
%TO.C,C4*%
X125500000Y-93500000D03*
X123600000Y-93500000D03*
%TD*%
D12*
%TO.C,R35*%
X90500000Y-99925000D03*
X90500000Y-101575000D03*
%TD*%
%TO.C,R37*%
X83500000Y-99925000D03*
X83500000Y-101575000D03*
%TD*%
D62*
%TO.C,ANT1*%
X81750000Y-85950000D03*
X81750000Y-82950000D03*
X80450000Y-82950000D03*
X80450000Y-85950000D03*
%TD*%
D63*
%TO.C,L1*%
X136812500Y-95250000D03*
X134687500Y-95250000D03*
%TD*%
D31*
%TO.C,C29*%
X119570000Y-70925000D03*
X119570000Y-69375000D03*
%TD*%
D42*
%TO.C,L3*%
X131000000Y-94750000D03*
X132575000Y-94750000D03*
%TD*%
D40*
%TO.C,C5*%
X143020000Y-71500000D03*
X143980000Y-71500000D03*
%TD*%
D31*
%TO.C,C42*%
X84350000Y-90325000D03*
X84350000Y-88775000D03*
%TD*%
D42*
%TO.C,L2*%
X112762500Y-96450000D03*
X114337500Y-96450000D03*
%TD*%
D32*
%TO.C,R16*%
X146675000Y-75250000D03*
X148325000Y-75250000D03*
%TD*%
D14*
%TO.C,R20*%
X143000000Y-76990000D03*
X143000000Y-78010000D03*
%TD*%
D64*
%TO.C,R38*%
X92010000Y-93200000D03*
X90990000Y-93200000D03*
%TD*%
D14*
%TO.C,R22*%
X143000000Y-67500000D03*
X143000000Y-68520000D03*
%TD*%
D32*
%TO.C,R8*%
X153175000Y-73500000D03*
X154825000Y-73500000D03*
%TD*%
D19*
%TO.C,R12*%
X148325000Y-80750000D03*
X146675000Y-80750000D03*
%TD*%
D12*
%TO.C,R45*%
X85250000Y-99925000D03*
X85250000Y-101575000D03*
%TD*%
D52*
%TO.C,L5*%
X89035000Y-84740000D03*
X87460000Y-84740000D03*
%TD*%
D54*
%TO.C,C13*%
X136750000Y-74980000D03*
X136750000Y-74020000D03*
%TD*%
D32*
%TO.C,R48*%
X92225000Y-74000000D03*
X93875000Y-74000000D03*
%TD*%
D14*
%TO.C,R24*%
X141500000Y-71980000D03*
X141500000Y-73000000D03*
%TD*%
D32*
%TO.C,R6*%
X138750000Y-95250000D03*
X140400000Y-95250000D03*
%TD*%
D33*
%TO.C,C17*%
X150450000Y-65250000D03*
X146550000Y-65250000D03*
%TD*%
D32*
%TO.C,R47*%
X92225000Y-75750000D03*
X93875000Y-75750000D03*
%TD*%
D29*
%TO.C,C40*%
X126055000Y-73620000D03*
X124505000Y-73620000D03*
%TD*%
D65*
%TO.C,D3*%
X103700000Y-72562500D03*
X103700000Y-74437500D03*
%TD*%
D16*
%TO.C,C47*%
X87000000Y-99975000D03*
X87000000Y-101525000D03*
%TD*%
D40*
%TO.C,C51*%
X138770000Y-80250000D03*
X139730000Y-80250000D03*
%TD*%
D66*
%TO.C,D1*%
X114100000Y-93900000D03*
X117400000Y-93900000D03*
X117400000Y-89000000D03*
X114100000Y-89000000D03*
%TD*%
D29*
%TO.C,C20*%
X151525000Y-68000000D03*
X149975000Y-68000000D03*
%TD*%
%TO.C,C41*%
X126120000Y-71380000D03*
X124570000Y-71380000D03*
%TD*%
%TO.C,C23*%
X151500000Y-75250000D03*
X149950000Y-75250000D03*
%TD*%
M02*
